<mxfile host="65bd71144e">
    <diagram id="22Rwc9_lbK8Czymtd1eV" name="Page-1">
        <mxGraphModel dx="2260" dy="720" grid="0" gridSize="10" guides="1" tooltips="1" connect="1" arrows="1" fold="1" page="1" pageScale="1" pageWidth="850" pageHeight="1100" math="0" shadow="0">
            <root>
                <mxCell id="0"/>
                <mxCell id="1" parent="0"/>
                <mxCell id="qMUsyCZSyLWOP69boBCw-1" value="" style="shape=image;verticalLabelPosition=bottom;labelBackgroundColor=default;verticalAlign=top;aspect=fixed;imageAspect=0;image=data:image/png,iVBORw0KGgoAAAANSUhEUgAAAtkAAAGyCAYAAAAxltiaAAAAAXNSR0IArs4c6QAAAARnQU1BAACxjwv8YQUAAAAJcEhZcwAADsMAAA7DAcdvqGQAAP+lSURBVHhe7N0HgBTl/f/x9+3e3u313vvR+9F7RwERFSv2XqKJJVUTU0z5af5RY4y9izUKiAhK79I7HFzleu99b9v8n9lb4CgK6GE0fl8/9xdudnZ29plndj7P7DPPeGgKQnwnyvnwshiuHbUF7eFR7mlCnGjrEx6M3voBZYvmEu2eJoQQQvzQGNz/K0SX2vrEZXxY7v7DbesTKmB/+jhbJGALpfzDy3hiq/sPN33a6Ecu5YOXJGALIYT4YZOQLc6L5GS4NsYDD4/jD9fZSe1hJGILXXTyKB4ZfWIdibl2FFu0RcyVhC2EEOIHTrqLCCGEEEII0cXkTLYQQgghhBBdTEK2EEIIIYQQXUxCthBCCCGEEF1MQrYQQgghhBBdTEK2EEIIIYQQXUxCthBCCCGEEF1MQrYQQgghhBBdTEK2EEIIIYQQXUxCthBCCCGEEF1MQrYQQgghhBBdTEK2EEIIIYQQXUxCthBCCCGEEF1MQrYQQgghhBBdTEK2EEIIIYQQXUxCthBCCCGEEF1MQrYQQgghhBBdTEK2EEIIIYQQXUxCthBCCCGEEF1MQrYQQgghhBBdTEK2EEIIIYQQXUxCthBCCCGEEF1MQrYQQgghhBBdTEK2EEIIIYQQXUxCthBCCCGEEF1MQrYQQgghhBBdTEK2EEIIIYQQXUxCthBCCCGEEF1MQrYQQgghhBBdTEK2EEIIIYQQXUxCthBCCCGEEF1MQrYQQgghhBBdTEK2EEIIIYQQXcxDU9z/Ft9W+R627j7E1qwq94Qz8cXk3Y0J148hNdAHP/fU09E0J47WaiqKiigoLKKssoqahhba7PpzagajCU+TD/4+AQRHRROVlEB8VDgR/l54OhrJXHcI46DeRMZGEtqxyOOcbbQ1VlGccZD07FIqG1rVcp1oHkY89GWGhBMbk0xSagKxUb74U8feTRVE9EsmMjoEH/dizpXT2khzdTHZe/dzqLSWhlYbds2Ip08gIdHdGDA8jdQw9f5eZ24LOttrqDiSRU5mLplldbRaHTg9TPgEqrJI7Eb/If1JCjBiMnq4X3F2NKdap/Y6yrLSOXQ4H0toX+L6j2R4rHuGc2RrrKA2fSWf7a2jud3hnnoqD59QzMmjuXJ8MiG+prNuDTsb8ijNOcCSjUdoV39/5c7tl0B0Sj9mTOtNgPrT2DFV/AC01RZTsHU+G/JA7TLnxMNgxOjlh4+XL8HxSaR0TyUlNoIQs5xvOa6cnK27ObA1iwL3lM6MJm9SJlzP8NRAor7uS/tb0BxWWjJXsvKgEd+UXqQNTSFKNpEQPzgSsrvS4fm89fEy3lqdgd3SQGl2JuWNNtpOylLmsGRiY6OIDoklMGAc9712G6OjgwlzP9+Z5rBgaaqlvCCfwvzD7Nuxi527D5JVUkmLirfefuqAafJUB04zXl7+BHv74R8eQFBiKqlJSSSH+2C2VrLy39vp8egdjJ80hN7uZevsrRVUFGSSsXcXX65Zx44jTTTb9ICtnlQHZE0dUHx8vAkJ6UHPAX3p1TtErWcpn7zbxMz7L2Ps6J6EdyzqnNgbSyjK2cuerRtZOX8xyw8UUFrfRrvThHdgDAl9x3HJ9VcydfRQBqeqsgry4nTxWHM6cNTnk5m+g03LvmDt6o2sSS+ipsWO0+BDUExveg2dwOy5lzF56ED6xgcS7ON52mV10HcHDYelmcbaSiorSigszGL/2s9ZvnwbjhE/Ydqdv+eRcR1znytLRSb5n/8/fr+wgIraGmpKSigrqaJONZY68whKJWTMg8x/8SaGxwfhf1Yp2EHTvo9Y/eEL3PTEJprVlOM7t4cKWGbCUvuQEO5HQOxw+o6eye9+OY1o9axnx0ziB6ChYC873n6Q57doVNdWUV5URml5Pa2dv8m9ggkIi6FPz0jMmtpH2ltoqK6gpraBOoc/Qb4hxKaNYPSECYwfOZQBfXrQPcIHL0/D1+wbPxaH2fjWxyx+/XM2N5eScaiUBtVoP/o1bvILYvY/9/Lbi5MZGuOe2KXs2NuqOPjsLTzwgUboRbdyz8+vZnq4NIWF+MHRQ7boWg5LnVaXtVT7+6wYrUewO7Udexi0Hlf+TXt6Wb5W3e5+wSmcrofTZtFaKtO1fZ8/o/1mepIW4+OpeRq9NO+gVK3HmBu1X7/5pbaluF5rsNrV/DbN1lqtVR7eqM1//HptzrBELdrXUzN66O9pUo/LtUc+2akddi1fcar3sFu0yt1vaE/eNlbr5x+g+cVM1G5+Zpm2NrdWa7Spz2Fr1Zor0rUt7zyo3Tahh5boZ9I89eUZzRp9f609tyZTq3Iv7mw51fs69fdd95T2x6sHahGencvm5IeP1vO6p7Tn1hZpKvi7l3Cc0+nQ7K01WsmiB7XrRiVogapNcPrlGDSjOUob/PNF2hfpNZrFfuqy9PJwOlQZWlq05sZqrTx9lbbonz/Rbp2UovmqZajg4VrWoLl/1P5vo/s135j+/lattepL7aM/Xq1dFHHy+uqPQM0ccIH2yLoiLavpNOt7Os5Gbc/7v9UeHmPSPFzbvfPDW/Py7aNd/eJObVtJm6ot4odNrxMWrTnrY+35e6dpA7xP2t7RU7URd7ynZal6bbU2a/V527Rlzz+k/WRqqhbqbdAMR+uHMVAL6T1dm/PcDi27uk2zOs6yrv0IOJrytKpNj2gXxwZrwZ3KVoVs7fJX8rSdpe4Zu5jT0aC11qzUnpgYrfXw89R6Xvqw9sgX9ZpDf65jFiHED4T8AHUeeHgF4Bc9jAkjkogM69yZQi/ubqSNHMKA/rEEmzqmnp6DpowFzHv819x11194aUMJlRY7fr3ncNPvn+H1957k11cMIS0qAH9PfblGjN7BhKYOY8Y9T/Psy0/w21smMTSoY2mncFqhZCGvPvk6byzcQ1V0f6b97kV+c/VYRiYE4mdUn8PojU9Yd9IufZS/vfwPfn/PTMaFfctznup9HYUf8/KLH/GfZRnUnHQG90QW8hY/xyfzF/NR5qldK7S2MpoOv8Uf/rKAdftKafrK3hdOHO01pL/+W+Yt283mUqd7eieOFprLDrDzo7/zq+tmMHPOLdz91/eYv7WINvW0fnTtWp54hwyhV5/uDOnnnnSCJmy2PSxZfpiSsib3tDOwHCIvu5T9h8wEBqradsLeHYinaQRjJ8QSE+kl3UP+J3jhkzyYXr1SSfu6M6qePgTEDWT89Y/w8BP/5LU7ehIR4P7ycTTRkLuVtX9/iKdWFZFV89VdmH5sPHx9MffoSYrJ9LVd+bqa1lRF6/bP+Cy3lZJWO3mHDrN13WYq1XOydYT4YZGQfR54eBgxmMyEBAfgZeocSvUfYk14+3hj9jbxVd2DNbuV1oMf8fZr7/Pu4m0cLKmhoV3NnDCTK268mrmzRzEoIZKwADNmFbANHvqC9O4Aen9LM37BkcT0nsjMq67g5usnkqxW4cRo7MBua2TPZx+xZd8h8hu88PJPpN/QVKJC9O4nav3VIj081LKNXpgDwohMHc0Fc6/i5jtmMlAtzOsr1v3r2bBbK9j84UcctqpgcMPvePzFV3nzjdd49Znfce+sQfSN9HbPq9OwNZewb9cuVq3bR4Oacjwet1Jfls369xaQG34Blzz0OM+88hpvvPo8LzzxADeOjic2sNOn1uxYG46wcd02dqcXuLpSdGYp3EPm+oW8vL6IemMYvkaV/q3NNKmGTdcH7I7tZTDqXXxMhIX602/gQHy8OneJ0XDYmslbsZHDJZVUnqZdcLKmQzvJanFQkjqUCeFwYjdbvRuADz6+nnhKl4D/Ae46pL5nvL3VPnriDn6c/t2g78dqPt+gcGJ69mX4ZTMY4utDR/tbw2lrorEig2VLNpNVWqP2LKHzUK1UD7VPmvRydk87/2w01ZSxa+VKiprasKgvH1tpBmX7v2RDkfqe+tqTEkKI7xsJ2eeNB54mE4YTTyeekabCr6V8G0vemceHi75kZ241LZonRlMkAy+6nksuGsfw7hEEnuFUpNE3ltShFzLjiiu5dnwcgebOL7CosJvLliW7OVKk9+VUBxEV0M3enq5j8ukYvCJJGjiZaZfNYe7YGPxOWN5ZsjZiq9jN6sxgkkbP5ro7bue2W27hZvW45dbbufOum7hs4kD6Brvnd7FSnZVL5pb9rouQjl3n1VJCTWkuq/MSGXflDdx4+23cenRZt93OXffcwPRBCcT7uud3sVC8cz/Z2QWUuacc4+mLb1gyPYdO5qJrbuH2m2cxNS3pG/U3P1c+oWH0mDKD/sE+BHauLg4bzYeWs+NQEblfe8pfT+A1ZKkyqrb5EjlmDH3V5zbJ3i1O4IHJP5TQgRMYHONDiJd7sqo/TnsT+RtUyC6pOsOvS+K8aq+gpvgAXyzPcl0I7mpbtxRRlbeLT78spvm8NPqFEOeLHIa/V2xY6vPJWf06L7z7JfsL610jRGD0xyt8CJdePYkByeEEnOVWMwSkEj9gKrffPp7uQWbM7uk4mtV/BzlwqJW6Rv0ru5WWhiLSt+wjv9ZCq/0rvsa94ohMGclVt4wmMdB87mez7VZorsWZdiuXXHIhFw6OI9ysB3sjnoEppM26nisvncbFfQLdL3CrVeVQWkGJ+uexn0vbmtA8fDCNfYA7rhzN8NQwAvQz8Cos+4T3Zdx193L9hUMYGn/S2CflVTTUNrh+eu3MnDiUvtNv55Gf3MgN187l1nuuZsbIfiS5nz+fjAHhBA+fyYxeYcSccIWj+rRtu9m2I5P07AbV3Dg9/eJPZ8N+tuxvwGmOZcLoHui/B8jZanEKgxmDTzzxMZ74dt41VB2iMI+y+hZqpU/Cf017dQbF6RtZke7oNHJMK/XV+axfspGiJguWs/hVSwjx/SAh+3tEc9RQnrOd9/4xj71VzTQfzboBEZiHXMr0PgHEnG3CdvMKjSRm+uVMCvMn8uhPyu3tOMtKKXE4XP2N1QRq8vax6LFf89aXOWRUtmLRh8A7zcAzXqHhxEybzfhgXyLOtfaYI/DpfjUP3zuRYT3CXEHwBMYo+vYfyMTJA9wT3EyeGLxM6CfejgXH4H6kDr+Mx+4fRYJqQJzQvV2FdjwTGD1uKH36JbonuqnleHoaT5z/dIKC8PfzP+2IL13Owx+TeQgXXNyT+Di/k3ZKO4e2bONAeiZVpz24qm3ksNK+exlbm1LxSBjA2J7f4FcGN01tc33YQmurqn+NDTTU11OvPxoaaWppx2p3qnrhnvkkmqaeU+vS1txEY4P7dfWNNDar+mRz4tDXU9W91pN/89bf02HHZul4z47XqfduVH9bbDicTvVcm3qtFevpykB/veZQbTgLbS1NNHVe72PrrsKJXqf12TtedVquz6Aagxb1+fXlHFvGGR6NqmzaVdmcSC9Lu1qvNlqaOq9TA41NrbS597GvW58up+/Telk59DJzT3NRe5bRE6PhK7pG6OupgrjdqhrkTY2nKd82tY0dalud+dPoZeywqfJqazmxjrke6u+mZlrb7a5lnW5pDrWdLc2dX3P00Ui9CqE2/XVqfZ129R6tqi66l9vY2rGNTlimaz5Vr9rU9j5WZ9W8zW2u7aPPe+ZP1EXUdqk6fJhDm7eQ621Qe/5xjpoqapcvZn15M1W2M6yRvmFtHXXu1DKqp0Htjy36ftV+cvnrZd/i+tynK3unqsetzV+xzMYmWtXOabO0nFLXO5bZsT2F+LGRkP09YlUBO3fdJ7yRBU2dxr/1DQqk56gRxHqbTw2mZ+IRhKd5FGMm+BER6d7cZl8Mid3o7uOJ/9HU6mzCWrOZt+67gnt//W9eXZ1FmeU0p7SMAeq/waT19iL0pBPOZ6SHX29ffEweX9kf3cvLC7NavxNE6+E8mR7qn8fCsdHL1f/cVzUcvuqMrdnso5Z3UomlJBCmlndS9P6vM5i86Db9UgYnxBN7ckY+sp3sjEy2lbv/PoGG3WZhx5oVmLon0aNf72/12TSbOliWbmHx/7ufuy6fyvhRQ0kbOoJhE2dx3aMfszy9koavONOpWWppylzMvx+6hqumjmaUet2I8Rcx6+6/MG9LKUVZX/CfBQv58xt73a9wc7bSVLKbzS89wJ2XTWb8yGEMHTWZqVffz0OvbSJTBYwdbz/LwgWf8cXpykBTgaGlhMwVb/PMI3dw/ewJTByVRlqaqqdpIxg7+QpuevglXl6Tg34J6dcd6p2tpZQeWMI7f7yTWy+e5FqXtDR9WV//uPj3/2H+nnr3Uo5yqLLcz77Fz/DwjTOYPm4Yw4ekMWLsTGbf9if+saaYqjZ7p+sMvgOOFhyNh8nMsanw456mM6qG56Ch9IgJJfZYN5JOVMPLUpVNxmd/5ze3z2bm+JGMUJ97yLCRjJ56Cdf/8jne2ZBLwVdVjk4c7RXkbV/Mx0/+ijuvnMEFYzvKRd9WI8ZcyMwbH+Svi9Q6VllOWzb5a1/itXtP3QZpYy9m3B3vsaNK1WFHE6W7FrHw/27n4rGDGTZyPFc9Np9P99WdePGgPt/+JSx++j5unDqGkUOHMHzsDK564Fme/SL3jPWlSzmyOKy++48UDebuGxIICOh8TUkdttZ1LF1VREm56/fNr2a3wNaneOimmaeWkXpccPfjPPrul+QufIR7rpnOpNHDGZo2lGGjL+TC637Hv9ceIa/BekrZV65+ir/ffcFplzntqlv585oKNr/2W36t3nfC2BFq+lBVPyYy5bpHeX55OjlnUTeE+F9j/JPi/rfoQvrFi/V757NkexF5VUe/FPWQG87Aiy5iWP8UEk/Iku0U7/ycjUsXsOhgS6cvOBPBcX0Ye81dzOhpxv9c+2h46BdEehMUE0FMt2TC9Svm1SKcTg/KNi1kX0Ujleo72UWz097SQENNGQVZB9h/IEMFHC+CwoLxN5vw0pOxh0H950NwRDixiTEE+pjPfoxlfV2OPdzTTuJRk0FBxi7eXpPrngJh/ScwfNpsrh0e6QrZrpd2Ws5XLqtkG+u37WX9wQr3FIgdew0zp41lfDfV+HBPO70SMtZtZef6gxxfE5X3+0+i/wgVvroopVdnrKOwMJ+y1FuZ1icEQ9FW8ovyya3rdIhztuER2Z2ghP5M6+7vnujmaMTasJv5z+7HPGYGw0cnEd50hD2ffsK2GjjeTvLHy9yHGfdMpmewn+sGNCezVu4n88uP+ec/3uKTNYdo7TaVMTMuYfaoZBJb9rBpRzoHM6qxmAMJTYolrNPPAc6qA2RvXsjjT7/L0r0eJE+ZxYzLLmL6mP70CbdSsvFTln3+OUsynbSG9OTaYwXYRMGWxayY9xIvLNlLWawKcBfP5JILRzCkWyDmsm2sWvgpS77YS1VwD+IHD2FApxFzrDWHydn2KS/9/WU+XF6Io6cKDJOnMW1Uf4bEt5K59SCFZWWUlOVTWFRGXns8/bqF4OftecoZBsuRVSyf/w4vvb6AzzfuZX8+JEy5nIsum8X0AZH4q8bHzpwqKmvqaWhQ+0mnh7H7NBU6+zHMtVPrsayNwvXvs+C9ebz2yU52lIQy+rrrmHXBYJI8qqlN38KX+9LJaowgNiaEiGDzNxzxpYnCXZvYt3k7u2vdk3T+qcT1HMzllwxAv8ShY9lWmsoy2PPhc7y+MpsiFfBdZ0uNfnhFDOTSu+5iztjuJAd7n7gu9iqyNi5iyZsv8fzCDXyZ7UXqxNmqXC5m5qge9PEuZMvG3RzYvYuMcgt1xnB6JAW69q/ju6Z+xriNuj3/4Z3X5/HWkoMcaolg2OxLmDp+NMPibLSU53MgPY/yqjKKczIpd0YQGBpJYpj3CdvKaDJh9vbCVK7qZHopFdV1HduhzYjFfxBXXtELy9YPWPzee7z9xQ725ZSobVZHTXkAkSmJpA5NJFxTO0ZbDuvff4335n3Ax2v2ciDfQtT027n80guZ1M2JqX4fn+1WoXbVdvLb2o9dLK037nvNuIfxPYOJPd2O9A21Zy1nY3YbR/x7qcBvZt+KLGpbrO7rUPSz806anT0YNiKJpPig493/TqZ/IXr54R3ogaOykJL9GeTUHK+r7fqNbqqLOLx2FWv3HVH7RxU1dXXU1dVSW1Wqyj6dIls4ASERJ5S9fhGor58HZns1e9cfoFQtq869zNbWFrT2JnasXMrm/TnklVRSq5ZZX6+WqY4nJbm5VLSbcYYm0bPzF4cQ/+MkZJ8n5x6yyzmwaikrF65lV517kksg4QkDmHzD9YyJ9sDnrBPtUSqIGowExMUSpAds1zT9EOqt/p1NxuEySitaOJqz9S9za1Ml5fnZZGZmk1NcSU1pEaW1FqyePvgE+Kug701odAT+5xKwz5KleA8ZezbxwabijgmmeAZOuZhZc6YyNtb7K89an05L1mrWbN7Flxkqbepl753KxLnXM2viAHqHnOmL/jsO2Sm3MlkdtKOcmeQdyWd/dn2nPthWtX3C8fZLYNKkbviqQtBHf9HZm0up3TeflzYnMeqicYzsF4BWnnPOIdtZfVAdIOerwPEh7y7eSbbPMC666XZuuvoiLhgaT7JfMZsWrmbXgTxKLGYMwbH07xHmavQYaKBo22esfPct/vnJPooiLuLmu2/khjlTGDOgO92ifHHUZrN/y3YONoXgq4LwLe4CtJVsZZUKtm++u4x1BX6k3fYod1x9IReN7UfvpHBCnA2UHlinDtxNeKQOY9DYYcdDtk1tow2L+fSNebz60Rp25jtImH4tF106m9kq3PdLDqJq50pyymtVHa+gorSYIxU2EgaNIC7ElwB3g1Xv0qHVH2T9R2/y9ruL+HR9Ovn1VhzdZ6vPcTu3XDGNcX0jiTXks31rMfVtNuwe/gTG9GLknGu4aOJoxk+cwqi+CSSoeuW0Wyjf/iHz573FO59uZEeZF5GT7uWBn17NrHGD6OmtGip52/jP8m1klrbhFZVEbJRqBB8dVu+cnCFkz+5PsApVlnrVcE7fxtYVi/ngnU/ZWNJKq2bCLzyFlEETuGDO1dx89RQGxgUS4Hl0L9MbC1aKty3ks/feZN4CFcoy6zH0u45b7riB6y6dzLhBavtGaGSvXcT23fvYf6SK8lb1PRXfm1RVFt6u4UX1xTTSXrqVj154njc/Wsm6g820h/Vn9n33cNmYwQzuZqa9Ip8C1bDPr2ukpkg1Amo88Y2MJ7FHAhGdfpAyB0cRHhpKQvNOPtpaRqN+21udVwhekYOZ0beF6spqqmpqaW6sITu/DrsKqJbaYJKGqnoxqQdxtlqyPn+Nt15/j4Vr93Kw1gu6zeAnv7if6y4aydAEFeKbCti+di0HDhZSbnUc2x+7PmTr5dxC7hefcagtCO9RU5gzIISidcvJrW6h/uivmppGa72dpGFDSUmOI1o/W3I6HqrMA+JISgnCoyyXon37yeg8nJJVfd+3qgaP7wDGTB7H6KHJRJpUHamqoKapjsr8LAqr7HiGxBKdmEisCtY6L7XPxyb4EmyoZdf8ba6Lx492aXHabFhUeTeGD2TIyFGMH5xEahhU5ZfT0lpHecERiqvttBpD6TWoG8HqwHGON98V4gfpaCNV/Le1F1BeWkFOvvvvY8wYPQNOM+7xt2HA0yuQ/pfdysVTxjEsKVQdWN1PHaXZaK8r4siG93jl73/gb3//Ny++u5gvNqsv7Iq2U/s2dgkbNdVVFBfqlzjqPAhIHs+wYcOZqMLj2dPXrJ3SkhK1vI7koY/5HdL7EiaN6EXfky+G/F7QjzhG4gaNpX/ffvQ4aWDe1nwVPrZtYGOlXQXnoyXfTmt1KZnLt9I0egxJidHEnHOrp+MAX7HrUxZ98BGvfXqAKg8vgkdfzZThvekfrRpWIdEkTL6I0Sosh9pUgF/7OR+/t4x99U6s+rqountw53ZWLNtLvQr1Tn8VWGwquLY7MZhDCe8+lkvv+xV3Xq1CWfcw3Mdsl4b9K9m+fQdrC52qBHzwNbZjc9ixeqiGQHR/Bl98Fz9/6AZmjUgmzv+kHaAtg70b17Fo/g4KrE7s9lJys4soKmnE7h2COX4SY/v7EOEO5Y6mcmp2qFC1vZLiY7fY1NAcbVTt+ZAP569k9a4SmpxqD/E0ETn+Ekb1SaJbkA/+KggPuvQShqhwHqSvhocZv8i+pF3za37/xJP87oZxjElVG00FbFtNBmvfeJq3lmxle6FGQExPJt84h8HRAQSZw0nt25+R4wYSqMJv6/6Pmb9wHav3ltHUlTuUtY7GskNsW7eO9WtXsWzJfD547Xleefkt3t/TTJshlOjugxh54ZXMve0+Hv7lzUztHkRYp+Dm6oNde5gNqhG08PONbC2zYTB5003VhSE9E4j3M+EZEE344DlcOjKC+BCN+tzNbF/8Ns++u5MjDe2oKtChrZr2rCW8rrbVvoIGLM1Vav1y2JZTj8WmtnxKGj26pzLw2HA+DtVAWsaOHTvZekoXISPe3j7Exkar78ZO59yd7dhbCti9dheNCRcy8/YHeOSOWYxODsTX0xO/6AiCQ4MItLWoQL+bT157i+W7cils0TAFRxM14TouGRzlusbDP34IvYZcwLXdLLSYNPe1K+eJfla9JYfth+14mCIYP6wbpvCRTB0XQ2xEp747mqqzNVvYuiubQ/ktJ3Z7OQ1PP/V5Q4IIP+nHrzaLEY/A7ky+51FVd5/iyf/3B3554wVM66FCuWsOvewXs3LZSj7ZXeVqXHRUTXXc0K9ViYxw3SW2868dNs2LekMi02//Fb/925M89cSj/PYnc5iU7IPZ1Whro3SPqovzP+Cj9HqaVaNFiB8DCdnfF9Xlrp/Xir+r7x4PE/hPYO6D93DrTVMZGuvrGnO7U/7ppJ3yfYt5/++/5hc//S1/+zSTvDoL7Y4uDtqOagryctm3t1D94aFWMZC0yy5j0oQRDPjK30ZPQ1NHdkc56QezKcivVovyxMs/knF33MrEvqkknq7P6fdF7HD6DejL5N4n3fq9PZuq4k0sXttAs6Wj3DVHFVUVR1i+0srksf1IiA4+9x1aP8Dbs1j5yQq+3JxBo5rkqQLm4BFDiAkLcV1sqgdKg1cKyame+KsDtrN6PyUHlrNgRzst7WpNao+oBk05GVVqXns7bH6DtxesZNHOIupaVGjWDGjGeCZcdQUzpo2it96R3q0gN5OysiJ1WLdgtWSy8OkXWLphL1k1HRcG4umN37BbmXvxCCb3CzpxWMLmZiyWdpr18YxdJdLAgY3bOXAwB7XV1TQjBj0JHCtIDacKYoUllbS0Hv3tRr8wsdY1dvue3EKq3aHQYDTSW4W+oAB3QjH5YAjrQY8YE4F6XXRWU5a/i7ee/4L8hla1h3RwtpbRcuBtXvmsiBwVSiGeoKABjB6u9i/vjpU3hITiHxtHd/Vvk3r/4vXr2bvnIIe+aviYb6JuP9kr/8m9c+Zw5VXXc9tP/8D/m7eKtVkN2A2e+ESNYMoNP+O+B27nrkuGkuyjuc4s6tfMdVCND9VgaNz8Oos2ZLKtSC8YA0aDD92S4/D3O/oznCdGYyDdeyQREKi3DJ20lhVy8O3XWakaOxVHL9Kzq0ZXXQN1antY9e3hrKWiIoP/fLZXbQu99NQ29NCHEnXN7VZGQ4M+n/vPM7FWYy1fwcLawSSGxTKw/2h6T72Fx+8dSa/4eAZdPp3RowbQu7Gcxq3v8+GuOgoaOtbPT23n/oMHEeTt7f51zkBAVCyDr7yGND9/95ji54PeyLOpXXAFuwwpaFF9GRFiVPtgIMPHT3D9wnHi11Uzu7bsZH96Ls1HGzDnyCNmJN0m3MTvbh5Eaqg3PoH9GD1xMldfPkQ1c4/uLs1k7NnD6s+/pFIV0bF2/VfwjEgi5oqHefCifgzUjyXhatlDLuX+a5II9nfv785yykp2M+8/e2hoObXPtxD/iyRk/8gZI0cw/Y5f8pcnf8fdo2OINBtPOENxAkcz9XlbWP6Pn/DblzezPb/pWLjoEmW7yDiczaYj6ove00zw+Ae45sLBjOt2jpd7Ou2Qv4Zt6RVkqAO0KTSZmOkPc++F8fQ4NsTK91UQvdKGMGH6WFeXjuNB20F9TSVffr6aktY2V7k7y7KoOJLN8tCLGdXNl+iTzlidFYcqq/T1bMtVZaXf7UdtfQ+PQMJD/fD2PlpW3ir8RBMV46lfM6u0U99QycZth7C0d7pC10U/GteTveQZnvrd77n/8UXsqnd0nNEMH8esmTN4cG5/15yncKqwUbyMt/78Kx7+82u8srHE/RO9Dz0vu40ZM6cxLdI1oUP4cIaNGcOcyYn4m1SjzCeatEmjGNy/G5F6eFFlpo9Mdzw4nk67mqeYojwLrS3HD/t6ufv6+KgAebQMVLngi4+fiu5HJzW34tD7u1ptrgvkXJNqq9m3ain5baqRoE/w9sMrIIRwVW7Hfh4PCMQ7PFzFb/fZwNaDri5DB1W97zKhQ+g961HeXbuWVSuWsPj9V3jqV9dy1ZhYzGr/aCv7kmUv/ZFf3XoTV9/6Sx5+dxd5DXqDyP161Lawqfq2bB0FZZXu/Vw1tgyJREepkH5Co1eViWqUqC3Q8adWj73tS9Z+WU55lbvlEBiJ96gruX1cN/qG+ai6FU18YhrXXzwQf189RjrUdlJb7NskL7uGZ5tG/6H9CQ3TG5wGzBG96Xvjc7y7eDGv/+ZSZvULpq2xnvRtG6lttxzr7uClGpbhoSGqEdHpkGgy4REeQYT6bOfSxj83+k2nLBxYs5mgxCjieyV1vJdaH5+R0xiREEOPk77+7OnbyTqUwfaTr7M9S6HxsaT07eW6B8DR73pTdAxh3XvSR/93xyQoL6EpM4O9rWovOUPIDgwIcF286ud9/IZaPv4BdBswmBAvr2PdCu0NTdTv2EN2+/E+7kL8L5OQ/X3h5Y1JfbGevy/z0/PwCiQ0bgCDp1zD7b9/iqf/735uvmAgPdSB8NSw7cRuqaf6yF7Wv/tvFqxP50D5ySHrm9C/wVvJ2LiKnbv3kU8Efr2v5L6fzGFqWhzhPudSTfVhxurYtXgBe3KKqPbvS8qIK/jlzy5maGIA/l7f9yrviX9Kf7qNmsgUFSh9Om0Ehwq2NVs/ZeORVqpaHVTn51BWoEprykWkBvu6boV/rpwqZJen76KwqtbV1UNVRBWyIwgLM+F97CJb/Uyxt15FVQjR/9Zob2qkZE86ZVYrlqAEIqPCSQl1zayoEFdbTP7eVaz4z3M89otHeXr+Lg5UG/ALCSMh8nhrICYhhYiIaHddU8FYbbuK3L1s+fQ13njyMX7+1w9Yk91Ie0CUWqfQTjdQUbwiSB1zBdf+9mleev1N3nzlWf565xTGxrZQvnMJb//lt7z2ZS0FXxtG9F8F2rFY9CEG3ZN06qO7guOxq2rV/3roZ3I7LrZ10V+gD0+oD0nnmtBIc0MR+7YV0tzuHjXEz0818oIJVx/waD96PPU7wnq5RgpyTXJWU1pWQuYR/dqBLmIKwC8siT5paQwaOoJREy9k9vX3cu9Dv+Kvd4wgwbudxtJ8jhzaxY71i1n00l/5zeOfsC6jnEZ9xTXVgGhXAWt7NTXVNtce2nG4UPVA1YtTuq7pH+To59P3QXsdO/ZkUVXX1FEOnv54RY9kzv1/5fHnXuHVV//FP/94N7cM8sVZtJ4Fzz/PvE82svVbFYFqDGpxpHYLco3MoYd+o5faL6JVeBwwgN6J4YT5tdHSWMyBXaW0qW10NDt6qI2jf/8e37iK/iFVQNRj43n71nA0YWvZy6pdccTFxNArydf1Xh4enhhDRjB6ZHf6dDup9dyaQfqhg6zfdban+E9k8vbG7Od7wpCohsBAfCIiiFP/PnYawlpKS20m6Xmu3l9fSx8WNdDfXxXZ8V9Djep9fOPiVd33dNV1F0sz1iMHya61njCClhD/q87bd4c4R37B+KsvqbATfxtU2tQBq5GGRnUs/jZneb6OwUcdkLvRf+oVXH3T7dz5k/u4955buPmKyYxMCcTP89g5KhfNaaE2cw3LVm1nR2blt+6vqP9c2l6wkVWrt7M9x4E5ZRSX3Hobc6f0IjnM9/iX/llwttXSlL2K+Ut2k1EbQNLIGVx2/VVcOTqeEG914HLP933mEZBIZOpQLh0Tg593pzW2NWIt28rnm49QXJ5Lbk4dRwoDmTKjF2G+x88WnQun00FxXhYNzY3uoOjAYasj/fPXefflZ3jmmY7Hs8+/yCe7Gylzn7LVWttoyzpCiVUFat9keg8dztRp/dFHiTy6xk5LFdU5W1nx4Vu89coLvPTeMtbuVw2fTt0iwvtPYfjw4YxO7NS81FQALD7IgTXzmff6K7z44hvM35hBVlX7ST8xmwiI60vfiXO49oYbufGKcXSzHWL3Z+/yxgfL2Vim1kT/72u/5Uwq0AQTohoVJ4z2qNKXU9/hjp0G1/9XHyNcNQSOTjKpIBcRTJDh6Ljr9bS2lJFz2IrtaICwlVGVs5b/qDJ8zl2Wzzwzj3nzN5OpP+2ayU51rWoMlJx8i6QuoIdGowr0AWHE9hzK8GlXcP2tNzJ7cDjReh93zYatqYyS3cv59P03Wbghg4yKdrVKbTjqcslRjeimb/BzlaYaIFU5edQ0uS+q9jCp1Yig25iLmHXNDVx/5SQm9NAo/eJ1Xn9tAasP63eaNHLsx5NvRP/FJZ6oSCPmrzxbcZpt9F9kb6mhIX01BwNGE6tCdmKA+5tWv3jREEWfMUPo1zfxpDvPNlB0KJ1d6/a5uhd+1b3DzolqlHn5hxGjGsrH95cG2tsrKFNZ3t65AXq21A5liIomVjVWj10F42hHayqhUrXoLRKyxY/A1x5+xHfIN6bjbGD0yTGwCYsKK4WFrdhOudnFN+Sw4GgpIr+8lea248v0MHjiGdaPUXPu4meP/J4/P/oA91wzk+lj+9M9MuCkM6XNZG3bw+GMPFf/12/MacPRVsbhZe+wbGcNVYGjGH/x1fzszkl0C/ZxDTd41hzq85RnsOfTt/j0oPosKRdw6TWXccNlQ4lS635s0ITvvUCCI7oz7tJRxPp7d+qTqf+EX86W5V9ySIWiXcUaeY6RTB9gxuecb7/ZQXNq1NZWYLUeTVJWFbIL2L/qC5Z/uohFizoen32+nMPaQFIGTWTiRPUYM5xx3UPxNhlU/Ayj+4ipzLx5LrOGphLj74np2OrYVdiuIHvNm7z23Au8/MFqNhyqQO+Zod+bwqvbBMZPv5TbLh5G3xgfvDsNOaBZG2nO38CCfz/Bv1/9D59uzaGg4eRTahpOazMtpQfYuW4xH770JM+8uICPDxhJvepBrhgaRMLXdqj1wugZS5/hKUSF+R0ra73rQkNTE1a7OwloDtcY4k1NTvdZPRWsg0KIHjmQJLMXHT2U1T5qbaBGhZJjZ8WbSqk5/CWfqTL81F2WixZtZsvBFgJVOY7Wy1I9hvZJIiGwK9LS1zHg6R9N2OAruGlmL7pHd5w1ddHsOErWsnLDPnZm1akAakOrraZaNcK+QcbWCxDVclABvV2VylH657PTWpFL5o6VLP3gVf71l7/w72X1eA+byaTJwxgW0jHnN6OfvdbPYhv0nh5f4TTb6L9Gv3C5gqyV+/AeP5iomHC1558orP8Y+vfrx4CgE/fv018I/W2ouu8VTHiMqtnHvudtah+10K5aSccalufCSzVgwyIIP6G7jf7LURsWq/Y9KH8hzj8J2d8bSSR3TyVt+MkXrzlpbW0iM6cAqz5ig3vqt9JeSXveR7z2WT7ZpZbTLtPoF0Nc2qXc/Nd5vP/2Y/x09hD6hJlPDKpHCqkuq6LA/ee5UwHJVkNz0Upef2U1hxtTmXjT7fzikbmMCgDzsYLQ7ySoDiYtFuxO9W/31BOpL+2WHPL2r+SFF7dQGTCBa391L7deNYYBJ4zU4cRutdLe1u7qj9kl5XkeeIVGEDPtUiaFBxy/U6fOZqV57TJWfryITeoDtE8YS5p63vubZWyXE3+nUFHF7M/Yh97jpflrWbdu3ekfaxbwxSf3MzM6CL2XiCFkAL0m3MqTz97PrLQ44gJNJ16kqFgL17Hknbf4x/Ofk23RsLmO3L4kjrmKSx/4E/93dT9SI/3xOeECXDWPvZoDHz/LvHkf886uBtcZ947tpo+9bKFZBewDH/2ee297iMff3UJuxFhGXf9Tfj05ijAfva/w1zHiqcLFyGuuY3ivHsR4GV37n36XyayMDGrqGlWd04O8auxWHyQz30ZTqwcGz2Cik/sx+6aZdPf3cYfsDp17HEAqyWm387fV6/hi7WnK0f1Y/eqjPDm3r/s155P6vKZAhk2aQGJU5End0+wcOXCY3LwiXN3zDXqv5pNrxzkwdlzM2PF6/RcAB7a2cjKWPsM/fvtr7vn9PFZV+jPk7ke4btowhkZ+d53lTtxG/x0dFy4XsWy5H0N6qYaaV9uxOygee2ipxCYlMbTfSSdf9AuhSzaxeF0jLe4Lob8dtZ08jB1nsU8oG/XHNy0rvZA9VX3Tl+2e1MH99zddrhA/ICcdBsV/j5GYnn0ZMHqcq19c56/UtqZmcvfsp0q/rbR72rflsNvJ/HIbRVXVtLinnZbBE1P0JOb+/H5uu2YSw8/1Lo9fq526wkOs+NeTLG9IZuQttzH3knEMCjjpgEIjFXn7+M9f32Z/ffNXXDDTSu6mFaz4YCFf+ozhut/+jEtG9SLpeFJ3U4FtzVo+e30p2eqv7+0vlsZgvIInc9llqSScMOSgStb2baxYqbZbcyjjRuuXz30L6kDo4xuA0fN4kte7SRSVlKnG3bl1BPLwCSew/9U88sLLPHrbVMan+J/ShcVRvZfSA1+wYKeDlqOnSA1mAhOHMeHBl3j1ybu4YmgCUad0G2giZ+9eNi3fgj7AY8dJMCf1B5ay9o0/c9fTG8iotmDxSWPYsJFcMjXx7LvPGLzwjJ/D7ffOZe5F/Yj1VgHI2k7l0rdYtiuTfdXNNBRmsuGlt9jU1ESN2jbx4y5nxh0/5Wej/Ak8Vsf0s+JmVHEe739NHRZLqSpPtdm+L2fu9K4IISEEeXlx0kiR6sumTbXjrFi8vTFExxLX+af+c6H3Z46NJtTH7B6T3YHdUsnOF37BE698wuK9FbT7ROPV63qumxxNcuRXnnruYqfbRv8drguX96l94dAK/n7THK6eNolJk05+zOC2x97hnX0n/4LjoL6uli83bqXO0u7eH7qatwrdfugDyXRdWenXOfjj6+Oh528h/uednEDEf40H3tEDSR02k+vGBOLf6dSks6mO5l3r2FXZRu05p2yHCk3NlJfXq+Nnp0hpt9K6dxFbDhSSUfXV3VA81AHZ4B1CZI/xTJ48llnjOoW6iFD8gwIIc/95bhw0Zm1iz7IFvLIzirF3PMD1c8YzIiUE/86ny+3NVB1Yz9YVi5hX5o2n3aNT9wmdfg7HQc3OT1i+chfr6vtx5cO/4YYL+9M70g/z0e4H+rB+tgaKNi1i2bbdLKs2udb7e/s9r/dh9Q5n0EVT6afCygllrDXRGNqHhJQejI3r3JH43OkXKiUld8fPryMK6ZwOB0d27KKopubYqBlnw8OowqpfNEl9xzDztl/zy0ce4Jc3jEUfHOZY4LU10lhbyr7sKqw2dzTwMOJpDiQ4cSBDL7iV+//wR35512wu6tNx18AODiwq+FcePoI+wKMrclRuZ/PKpbzx4RYOFTfQoo/dnjyQ7r17MiLafNYnyvQ67mGOIHnU5dz44G/4/W9u49IeJkx1O/j85T/z6E/v5r6Hn+KFDVZ8h1/JLQ8/xh9/dRd3zxxEUqAnnscSSIhqsMSS2lN93mOVtIaGxly2bFOh0nJyUPov0s9SqwbWKQcA/YI4sze+KlwZ/frQu4cXgd9g1BoPtfzY5ESC/f1c/dUdjWU0bHmTFz7eyLqDZdS02FQjMpTE0dMYFOVP8Dfs7nTuTreNUA0hK0Wlpa6TD9+NdkozMykoqKf3z/7BL3/+C3710IM8+ODJj4d4+E+PqOdvYebJF0LXV1G7/gu2lLVS863PvjSr+llDebFa7rEiiMDHJ4nUZFVWZ91i7aS9Ha2ijDK1wGPNdZMvhvDuJIWZ8Dvxi1yI/0kSsr9PfGOI6DWKK26cydCYANTxu4O1AWvxlyxZm0l+ZXNHwDgrdtobiinavJDPdpVT2tApZOvjI1fvYf3na1i/M5fSM31JmyKIT0ykb68o9wQDYf16kajfecw95Vw4q9PZvWYxH3y0jM2FrdSXZ7Ljiw949+V/HbvYzvX417949vk3+WDZdooiUgnsfKW6ot+tz1m2lVWLFvDp6t3sKaynsXgfaz96lddf6LQstZxn/vUs/37xXVYcLqcmJM4VXL/PO4DBaCKk/3SG94kjNbRzCPEmafgI+vfrSfK3vK+OQR09IwcNJyUsjKNv4bpb6b6lqgGWT3bVaWqbvZb6ylw2bs6j0WLD2ZzNoYMHWbejFKsKbpoxgNj+E5ky5yZuveMW7rxZBalwHzruJaOPVa0Ouu1WV7/n8j0bOHhwPxlNHiqYmTBH9GP4hZdzze13cfuNV3HlsHB1MHZvJZvev9vqOmDrzcJ61UjbsWM7G7IbjnchCosgKCT4xC42Z6Q31Jw47e1YWttxekfSbcYd3HHPDcwe3YdesZFEJ/dnyOw7uP3Ou7jrtmu5YuoQ12g1+pod3zJqnw2KZ+joVHyPXcHXRmNlPjs+WUF6XRtNpznlaC0/SG5uLvtKv5vfVTSnk+bSYmrbWk/6FctAtEpUsTGR+HuYMXqlMHJcNyJVY7XjM+qlbMVq1beha4KLvh3122rbjwVU1Rj2SmDkkBQiQvTX2mmtLebQig9Yn1FNtXuoRE+zmdCkBII8j144+l0IICAwjoHDE/DpdFFxW0sz2QcPUW+1Hft+1Ww2HLU11DqP3+2xqzjrMzmQWc2Bhh7MUfvITbfcwi1f+biVm66Zw9VjYvDvfCF0ez22gg0s21FMca3l+D7wTdhbsLXVU1WnQvbRBaly8o/vzUD1Bf+NLkhV5eesrqZKVZZjP1r5+ePbfxA9A7055QdLIf4HScg+bzQc9o6xX8+eJ34RKQy44m6uvXAUaQkhdNxp2YLNms3q/3zChh05FNWfxUD+znaaKnPI2rqCxe98yLqCFqpPuIJJX68mDq36hM8//ZwV+9VB1+rE8VXrq1loa1WBoUk/3Bjw8E9m2PihpPVJ5JyuVdLPKKuQVrRtEZ99tpL5m47QVrWTRf/6E4/95uc89NBDJz5++Sh/fflTlh9qIiU1CW99RAf3ovSLJp1tZWSvfIv3P9vG5gNZlB1ewbw//5KHf3HSch5Sy/7VH/jH+5vIrTcQFxfjOovdObqeQB1p9G4T39Uv/B09zU8qe4M6sgUNYeSY3gzoGexuXKhd1qzCz8iB9O8Zc9JZ/XPnoTda+o5nVK9EeoW6l6bfWa58LauXrWH5xgxyKppod+p9alV5WOqpzDvE/p3b2bi/wnXnNmfLYXatXc4H767jQKV+kyJ9jGoD3qE96THmCu793c+Y3TeQSFeDwBezTxgpCQF4ehoo3byAlV8sYfHeUhpVxtQvhsQziPghM5l500/49TUDifP3cm0rz9BgAhKi0Zt5+t9lOYcpLinihBH6WppobWlV4b8Ne3MRpVUOXPc6cdP3x7Y29ZxD7ZvHpqnSby4gfd3HvP3sC7z88V4aJv6O3/ztKf7pbqQ9/dTfefyPP+f+qycyPDWcIPeNZU7kiX9oLIOmXkT38ONDKlpry8j/Yh7z1+5kd0EN9W2qsaDeU1OhvqU6l4xdm9l1MJecmvNf2zSnFVtrOQc37uZIZd3xrlceBkwhPRmr6tWAbtGqXnniaQpl0AUz6Jca6x71SK23s47qmjbaj92xT30O9d1QWV7tujGQzqi2b2jP6Vw0Mp7YML3WWmlurGTfrnRaVYg9Wu76rbhbVYhtUd+TloZK6upUyDuph5JVzd+mX3nXZdR3bEgU/SdOISnAB1/3F4C1sZaS7avYdkQ1AlpVuLY20Viax8HV28lqO2lMZ/UBWlUot+oh8qRd9oz071dnK5V7l7O30EpB4GSmdTfic/xK4dPouBB6/KVjiQ8yd7r+Qj8u5LBx8Rr2Z1dQd6bBrN06rklRr1X/PvoKTTWS2uvr0O8n1XFs8SQgtTvJwwfT10ynC5lPz6G+L1vUMvTvzKPLdNqsWKqrqFf7WkcjxYxfWCz9pg4jyefoxcJC/G+TkH0euA7aDrsKpE2uq/SP079+VFCx210H+dN+QRsDMYeN547/9xi3XTqaYbEB+OgXY+kXeG3+N6++v4xFW1SwaLVgVQen40OKdYQg/X1t7a201Bew/4t3eO/513hmXypjh8cRF3GaC4ua97J+/js88/d32VBYT21L+/HlupapHg4b1pZ89u7Zw9qNWeogGkzIoOu5YtogRp18/++voy9Lhf/2yo38Z95iVqzvuMPgmZnw8wukT88kTEeHDdA/q7WahvwVPPfPRezKLDvLoQS9iIwIJyUxxv33SfTCVMt2NKuwpsLYyf2/9W1nUwcPu/5Z9Hm/Cdd7aGpbqeWo5VlUYLHoZwL1YK8v1z1bRxPAl34TpzIkTYVNfW81qMCZNIuRAxPoHXvy7quXr0Md8NQ6npLZ9eXa1Lqr93AFZvdkDxXkfUdywYzhjBwW3Wl0DzsZC57h1Wf/xVOLdpNXVU9NfRXlWVtZPn8jy1ZVMWzuKIL9zHgGBGIq3UfFF2/xjyU5FFa3YLGp9dDfRAVm75BRDBtkJizYA4O5BzEJY5k1KRRfHyOBQe1k7dzER6/NZ0dZMw0WmyoHff0MmINCSR49khSzOjgbTEQM7Eu/KaMZqNZOj26WtlYVwk4KYJl7yDpwgA1Hsqk4+DFLtrZS2nFnfRc9BBTn51BRXUtLu73jTnZqO9gyP+Dl597nvWUHKW6z0d7SQOPJF6EdezTQ0NhEU3PHXSkdncrTGBRN8IQbuW5wBN2COy6iRGukvWEdL/zi97z47io2ZZVRXVdLbXke6Wtf4o2tRhpNyVx4brc1dT00ta3tan89ZeAhVQ+car+12fV10x9qu9utWJtLqcz9nDc/UNu00L33eRgx+YURP+l+rrpgICNTOxpbHiYVhMZex8Wj+zE63kcFLauqW2UcSi+kurbVdUGoPpynra2QnNx6mpvsalE+BCX1YcRtP2FGciBRrpZhu3pdm2r/GPRd65i2uhqyVeNsb0kZR/TucHsPnXIL9ZqaKgry82jUg6/+fq6pHZ/JoQ9P4S73Dvrzneq4e+rJTCpkR027htndw0jwdV9k21KKZc+rPDVvK1vTi6go3MXuNfN5/K8fk17f0mmEFD1Q2snPPKAaeBU0tKp92D396+nrrNbL0Y6lMYMVHy3hcEUz4fqdVdW6GvVt5J7zdLxCo4iZdiXTov2I6tSy1mwWyj59lk/W72FriTomuBq4JxXLSVpUuVcWFVKp1t2mh2JNheCyUqpzcjionnedRjFFMGj4MGbOHOW6sPlMJ531fTE/N5u6Fn0dOpZpaaynaN9+11j67aqUDeYkEruN4fYrBxLg1/n3SCH+dxn/pLj/LbqIPtRXa/lulsx7hw0ZtVQfS3/6V5+KbeH9SU5Ipkd84Al97I5TX/umEBL6pNE3JZRoj3py8sppVV+gzaXZHMnK47D6QvWKjiDY1w9vT/0mGepg395IQ3EGu1a9xyvPvs5nBzzwGDyX3zx8LRN7RBKh3syoX/Fta8BatYf5/9lGUZNFBQUVKMoy2b5+KznN3nj6BhIU4IuPtwGDUwXNwr2sfvcF3v54JWsqQomY+DOe+MNcpg2KJ9zsefxOdmeiqS/g5iw+/cvveXfNQQ7W6GHV/dzXiiEqeSSz7ryYwcFg1svMWUd55pd8rKrvO7vLKW1VB7COmc8glQGTLmTSRUPpF+CedAK1QrZacld9xKKl61mdW3vsp06d1SMck08oacMTCTa5y/ObUKGjLncta5YsZeGqfPZU+ZM2MImwILPr9vad47OHny8tRZnUZu/iYLOZ3tf8musn96WvajSdWH3sWCsPkr11NfM+3Ea+yp/HA4BT5WkboYMm0ydKbUNftd2OvYkKtJHR+Kh6QFkWe8qOfmIbrTUF5O5cxecfv8e7b7/Du4sO0BAzmJFXX8EFyQH4qhXw8Cwja9NWtn++jk37vmR/qRHPkDDCQv3x1epozV/GOy8vZXu+gciJV3LR7bdw48BQFZxV0MpaxeYtm1n5pQoJO7No8o0lPDSIELODtrIM9i58izc2FVIXcQGzr76au64cQoJfx2/X3nUH2HeogO1Zdce3vV3Vi5xd7Nx6mD3tIxgbk0leZQMVR4f+04fiKz/A/lwVGAMiSe0Vg5/DQvmaV3l/3SHSVfBpb66icOcyvvj4Xd55+y3eeuvEx7sffconS9awYVcOlYYYYmIC8VUN4Y79QAVrzwDik32oys2jtLSaelc7W62htZbSw1tZv3Q+H777DvM++IQleT2ZMHsaF4ztTpSP5zme9bDRVriZ9V+o7bMhhxN6m6hNqF/QGjtuEj2DPDHZ66nKWM+mT97mb399kzXZVVTr3T7Qb7Heh95XPMLfHpzF+N6RBLtHWHF9D6lGXlRCKEZLPXVHcjnS6KShWiOmT3fi48MIaMkjb8UL/PPdXRyqcuDbZyZjL7+bP986lKRgk6u/uodqJDtVo8Wav5Klh1poPnrGVe0D9tpMdq7awGFHKj4mKzGOTPaXHd+T22sKKT2ivpsaEhk+MJJAH5MqYVU3avLJWvMBH2wpo8ly/Ky6h6dd1fGp9I8JIdL/q8pT1X3PUFITHRRmF1JcWue6Rbl+lr8pbydbli/gPx99zurDlXhMnUZyejaN7dZjXWv0hmxz/i62rcij1ieYyOEp6hvqTNT3kyrDhtzNfPjUY7y1bA+768NVAzSBUWkxqv7o+6N71I3TUUXmUI2Hwm0fqUZJU6cz/npZtlFRVo/DGEBQfBLxoR2//HjQROGuTezbvJ3dnRqafqG+eJsNVGbZiO4ZQ6BXNYdWL2LR+4vZUNTmqhMJM3/GtXMvZ+7wCNfdVI+rpjr/MOvfXkOW+utolTN7G4lRjcr8KjOh4SGEeqvv5IOreP2pD9mmvk/anf70mHY1F99+J7cOUfVG7cL/7QtPhfgueGjf+HScOMWRFSxavolPtuRga64gY9tmcqosp9zZyj8hjV69utEjJo5A/yFc++fLSQsPQOXHE6kv/ebKAnWQyWJfZh75R/aSvuMgGeXtNJqCiI1WQSawI2R7epsxmf3UgdWf8IAQAkMDCY/vTmJKT9L6Rrt+Fj32pdZaSHPGO9zxu0Jih/QkJdEHQ3M1pXlHKG1QYd11IwT9C19TD3Xg0vvQtmgYwxPVwTWN0cNHM35wPKHqgHf2Y0/baC47xIEFf+dPzy5lW4FqEJxtR0ffIQyYci1Pf/RLxnirPw3tlO9WB4T5b/B/r6zgcJ0T69klbAi8gOt/81N+9vNLGNn5xKF+S/eda3liwQFV7hbq8vZzKKuQ3MpW12HsKKN/LBGqXIcOTibUFM+4m25g0og+9DxtYD9Ve40KXhve4NkVRZSVqoCSmUVuURNNgT0YNawH0UGJDJkxiwkzJzP62NWOFsrWvs7SeW/y0CJ/bn/3de4em0Sf4I6waW9vJWPhH/hkRyVZxRVUFx1hx/YcVLGorXeUCu5Gf+KHjaNfQgjhsQPpnjaeu28d7eqb7qkaU7X56WTt3MjKlatYsXUnGXm11LXYcRq8MAVEk5Q2lokTJnHBBRMYnqbqTcDRCLONJa99ydqlZaTMiMNa00B1Qz2Njc1YWpppa62moMhAzJBx6nPNYOLIQQx0n44rWfA3FmXWsceQyhCvOmpqVZhTr2tuaaG1sYGm8mpqI9IYOeUiZk0bxrCeURx9W3vFDtZ9+gEffrCYTzblUo8PQbH96D9yNCPHjmbssGH0dazggzfeZ8GKfWq/acPhrfabtEu49KrLueKika7l+dlbaFz5G+780yI+21lyQqPqdDw8vfFS+1pAUDgx3QfQb+y13HHTeEb0inSNpKGfxdNai0nfuoH1q1aySYWc7XvzVYO2XTUqjZj8w4lI6s2QcRcwcfIFTB/fm+4qqPuc5b7UVJrBwU+f4IO9TmqrCshOzyIzu5yGE77J9RtMxdFrzEh6qHripXf3qi2lorSYjIImCI4ltftABqX1p+/APvToO4xRfSIJOl2jWTU6izP2cGDLJjZ9+SUr91RjikogKjwQPxU9m8qPkFMTQfeRIxk1cTKjhgxidN9wV1emo4uyNZVSuXcBL/7zFT7emEuuqpxeITEk9VXfJZMmMX7cCLp7ZlG+fT5Pv7iUPSVttHoEEt17NMOmXMzV11zKzMHRBKv1q9y1kC2fvc6rC7awPrOBNtfPNrqjdXw8/YfO4porpzJrcs/TXpitB2WtKZed61ex5vPlrN+8i81ZJa4b73gGJdBj+FTGXziSC8drLL/uH3ypErYtKo64+Fjiu8W77s4YEdSLgaMGMmBokqsL09dpylrDvg2LeO7TfWTt201Oparf3nFEJPZgZL8E/L2HcekDsxk3JPmkwH6EXYuWs/aTLey3NpG3YwXpJa3UndyDxiuUuO696aH2755TruOvl/cmIqCaTS8/wbwnn+PVHPd8SsToKxk9/XLu6W2jpCBbff8c4dButV45FVT5d2fUrEuZMXMW04Z0p2eUOja4X9chg8PrFvDnyY/ymfrraMMjvNsgpt73NBdHltNakUmBahhlZeawe4dqoIT2Y4z6Tps+6yLGDet3bN8X4sdAQnZXKljPsvXbWbZbH2TsbATg5TOQOb+aSb9Q/1NuRHCM66feNmqKD5K97zCH88soqm1SIaTVdSZB34AGkw9efkEEhsXQvXt/BgzsRkJUIP4qgJ/CWkd71W7mb/Sl/4hedIvXQ3YVZUcOc0At/0hpFVWNbR0HLw8PtdxgwqJ60H3AQHr3TaV3pPvWvx1LO0t2WipzyV7xLgsOqANz+9mmYsUnlfg+w5l702jXRZaeWKk6uJ59m9ex5NCJl26dUYAKANPGMmlizxMPjBX7ydm3mec+z3BPOBO9BCIZduUVjBncg9Sz7DVjrSuifOsHvL6xkobW0/3QHEbP8VNVqBzD0E6d3e2le9S238s7X3ox475LGBipGmXu09gOaxs5n/+Dz/fVUlDXMe2MAnuS2G8kN14ztNPPwQ6sTTVUZ2xj/S5VHoV11Kt1dBpVyPaLIL7fcNXA6k/PuNCT+iQXcGhfAxVl3gyfFEbd4Z3s2J1OZn4ltc12HCY/QuP7kaYCX1pPFVICjx9k6/etp9AjiLbIFPrZ89i7dRt7sosprW2h3emFOTCB7kNHuxogKeozn3iH/Xbqjuwhc+dWlm0voBEzgdE96T1YNcoG9KB3hDcGSyn7N6xh6+5MFWzacXgFEN3/Qi6c1I9ecUGu5WkOK86iNbz/3gIWfraOXekqEKv1PisGE6a4mTz0999z00XD6Nf5xjf2BspyD5CxZy970wspabFhdxpUyA4lLK47/YePY0TfKEJ8Ot+858yaK3LIXP4cn6Srf5+pRXASvQ++p08Q/qFRpCT3oW9/VXeTIwj1OvE3kVM49W4OFZQe3MGG3YcpKFWNKIvatgYjBu9AImL6MHD0MAb2jCM2yPukX1gUzYajvZqsVYtYtbuAfNUiMAVFktBzKCPHDFVhzg9/ZyWVeQdY+/laDqoGUatHAJHdhzFg2HCmDI1xjemtb/6K/cvUvr+Mr91Vw4YxfuoYpoxJ/dprRpxt5RQc3MP+3fvZmVuG2kQYA1QDZNAYBg/rxaDIIpb/awVH7N6YIqKIjo0mNjGG6KhIQgP1UaDU9j9D0elajmzm0I61vLdF7/V8Mn0B/Zh2+wUMH6AaLx0T3QrYv2w9m5ftVvH2LATE4DNwNr+a2Z1Q/6rThuzoqT9l1g0/4dkLmtm0ajP7jpRR2aT2c1Og2n9SGTr1AoZ1CyPSz3RSwNadPmRH9Z/IZf+3nIe771Pfo9vYl1FMeYMdu8mXwKhe6vtsAoNV3Yg58Y5mQvzPk5AthPhR0888O5pLyd2+hIXvf8qS9VmUB8USfcKdK4/SL2hWgbOukprKCvKr9V86/Jn827e5/6bZXNbruxsnQ4ivV/KVIfvi237Fq9cluqeci68O2XOeWKemQ4Rc0SjEMac2VIUQ4kdEP5PdnDWfN556gVc+yqA0fCr3vKQC94rVrD7hzoz6HTBX8MXi93jtT7dz18Qk99BzzRSXVlJdcy6jigshhPhfJyFbCPEjZsFmyeGLF+exYV8OTb1GMfCyG7m5XwChphMvQO1gwicwnp4XTGXS3JlMUVN88CQmKoKQkC69HaoQQogfOAnZQogfMTuas5Gqwkrqmyw0tdppbbNj8jViOGW0B/0vA0ZPb7wNBrz06ww8TGixFzCifwK9YzouRBVCCCF0ErKFED9iJgye4fQa3p+4iECMFYfJ2/Y57644QF5FA836WNqua3T1cY7t2NpqqczZwaalK/hs6UGKwwYxfu4NTBmSRKKcyBbfI442fezyZho6D/KttNRUq0ZlEdV2Nc85XZGl3z+gmba6Ompcfx1naW0jPzeHpnbbWQ7LKsSPg4yTLYT4EfPE4BFAdDQ0NKoQ3ViDpaGMA0Wt+Dibqakqp6S4iKKCAgry88k7cohDO75k7fq97CowEDXicu596HJGpYYRcvbjWQpx/jgdUHeE/bvXsfKLDWzdU0hZp2FkrVYjmmo5RsZ4YyEQf7MJH9OZz7e1V2WTvXs961Zv4ostuegDGR0N2nbNkyarieTgdvAOxsvsi59cAyyEjC4ihBA6e1sR2ZvXs/GLFXy2aSMZ+ZWU1Frc4zAb8TD4ER4XR0q/sQyfNp3JU0Yxa3C86+6TEq/F94atBdb+gcv+8DGfbityTzyV0RxAr/sX8dztw5l8FgP9lyz4OU+8+AHPrT7ptpwnmfTIJ9x/02XM6e2eIMSPmIRsIYRQ9Dv+tbc009zYRGNLCxarHZvrFtHuGTDgafJynaXzDQjE39+XQF8vV8CWkC2+N/R71zeXkVdWT0PrSXdC68zDgDkihbhQXwJct9H9etb6Eiqr66g+wxjy/pEprru2Bne+2ZcQP1ISsoUQQgghhOhicuGjEEIIIYQQXUxCthBCCCGEEF1MQrYQQgghhBBdTEK2EEIIIYQQXUxCthBCCCGEEF1MQrYQQgghhBBdTEK2EEIIIYQQXUxCthBCCCGEEF1MQrYQQgghhBBdTEK2EEIIIYQQXUxCthBCCCGEEF1MQrYQQgghhBBdTEK2EEIIIYQQXUxCthBCCCGEEF1MQrYQQgghhBBdTEK2EEIIIYQQXUxCthBCCCGEEF1MQrYQQgghhBBdTEK2EEIIIYQQXUxCthBCCCGEEF1MQrYQQgghhBBdTEK2EEIIIYQQXUxCthBCCCGEEF1MQrYQQgghhBBdTEK2EEIIIYQQXUxCthBCCCGEEF1MQrYQQgghhBBdTEK2EEIIIYQQXUxCthBCCCGEEF1MQrYQQgghhBBdTEK2EEIIIYQQXUxCthBCCCGEEF1MQrYQQgghhBBdTEK2EEIIIYQQXUxCthBCCCGEEF1MQrYQQgghhBBdTEK2EEIIIYQQXUxCthBCCCGEEF1MQrYQQgghhBBdTEK2EEIIIYQQXUxCthBCCCGEEF3MQ1Pc/xbnlROnw0JtQR6NXlEEBgcT7u+J5nRgrS2gqNELc2AwkeH+eLlf8fXsanlNlGWWUG+1Y3NP7WAmJD6OsOAA1FscY60vobK6jupmu3uK4hVCeGTYObyvOHvHt3l1iw2Lwz35qDOVveaE5jLyyuppaD1xC7v4BOMfHE73KH/3BCGEEEJ8X0jI/s60YmlK5825c1ia+gizr7mGu8eF47A0kf/mXO5emkqf2dfwq7vHkeh+xderpqV+BX9Ie4iPCyopck8Fo3r04obnnuPuayaj3uKYkgU/54kXP+C51eXuKUrKDfz0N3efw/uKs3d8mz/3ZQmHGtyTjzpT2dtaYO0fuOwPH/PptuNb+JhBc5l4zX2se2Sce4IQQgghvi+Mf1Lc/xbnVRPWtgN8/vRntPa9grQRg+kfZcRhbePw50+zrLUvvdJGcFH/KDqdfP4aJoyeMXQfcwEX3TCMJNpo2pdHKXqbqYWKbDum0DBihyYR1fECvCO60XvMeMam9SIkv4ahjz7HQ3dewRVjuhMbYD7L9xVnz4DBGEjcoElMuWIoic6j28jNYiCqVx8SBg6ip597Wid2VTd2L/gL2/ItlDUbaGtrU4v0gqSreOAPv+GRn81l7qjuRAeb3a8QQgghxPeF9Mn+rlgtOKuKyW/qS3xqFAlxJn0iTmcVRflNmP3DCAsN5uzjkh6yo+g+aiyjJw2hf3Ikoe5n9DOoFdmrWPLxIub9ZxdVaoreU8E7ojs9VOCbMHoqo3v3YvT08Ywf24cesUHn8L7i7BkxeKqQPXA0I8apbTQwjaS4XgyOAS/9BwfLEfbu38+yL490zN6ZtQ5r2UYWrQ4hIDSUxER3hxKDemHKEIaNGs+Fw/qSlhTUMV0IIYQQ3ysSsr8rFguOomLy/AcQlRhKrCsRq+DtKKIoz5+4yHjiooNds34jPjGEJw5k1vgUfM36OelisrYvY8GbH/PulmKaLUf7YftgMoUQGh5GaIgBL+mI/d3xiyc0cRBTh4bg463veo0UHTzIztV71NbSe9kfZ2+upO7g5+wyTCExIY7UMPcTHup1IcH4qw3n454khBBCiO8f6S5ynrVU5VFaXEB+dgZF21fxao4fPXuGEW60UF+eR0nRdpa+moP3wIGk9k0hwt9fBSj3i89aCRnpGpb2ZO79aTcO7M2mpr4Na0sl9fXlbK4MZeLAVMIDzXh7GmitrqZo2zaYPJk4Pz8C3EvB1dWkmaq8AooLiiguL6fc/Wh2+mAwmXHld/2CPGsNJfmFFBYWU6rPU6Hey+mLobWSmvIijhSWqtdVqEcbTh9vTJ7tWOsryM1Un9m1zFqa7R54mH3x0c/qnkC/qLOB0oxcikpKXcuvrm+m3SsUP5NqGXq4Z/tBUdtoVz1VxRqjp8PWL0tpbFOfs9GArymQ2Nnj6Wk24u36cBYaizPZ+/EH7Bt1DxMDcqjLyWR7XrPaY1Xl6DWDueN70jv2+Jbr0KLqVCklOfkUnm67uekXwJYVF7q2UUVlFW2eITjqa7E5bNjN5mMXYZ7tfDqLqmfVJTnkFB6vM+UNFpodnoSeXKHtqsHZUExGbiElpWXH5z/h0UB9swOvUH/033z0UrE3V1NfUUBmXknHPLXt2D08Mft6ua5EEEIIIb5X9Asfxfmz9ZlLtbmDXOn1jI9Bc/+o/d9G9wvPyVZt4Uuvao/e8Z6W0daoZbxwkTa1b9Cx5RrNAVrfX6/W1mQ2uuauOnRIW3TPPdqiykqt1DXlKKt6LNeeuXSkNqjTeumPSY98oi083DGXZm/TtJwXtIem9tWi3c8ffY93Hr9T++nUaPfrTOpxufbIJzu1w1UbtR3z7tQGqOkqcqnpKdrUn76kvVfgXuYJqrTmuve0nydFagnu5Uf1n6jds0TTKlvcs/zgHN1G/9L2qs/2s06fzT9lhDb+6SytpF4vf91h7dDaZ7RbAsZrj60u0da89dDxMjX5aVz+ivbJzhO3XAf1Hn+cq13oXq7+OGG7uRXPP748k1+QdvkredoLv3lGW7Rwoda5+p3tfLrDC/+o/fXC4+/regyaq008XYWuOqTVvTdXS4pUn6Xz/Cc8Bmn9J/6fpja5dnSTV218SZt3Z/fj86TcoP30pY3aaauQEEII8V8mZ7LPs8D4/gyeMp0JQ1MIyNmNfeYTPPyrB3n4/juYO3M04wJy2GafyZ0P/4qf3XYJE7sHc+7XselnSSspKzUx6LI0YuIGEVC3h7ryAvLqVBpxOmgp2IM9Mo2wmGQibKc5k91QQPOmf3PTL16lIOk6Zt/7G34yJ41ujcs5UAblR2pVGgwioFcvUv0N4BNHN786quvK2a3e5Oh7VEdMYMTE0Vw+yJtDmzJpoor8gxtZuaGcbHsf7nx0DlFHtlFeV0teo5k2ezBjJ6Tiq1bB1Xep4QCZGz7kkbtfYnlWKlP/9DC3zelJ37YDfLzoc5rjppAY4U+Y/oIflKPbyJeBF43BePBd9pY3Ut4CDg8/2o0pzLiwB6H+3pgKd5F9MJ1n28fxq7lDia5cx7ZdB7/6TLbTCmVLeP5Pz/P6ByXUJ8/gp/P+wg3hRziwbROHajxxRqUxMMwCu1/hLy9/wmrLEIZf9wee/831RO//K0tWlFAXN4B+Y/qQaD/L+VwdXHYz/9G/8tKKGgr738aLf7qfWwZaySlWdSwvD2ujmh44kuFJvvh6GdTmXcyGD5/m7uc2kVUaypSf/Z4HH7mOuSPDaFy+B1XVsKddx833/oS/PTCdAdHB6AMUZs5/lNdef515h/yJnPMEz/1xJFFZe9i/vZB99b4MG9OpDgkhhBDfA3JMOs/0kN13WBpD+0fj3+JJt0FTGTV+KpMmTWLU0P4k+rfg2W2Q60K2MX2T+bbXsXkYPFX+HcikuXdw+fRxjNKH8FMBuLVoH6veeZNFKzazq75j3s6a6yrYv+Z9Nq7bzdbMOmyhiaSNHcnEfjGYvYzUF24jMyuTDD0F6f2CVcjunhJLbGTHGM36+wb2GMvIsZOZNmM8o0f3oxsaJqopLPPAO6w3Y2dMYsL4ofQI9cbP00J9bh55OzMoVK/v6I9cz5Gd61g+732Wbs2moJcKZ+OmcPm4IQxN9qd43zo+/ng1B4sqUdn0B8qEp1cUo+ZcQK/4KFcDx9FcR8Pedewua6OuHSrycijNzyFBNc4SQ3zw/dq+EFZs7SVseu8tli5Zz05bAKZR05g7cQKzx/TG3JzP5tVrWLpqF5UOO5VZmzmYXURuuRPNFEm/SZOZeMEljFHbOS6wY4lONV/1WcyHmo/MzazbvJaVmw9wpEj93W8iIycOpldEIAEtlVQXHObz3YW0WvUtXE9xxm42r1jLl4erabcl0mvYKMZdOJmxIwejFt1xQWi1hm9oGGFpSYQ5rBgzF7Hws2V8tK6MMlsS4y+dxaTJ0xiW6MSev4JNyz/li0Oo93CtlRBCCPG9ICH7u2Cpo62+nqK6VHr1CiM4SO+jasHSpqYV1RHbqxdRwUFdeiFb9OBZXHDlXK65aDAp6m/XpZA7P2fZh+/wweLNHFBB2+p0zepit1mpranC4XBQnJXj6gttMZkIDgnHqI9oQSMWSwtNTR3zn8zg6UXosCu4YGQfBnYLwRQQiH6tnquCBfUmbdQoZk3rjX5p57HM2GrBXt9Enfpnx6pUcmT/frauPEi1ek9n92SiA/yIDQklJCaOIJudvLWbyK2oUnHth0svq6Sxl5CWGk+cvtFtjdjKt7Fkcz4lhYc5fKSWjIpg5oxPwc+s90j+OqoMrUf4ctE2copqaY0IxZwUR6rRQHhCEqG+frRkHyFz6y4K1NztTlXSmkZrcTqH13zIvP8sIDf6aqZcfjHThiYS2bFQnGczn943v66WBquVlupimnIPsafRA2tgMEEmL/RRCW12O1X1dSq461u4Rc1eQ2mx2np6Qy04kahQP0J8gjH7RJPUXdVT/eMWl1FXVesa6lBTIbvp4BK2HCwhq9oPH59wuqWEYjKp18b6EmIuoq54L2v2NdLWuUILIYQQ/2USss8z/cLH/H17OLCnmCN0x9+QTUn+Xvbu3cqeA2r6EUj0N1Bdkk9mfjkVze4Xfmsh9Jx8EZfedwdX9ogizGRUG7uKQ6s/5qN/vcyCXOh840ezfygpadMYmDaEQX0j8LdVUZyeRVa5BasrIH0HrJXU1dRTVqn+rTmgvoi8rHT2qnIpVOUSrkKdobSQisZW6jqt+w+OQTV5IocybEAiPeP0vkHt2Kz5fLFwI4e2LGBXqSeZxllcOgj8vDte8pWcFvVfAYXFdlra1N9tdTSX5bB3/0H2VltVygXfhjosZaUU2Y2Epg6ld3cVUD2OkLfhZX575908/u4GcqL6E9utHz3VIgyqgRPZ7czzuYYTjO/LoH5pjBmkpiWG4Fm+n8OZRVQ1WU66C6nOhLfZjJ9+IaSHB4T64O1hxNNuwmg04+urFqkme+mjp6jGlR7S9bBfXJRHa4u+Y9iwttRQcng/B/aVUt2uGhhqUa1tFnILCrGrQC+EEEJ8X0jIPs8yFjzKX35+P3c/Po/05sU8Mfcyrpg0iUmTLmXu3Y/zenoznz8xl7uumMQdf3mL9w66X9glEknsfSG/eOlmBoX7u/q2Qi1tbcXkqpBt75SCvKN60uuW1/j4s5Wse/8yhtQu4t9z7+aet3NPvA37+VRdRV1jfcfNWvR+wRuf5NG7rmDSpXr5LSEXJ3ZUgKtuoeHkuyf+oOhjZcQwYcoYBqR175ikB8SN29mwfj0HDE680wYQpyZ/bU8RnUWF7OIiihx2WvW/c9aw99WfMWnKhUy67hk+3p2vtrgK2e1lFJWbsQ++l7/+7BpumdLxvnZLsypmVf/+8hpvbdI77iieKvgPO4v5PFTCjbmU+556kwXrFvDiw9MIeetCbrj76PueLJzE5BQGDo5X6Vl93vwtHCqoprChkIbaA2xeoz6OaijEXDiRtCEDGaBeoYfsUtUAbW3TQ3YtZRlLef6GSVw8bRI/eW4Ta3JUu0KF7dyiYtdZcyGEEOL7QkL2edbj4ke46soruGZcLOZLHuP1d/7Dp4sWsejZX/LYNeNQE/nZ6+/w1qeL+Ocv5nJFH/cLu4QRo188YYNv5R+PXMTgPvqP/PrADE69m/YJPAx2nFop6x6/kweve4h386NIvv9J/nFNMmF+ncZ/O580pz7aTUfXET3ojbqXR556g0WffsZnS5ezeu1q1q59jYcvGUT/o/2Cf5D0kG3Ea+A0Rg5LY5aepvXzvrY1fL7UjtWWzIwZsa6Arc95RiqIOtR21bcsKePpf8P/sUivY4s/Z9nK1axZO5/3Xvg5l8d44Oftg9+Q67jnL4/x9j9vZ4p6ibGtiebNr/Pxxwt4clWlelP1rqaznM/oTfNuVX//chs3/O5FnjX8gr8/dguXDEwgRF+fExgITbuMmQ/+k6Uv3sCo0HI2PP0A911yAzc+8AprjH4M+8UH/PmnVzFnSFjHHUjVh3LoldX14UKI6nEBt72wiPfmL+Kzz1eyYvVa1i54g08fGE504JlO+wshhBDfHQnZ51lgfDzhYRFE+gaTOGgqY8frZ7EnMbxvEkmRvngmDmLM2PFMVtOGdcGFj6cwmvEM7MbAS+7hFzfPYPrgWPcTnbVQV7SHFU8/xqsLvuCz3QaMcWlMmjWUocl+rrG1vxNBSURHR9HDdbGmepQ6CejWjz6uM/+TmDB2DP09rRhNNixn6qr8QxDYnV69ezNuoP6B9RRZTUVAMhHRKYyJOsshZkx+GCP70S/WiyD9JQ1OTNYgIlV5jXGX2/DEaOJppsFkoWrzK6zIaqMxbBIXX3kXD/39/7hzUgiJFJKRmcWmjDKcNgvVm85+vjfnvc+bH28mo8BG6tSrGDeqN/EhfieMo32UKSgIb/8wKLIx7M6HuPn2W7j5quu47pb7efjJf6g6epGqo3HEBnVsYIPRqMpoEAGBem9+C3aDRpt/P4aPHu/6bJMm9WFQn0Dsqq7oPYyEEEKI7wsJ2eddJfU17bTURzJ0QCLeXh1nhevra6hpqSds6ACSvL1cw4+dN0YVWJImMPuq67n10nGM63HyaeB618Vjq1/+kI15LdTaEwkL9SYypJLiwo6eDGfi1DTqGxux2s7lJ/s27I4m1Mv0k7Hg340+/foyYZhqCDhtkLuBldsOsbugQa1EM/a6dLbtK6Oivt19oeQPnT8xffoxcMIwUvDAk2BSxw2lb/8UTtcUOi2TP6aIwcyY2IPYSD+V03Mp27+ReVuKadLv8tlSQP6RI+zNrMPutOPIX8cXnyxh6ZYq6kNGMP2+n3DxkEBiAsBb1UM/Xx9V9nacZzGf095O8Zdvs3TDHvYVtalpfvTqlkh1ZTltba7OK6ewVGSQvfVzFcp3Uo43XkHBBAd3PAL8fKjetZAvlm1ka2aFawQZo6eJpNEXMzAljhifVhqrctj6yVL2l7fSoKpIQ0E++Xt3k9vuxKbqoBBCCPF9ISH7fGspobISatu6MXpkFN6uW++1UKUmVtW20XP0SGK9zZzlectO9C4frVQfSSfjQDZ5RUVU1BRweN9+9uXV0NDaqcP1UakXMv2Sq/jFVcNIDIHjJ6itaJoNh01fCw+oKqQoczvbMg+T2ZhIsGoY6HcBb6srp6o4h6IGJ/a2akrKVEOhTr/aDjSHndKs3eQUHSE3p5iSnLLjo4ZY66gqLyYrM4/C7CxKm6xYXGcda2iqy2XPxiKqVSC06RdrDhrNtEun0z8xAJPnHpaqQPXpgrXs3b2dvbtWs9O/LyHeYcToL//eO/M2Cug5iB7jpnNBiBEf395cMC6NIX3Vp9PviliXz6GD+0nPr6Kqyb09O18QmplPToUNkymeKZfPYdQwfZSaKkqK1vL804vYtmUne3esZne9heLg/qQZPIiPjKHqwGY2r/6CVdv3su/AAY5UWrH7xzF44ACmDO6JQc0XeRbz6ZG2TQVyo+ZUDYQGWhtyObB5PxsO1OBh9CDYX9V1exsO9ZkPFde5Pm/94S0cWPEO81U9mP/4Qzzyk1u59daTHg/8nWc+3MiuojraPb3Q+s9k5sQRTOkVjl9DEbnz/827q7eybsdetqzJJetAKz2nR2Hy/Y66NQkhhBBno+OeNOK82flv7c/X3awNmvhXbbFd05qdronap3++Trt10ETtTjWxsmPiOWrR2hp3aa9d3Ucbmeiv+fr4aN5evlpARKwWdONb2pI9Ze75TuSwWbTSPbu09267R1t47I6Pdq3pyBZt46/7abFB+l0aPTWT9zBt6Izfax+VrNP+emGM1isQzWDy1hKHz9Ie+qJNq05/TfvtrDQt0WTQs1bHw+Sj9b39Tu3ySy/WLvUza6aj0w0mzSt5lNZ9/BzttjH+Wrivh6Yyu3pO/a8xXguLf0h7M79ac62xvV2zFe/S8l+5XEsI99Pw9Na8fQO0oNgBWtz0p7VleTVavf2blNd/w9lsI7tWkb5Se+sqsxYx9CHtXysPa+UONbk6U6v/6DZtQPdYLdDXW/Py9DihnH39A7Wgcbdps57aomlOVR7WVq157d+131zeX8NDbRMvPy0gMEgLGnCr9uDL67WcdrVQa7OmLf+59uSHH2kPPHi/9pM09XxQoObn7aF1m/sP7V+rirU2m3rvs5zPaW/VrIee1n42uZcWqdbLw2DU/CIStWteTtfmP3WfdtfEyI518Y/QAq5/0/V5Mz55TPvbjE515nQPV32ZpU26/yMtR3NqVlVG7a1Z2spn7tRuStXnMWrefoFaQFCQNvrGP2tPrG1z3av0h1IrhBBC/Dh46P9PHdjE+dJYTH5xE1VWX1LTktzjRDdSlV9MdZUVY2oayWqi6yYc58SB095C2aF0ShrbaT3aS8NDLSisG/2TwggPOP2FYLaWFhpKSiA5mQAvL/S5HJYmWsoySC9ppd2uVwl//ILDSO4fhkW9R5n7Pbz8gglPGUiyTxmFOSVU1rXS+R4g5qgofK1WtLo615nsY7z88fIyEazVUdOq3u9YrfPC6BlOt2HJhJk71kWtIPbaAnbm1GCxuTvaGs0Y/ePo3zeGAG/PjovivvfObhvZWuqpLdxPTmscyakxRIb4YjpdGZzMP5LgiDjSjnbkd9W1cvIrO40DaY4iLjGWhNggzPoFhPV5FDuDsdTX4agpoazjhwg1Ww8SYyM7+kKf7Xz6ONmWMnKyjtcDD6On+mjDiNaKqauupKROTe30eX31+bcu4qNnHuL5zeptLB3LPYXXMAZOuZZnvvg5o9SfPrTTUFpIedHxddH5RyYTEXcermUQQgghviUJ2UKI70zF/mVsW/kJb6yupPv4kUT4mDsaVp0UbHid9YcDof+NvPzxPa6h/M69O5UQQgjx3yUhWwjxHWlh7wd/5T+vvsdzVbfzzuf3MzEhpNNQf3oP/nKWPHIrH6SHYx37U577zWjXnUOlt7UQQogfGrnwUQjxHWlBM/nhaQwnvOIg+w7uZdde/e6nRx+71WMFB4p9iew5nhkXjiZKvUoCthBCiB8iOZMthPiOOLG3l3Jk2+e8cd/PmFdmpsXu0emGO/qFCSnMeewv3HD5ZMbGmHENxiOEEEL8AEnIFkJ8h2xYmmooy8igpBVc19geo8dtH6J66GN+h+C+H40QQgjxgyQhWwghhBBCiC4mfbKFEEIIIYToYhKyhRBCCCGE6GISsoUQQgghhOhiErKFEEIIIYToYhKyhRBCCCGE6GISsoUQQgghhOhiErKFEEIIIYToYhKyhRBCCCGE6GISsoUQQgghhOhiErKFEEIIIYToYnJb9R8brYnGyiIObdpLQcBAhg1OJjHCH5PmRHNYaarMJy8nh0qPaPzj+jA61c/1Mkd7A3VlBRQVVFJY4UffiwYT52/G1/Xsj8hXlZ/76fPHicPaSmttMbkZ2eSTSGpKMgOTgtB3Yc3eRE1xHvlHKqm3+xM7ejQ9/MFLmtFCCCHEf4XxT4r73+I8c7VnnFYsTfXUN1totnngb/Z0P/t1VABWr2uqLKO6to7aOvX6+q94NDTR1GrB5vDAw2DE02jAw70UF2cpRfu+4JV7f80/M+PoNSiVHvFBeDnt2NvqKNn1Ce+/8m8+2t1Mke9ALh4QqF7kwFpXRPr6BSx6633+/VoR8deNJSHYj4COpX5/OSy0t9ZTUVpJ7Sll1UCL0xuTp1GF5PaznK/stOXn7X67c+PE2tJCW0srNm8zek3wOGFjdeK0YW0qpTR9Ge8+/RTP7zJijkhkQp8wVbHsajklHFr1Ph+8/BGL1hdhmHwxA4LAbHS/3N6OtbGK8qpmrB4mDJ6eeEoAF0IIIc4bOcx+lzQVVqsz2fLeY/zmL0/z4Nt73U+ciQqKLel8fP90rhifRlraVzyGjmDI+OnMvP6n/PGNtWzNbcDmXsKZOGw2WiorsDXlciivkvyqduyuZ/QfOmqoU8G9/EgxZemHKGlT8/9Qfv+o38OhJX/hGlU+I04qr6Ejx3Hlv3aws6D17OfrUq1krVjK0udeYVULtH1dmTY3Y6+roNZWxt49xVTUtrm3rUM13lqoqbZRn3eI4tJ88ls6tlxnlooMDr12I7Om3chj83exv979hBBCCCHOCwnZ3wkblsZy8rauZOuqD3lv4TrW7C6iqvXUMHR63nj5dGfG717n6Sfv55YJyfg3GGi3T+SOl97m9UWLWLRoAQvee4nXHr2eCeZDbJv3Ox758zP88b0DNKklODsWpLZ4NHEDruCB9z9jwf+7mgv7RuKjJhu9vPGPTiCpRxJRvj74HHuBfmo1mNCobiQmhxET5cD5Q+pgFNiX7pN+wlMfvcWTN/QmJdBOgzGZqDH38OS77/PUTQPoH2s+Nt/TH73Nv29Po3uI1jHf6Lv5+9vv8NSN7vm+ovy+kdLN7Nn2CW8sWcO8T3JpavmaJpFvAD4x8aT0SiHRYMB8bBsY8TD4Ex6bRGpSFKFBPip2n6yV5vpidm/aTnnpdnYfKiS/rKsbDEIIIYToTEL2d8KgQqwvgSrExvXpQbSPCkl2K/azDqtGDJ6BxA0czcgLxzG0dyLxeGH0jKXXqDGMmTSJSZMmM3nKhUyffTk3330to8LbqN+ykOWffsKyXBWzjuY3DxWgg+LpMWocYwYlEB3o7qagdy0x++Ln74+P3pWgY25FD9neeJv98fPzxlflzB8UUxAB0b0YPnEys8b1ISbMH8ISCR8wjtmTxjMyNYQQX/Vp3fMNmzyFGbNG0Sc6BH99voHjuWSymq9bcMd8X1F+50bf8O0U7FrPnr3b2JF1hB3z15LR2EbzV9UJTxNGH7V9Av3x9zCcsH08PDzx9vHD388Hb6/TrY0nmmbE6WjC6dQfHurvc19rIYQQQpw9CdnfCSMmcyDhqb3pPmQE/RJCifqGVwwag4Lw9/UjyP33cQYMXioIR/dk5MU3MGNED1LIo+TQl6xIb6bNeuzU9I+QBwaDJ2GhoXh5e4EqP1NwMOEqZxpP6AOtz2ciKCGeMF8VaN3zRXoZ1Xxf1Vn6G9DUtrDks2dPFZV1dgL9GqjeuYwN2XVUtpx6Hvrb88JL1Y3I6CCMxiBCggNUIFflIIQQQojzRkL2d0oPama8zSp0n6/hKDzUJvWMJyklnKgoA22WBvIKq7DZVXhT4c5hbaOtsYbq8hKKqppobT/bLis/IgYjBhWqT4nVXVJ+musiVkvBCraVphCUPJLLxxtw1q1g4dIsjpS0uvvCdy2z2YeEhB54evYgMsIP1XYQQgghxHkkIft/jt7foJrigkqqKi34mP1ITYrF5OkJjnbq8razdf4/+OO9VzH1d4vZcLi642XizLqk/DTXUHx7P/oP7T1TGXX99cwZP5k4q42Mz5aTXlJKjXvOrmTy8iIsIka1H2IICjTj96Mbe1EIIYT4bknI/sHS1P/ZcdhdJ1gVJw5bM40Vh/nyxceYt+IAe5xDSRp8GXPHmPDX+1K3W/Aw22k3tlG4KYuyujbafzDDhHwPdEX5WWuxlq1hwYYexCUkMmDMaBLTpnP9KA2figWs2ZLN3iNW98xdx6gaWf5BIXh7heDva8IsvUWEEEKI80pC9g9WE9a2LXz010f540MP8uCDD/HzX/yKX//2z/z9tc/YaxjMyCtu576bZzAkzICX3vnYZMYvLIywyFD8rJaOm5i4l/ajUrKbnCXPqjLTy+2kx89/xYN//Zh1WeU0umc/pgvKr72+kqIti8lMGE9yYgIpoeGEJ/Rl1kVDCfeoZPeXu9l3uNg1IkxX8vDyxjMmhkj1iPE14y97vhBCCHFeyaH2B0u/QU0LdaVFFBXkk5+vHnkFFOSXUNbYjsMrkEA/E/7GVmqbnDj1cfe8fDD7hxEaHE5kCBh/rFvf2oKlrryjzE55FJBfUkOjxXbqUHjftvwcjTRUFLJ9ZRGh4weTGBdGkMET35Aoek28kD5h3jQf3kp6+iGy6rv4QlUvLwyxccQlx5Pg54N+iyEhhBBCnD8Ssn+wgjH7zeDeV97mzaPjZH/8Lu+8+A/+cNsF9Glex5J//YGfP/Is7+2tpa5dBW3X63wwmQIJCVMb3303wB+dlPH0v/H/VJnp5XbSY+FHLHrxHi4ZmIDK0afxzcvP0ZJFcfZOPl4WRp84J3ZLhSvYF1Q3URHcm0ERJkIrN7B3106W7W91hfwu+6XByxtDjArY3ZKI9/OVkC2EEEKcZxKy/2cYMXoHE9ptGNMffIEnHryUOWk2ig9t4N+PzmNPXVOXd0EQ56Y+fS8Zqz9kWeVnPHblFGYMO3pXybGMHHcHT+6oIr+1hYyD6axfu/3Emwh9Wx6eGL2CSEkIx99XOmQLIYQQ55uE7P8Z+k1JDBiMnnj5BJIybBh9uicT09JCa3Yh5TY7Fvec4r/AkUP6njzS87pxw0uf858Fi/i08xn0TxbyxSePcdvYHkQX7qbwyy/4tPNNhL4tD3+8vAYzZ04/EhIC3BOFEEIIcb5IyP6fo4/ubMDDbsfhcGDVb6JiUOFbD+Gu5/WL9fQ+2q4/xOlozq+5qPGblV9r9jYOVbZTEDuZubMnM3WyfpfOzo8pTJp2JXOmDKBfVDNV+Xv5bF0W9W2n6Rv+jXiqRlgAYWG+eHv/WPsJCSGEEN8dCdnfIT24OdvraWqx0lbfiq2hgRqVoM5lFDhnSyuWdgst7r8705wOHNYm6gv2sXXDDvZkVdISFELCqAHEm73w0eext2JtbaC2XgXFujqa2q20ugOjvhoOazt2tZzWtlaaGxtpV8+p1VZvbMOugrvVZsep1VFXr/5t7bIew+eZCsaag8amJuw2G1gsOFpaaFBlr18Pepw+nx1LdS2NVquazYK9uZl6u1Nto44Zv678TqWW57Rjb8hl74pV7KsyYB80iTExRsyeJ93qxkMFX3Mfho/tz4A+/rRX5fDlwoVsya6iplWVuZpFU8lea2/Hqtej5ibaWttodL23a8thU9vGrtbPbmumrk5tR1Wx3GuNtbma8r2fs3Tx52zNrKCi1fWEEEIIIc4TCdnfEYdVBePKIxQc2srB3BrKs4qoP7iL9bmFlDbZ+fobB+ojibTTWFFE4d6DZBeWUaJCldPZRHVxEUVHR8bIyyEnfTubF/yTp95ay4YcA6lpo7j8vssZFOhHQHsjtSUZZB0+wP4CB9ZDeziYVUB2bQsWh1UFtyryc4qpbGqjsryQvAO7Sc+vpsGu3rsmj7LSSkrrWnDYD7FnSza5BQ00WbrmPOt547DQrgJmsSqb7fuyqalXzZPaMhqyD7A1t4DCujbabCqpuucrOZLNwc37yKluoME935dZeRTWWmhrrv/q8nO/3Qn0Mm0q5sj293jjo43szawlyGygrKwBiwrunbO5pjmxNVZg8Q7A0xyEb30J1Wte5oX5m9hwuIJa1UBob6im6FAe5aqh0F6USX7mYXYWqe1jddJSk09BSSXVjZU0N+Sxb3M6Oep9WlwVSz1fpuZ96R5+eud9PPnZfvafjzveCCGEEOI4TXwnqjM3ah/dFqR1j/HVzJ5GzeBh1IwmHy0kJlG74a0CbU+Ze8bTatHaGndpr13dRxsZ76v5eKnX46GBl+YTEKgFBgVpQe5HcHCQFpmQqvUccZV25/99pH12uFZrsTo0h9OpaTtf1B6/dZTm7+uteeqnNw1emtlvpnbL459pW6oztfqPbtUGpIRpXkaD5mHw1IzeKVp04gPaWwU7tVd+e4l2cYq35m3UT44aNS/fAK3/na9qb2yudq/j91T1Zm33B/drY4ICtTCzp+ZpUOuvl72XjxYUFa+N/MN6bUN20wnzhfua1HyqfE+e78N/fHX5ud/uBMfKNFzz9jRonp6q/CIHavEzn9fWl9Zr6l2Psbc1anmvXa1dMixaM6vt66EvH/Uas7/mf9GftMffflut38+0MQFmzc/DQ/Pw8NS8zKla/yn3a88cqNcW/XqANqmHl9p26jmDUTMFRWuBN7ylLXFVLLtWm71RW3xvspYQNkS79fm12qbKjvcVQgghxPnhof8/d94W55GtpZ7agr3k1Kh/dzr562H0JKzbMJLCzAR4uyeewoHT3kLZoXRKGttp/dqz3iqambzxNgcRGhVFeEQIId7uHywai8kvLie/srnjb5dgIpPjiIvzxa+2gJ1qBS3HVtALo2cY3YbFoBXnUV1ZR12nmxGao3qQGBtJbJDJPeV7yNZAU005GRll6D0kOld2FUbxietPj5gAQkwtZ57Pv5GGmqrTl19yBEHuKcfYWrCfXKZGM0b/OPr3jVHb2xMV1l30biWWskNklTRSd/IGDk4kOcqHMI/Gk9bPC3NAGLG9umEu20lxtQVVPTro3U/CutE/KYzwAC9sbWrdiw+TXWkiJLkbMZHBfJ83mxBCCPFDJyFbCCGEEEKILiZ9soUQQgghhOhiErKFEEIIIYToYhKyhRBCCCGE6GISsoUQQgghhOhiErKFEEIIIYToYhKyhRBCCCGE6GISsoUQQgghhOhiErKFEEIIIYToYhKyhRBCCCGE6GISsoUQQgghhOhiErKFEEIIIYToYhKyhRBCCCGE6GISsoUQQgghhOhiErKFEEIIIYToYhKyhRBCCCGE6GIemuL+txBCfHMOC/aWUvZtz6IhKJWkpHi6Rfq6n+wimgOnvYWqI5nklVRR02zDbvDBOziG3v16EBXgjY+nh3tmIYQQ4r9HQvZ3QlPBwIa1tZ6GRgvtdidODyOeXj6YAwIJ9jVhNHjwbaKB09qCzWqlySOIEB8P1/KETpW7pYWG8npa1V8nVnZVRr6hRAb54Ovt6Z7WQbO3097WQktrG63tNhxOfaoHBk8vvMw++Pn742tso83qhdHThI+3Qb1IX7pTbecmWlrUay127E41zeCJt28A/v4qDBqhXU338zNjMJzph6SOtbW1NdLSrK+LFZua5GHwwts/kAA/fb2NJ9Wbb17XNKcdh9VCa3MTjQQQGmA+pVy+lqWM5tz53Hf54+wa9AB33HUtD05LdD/ZFZw42htpKtvLsnnvsmTdLvbnV1Lr8Mczbjz3/vX3XD00juSgc1jnc6JvD432xhoaW+xYjb6EhgfhrQpTdjchhBAnk+4i3wkHrdVZ7PvPw9w3eyITRgxhxNiZXHTzH/jrkmwqW20qPnw77VkrOLD0OR5b1UJdW0c4E7o88ne+xsNpaYxRj7TOjxFjSPvlQtYernbPe5ytOp2dn/yLv//0amZMGMmwoYNJGz6WKZfdxt2Pvcn8PRXUFcxn8Zp0th3S47tOlbu9niOrXuZfD13D7ImjGDx4KCPGX8Itj73Hwp2ZZJbksWDBJhXCLe7XnImV0m3v8MpvrmXOuOEMHjKM0VOu4+6nP2NFRrVqQpzsm9c1R0slZfuW8p+/3cYlf/6MTZmnlst/Vzv1BTtZ8/8e5G3rpVzzj09Y8ukLvPCzYUTnfMJrC3eTVdLonvd8aeXwfx7lt3fcwdUPvc2WFrVWsrsJIYQ4DeOfFPe/xXnSmLGKncs/4MkVrUQPGM7A3jEEOuuoykvn0MGDlJj7kBgVRGSA6RuezS4nffWnLH5/NYuzQxg3JYVQfy+83M/+uKly8I0haeBghiU0kp9fSmFNAKG9pnDbH3/NHTNGMbp7OAFm/eynfia3lryl/+bfL6hQvKuJtujRXHztdVx91RVccdkspo8fTP9wOw07P+D1NxezvbUHid1TGJhgwt5ew/53/8zzn2RRHj6Sydfdwq1zL2P2haMYEFxH4ealLPx0A2usvblkVAqBvqaOVfwKTpuFitVP8fLiDLKtMfRMG8jgFD+aijPJz0onr8GTFr8kBif5u+qN/jj3uqYnRCvVuYc4sn89Wzet5O2PtnIoaByXjO5Br5gA11xnxcOEwSeG5LRxTJkyhhG9ogn1+/rPeE7q0jmyfTX/fi2XuGvuYEpaIqlRkUQk9GXwuGlcMGEYackh+Os/F5wXDvXIZePbH7JizX6K8CNh3GUMCgFX9RFCCCE6kZB9vjmLObRzP3v2NRM0VAWBaRMYPaQ/fVJDCDXWkb1uAwdKw0gelEpCfCgB3+C3BVvxRlZ9+hkfLN5DdmUbKROnkhLmT7CX/IYN3nj7hhHbM5VuAYXs3JJJbn00scNn8eDD1zNFhbIQHz0IOrE2lFC2+V1eeuV9VldGEjVoGrNnXciFKjAOH9SPfn160j05jtgwP8zORirSd1AQMIwevXsyLNZOe8Vm5j3xHDtNYxk04yrmzh7PmEF96d09idgQLzybi6isrmVH+0BumpRC0NcFUK0Va1s2Kz7eRUtIPwaOn8ykCSMZMbAXKbEqbx7aR2ZGA1X2MNIm9yVE5UpP7ZvWNQ2bpV2VQBMNtcXsWraNgsTpXD6uJ71jzyFkGzwxeIcQm9qdlLiwrg3YSnvhVtI3ruK5L9oZefv1jEgKJtLfD7+QWJJ6qG0TE3geA7ZO/w2gkj2fLmHHvhLqA1TjavYVjIgAHwnZQgghTiLdRc63hlwqrMFYUy7ngdsvY+rINNKGT+DCOddyww1XclF3A43b13KgoILSdvdrzpp+FtJC6c4dFJVW0eDvg4cKel+sySS/ouU0XQl+rDzw8PDELyKCQG8Vur398AoMJcrPeLzvensNtbnb+Pz115i3xUbwyCu45saruGZaP5JDzJiNBrWzGDH5BBOWMojhs+/i3jvnMCI5iABNbThbE/bqvWxPr8OUmEbffn3oGWzC6OGB0SuQ8O5jmHzZVVw390IGB6nof6Y9Ty3PWXOIDC8Vri+awzUXT2DUkCEMHDOT6+66h6sm9iS2KZcj27ewuxGsev77RnVN//wmgmJTSEkbwcDBaQwOB6/zmVW/IUt9LXXlJdSqf3/b7lXfjL7RIgkNN+MfGIiXdyTRUWD8HpaVEEKI/z4J2edbRTsRCfF0v2Ao+vVYxy6Q8o4nLHYQMyZF4uvbSlubjfZzDNma5kSzFLBtWymGoGQuvHw84c46vly4lANHSqi3u2fsTL3GaW/H0lxPTXkx5TVNNLW1Y2troKa0kML8fAqKyqlqaMWiJxn9Yj7Ngc3STGNtBZUV5ZQ3WLHb2miqKaesqICCgiIKS2tpsjqw/0D7p9qq95GzfRH/ml9IfcQMLpqSxsjeQSpWn44HBi9fYmfexbiesfTwURtOhWlUkNcDV50q17LScmqbrTj04nOXiSGsJzG9x3L5QF/89Kvlvk6bA0OZlR6zxhCdFIn56J6q3gO/NIYNTaVnqgmHo4XmZhU69W31reuaahQYzfj4dnycc3K0XjXWUq1/fr1eWfTuFfpzeiHY1XM1VJcVqfqST35BoWoYllFa3aDq39c0B/XX2hqpVeG6oLCc4qoG9VbtNJQXUVKYT1GZWkZlJSWq3ua7Hqru1reopqe+Sk7aatW6FHU8V1RSTk2rhsOpXxxqde0DdVUVlBTV0GRX69eq/q4soUhfv8IiyurasNjUPtaxJoq+EaKJiPIjOCwMs08MCbHgKWexhRBCnIaE7PMtdRz9+vZjcrz7704MKpH5+Abg4ZVERJgvQefwy7yLQ4W4A4tY194N57AruXrWaGbF2PDNXs6uzDKy9FN+J3O00lKVzb4Vb/HML67lF/9ewmfbD1G462P+dddsLrtwCjOv+DVPfLCFg67r+VTEsNZStH8VC5/7LX98+Bf84uNCKkt38vm/f8X9V01n+vQrufzO51mar8LQ6YL9D0B5RjoHNq0lT22T0OHD6RYZRvjX7h36kzFMmDCEAQMSwcsPY0xPeoWZqF35Eu+9/jrPrcp1NXSOn3X1Izw8idmzR6qw6+2e9hX8I/FKm8PFPf2I83dP68Tb2wcvcxTefrEkRKugp7cGzmddOxO9XlVksG/xKzzx87k8qOrV0gMN7idVHXJUcejTZ3ji3quYdeE0psyYw5X3PMBdf5/PFzsK3fOdhtMKZYt54Re3cOv9T/P4khysrfv44OdXcuNFk7jivvu487HHuGPSJC5Uj0mTHuLPb23ioHqpvb2ZnS/M5d5r9OmTuPy2B3l6GzS0O7BW5XJg1du88pdHuP2qp1lWUU361vd47dGbuWrmNKZdPJf7Xt/NvpLWU86aBwaG4BsVhSksiDD1t3yJCiGEOB05PpxvXr6YzWZO7Z5qo62tnvzCMvxGj6F/fBTx53RGzIbdWsGmRevxik4kZeB4+qUO5pqrhxJkKmbd2u3sPFDgOqPXmX7G08NhwcdewM7thzm8awPrNuxhY64PA699gHtvHU2ybT9rFi3lzU/2u4a9s6mgaHZWUZ6fw/bNe8jZs5IPP89H6zGdS268nCvHB9C09UOefXUt+4+cbsSL77saKkpKyDlchUOF0e69exKqUujXD7esP2nCz89HbV+1cQ3+eAWP5Ibf3cMFA31o3fEB7/z9V9z1wJ95cXkmuTUWHGp38/T0IiDA98zD9xk98TAHEuBtwHTCrPp51TbKy8poCwknbuRwhqm87joxft7q2pnZrA4c7S34GErZvyOD7MJ6FWY74qnDZqFw6dO8v7MF++Ab+dX//YMn//wLbhtgpb25gdL6r6kxBrWiYWO59N6H+c39V3H96Dg8zd2Yeu9j/PaJZ3jswQf55c038NDffs0l3ZrxqC+nur7VVe+NJjO9Lv0dt8wcSv+QFor0XxdUhXZoal2N3rRVF1FxcCM7DmexbfF/2FwVTNTEa7n1ptlM8s1l17x/8snmTNLrOlblKD+/AMyhoXgGBhCo/pYvUSGEEKcjx4f/Fksp9ZUFbM5JYdIlY+mfFEbAufxE396ArXQHS9LDSEhOVAE7kqCIJPrPnsHQsP/P3l0AyFWdfx//7sysu7tkLbvRjbsnJIEYwV0KpaXU+29L3aEOpUIpbXEPJCHE3W2TbDbr7q5jO/6e2UwgBIK0mwB9n087ZOfOtXPu2eR37px7rwvD8QOcLiilzOiZ/xyNDz4hYURnxhJsduGw6vAPi2dY7gSmLVnFqptuYH6ON14t5RScrKFPhUmXdyBhydGEBwXgq3di8QokJimb0dMXcMXV17Ji6QzGB9ZQdKSYhg69ioCfNe10tXfRUGvHy8uLiLBQfLw/5r1ZvHzQ+iaQs+hGbrn/C9y2dAS5rjL2vf4sT//5t/z+kSd5fnM+p1vNg/eoeGcIwsekAiL6Qk5XeuOXMJZFS8YSp36LtR/Udv7btvYReOl88Q0OJSo5BJ1R7aPtnfO/LruN5lPbKTcHEzl6AStXrmTVyuWsWr2SmTnxxH/Q82q8tCrVDmP0jAXMn5XHhLQw1f+IJGvmEhYuW8XS2bOZN2kyc5erdQ0PJDLQs5yi0XkTM/oKFkwfr8oc4ZnqpsU7OIroiFBig8HkUMc9MJ7E7IlMnbdM7dsybp0/DGfDAYqq22g6d0LeIzQ8gsD4eHyiIohR72VIthBCiPcjIfsTYaevvpDa0jLqYm/kmrk5DIsJ/BgHw6EydgsNh96iJGw+w4Ylkx6uQROo/vEftYjFI6OI7TtNYUEBu0p7B7/uPhfqBh+mokJ2SHoKyToVsINTSR8xhpmTc0iMDCMqbSqjsqJICBrApjdiUKHTyyeAgMR4YiLCiFWBWxc7mlkz88gdFk9sQhZJGWOZlOVCZ9Jjstmwerb12TGA1WLF7O6QqPCp0WgHw/bH5aUCoTYklxlX38XnHvgSX7p9JcumJuNTvZF1//4bf/7bv3hm7XZ2nG6l32L/Dy7ec497NtJ8bCMVtixSRs9m2cT4wZB38b39b9vaR6Pz8VOdtQhCkuKJ02nx80wfpOpS5x+Ej6WDjvpqSqvb0bsCiB6/kqtmjGZcyvuMh/k4VL17aQMJ8FfbeVfiddeKlqCgIPz8/c9OGpymw8c/hOiYGBJio9TvRCAJE+YyafRwshNiiY1PYdz0sUT7GrGarAxc8HVQcFQMsampxMfFEq7eS8gWQgjxfiRkX1buqOvCbmyj7NgZClUAHvnAHUyKDyb843x97zDS1ei+vdtm/HIT0doH6HZf9FXXSVNbGOljowmJaKfwVD5bNp9G71BbvcipU3f48PP19QQFd3OIITzSl+CLjNnVaHUEqNDirXHfbcMtGB+fCOLiPeOCP5NCCQoJJMJ9WlLVk011FJyDVxL+h1Tgixl5BYu/8HP+/vRf+NkXV3BFtovuA8/y5E8f5Ct/3MaZdjNm91WRH5n7Yr0BTJ3V7HrjOD7jJ5I3ZwK5Fz0LPERt7ePw9sYrPJxw1Uk5/3sA9xMxc2etIM1QyPH1z/DIc1s5eKaO2hbIHplNemaiZ85Pgk7F7mCCAlVAP1cvPr5oYmOJVw36XDR/l4hIhiUnM959axEhhBDiIiRkX3YO2ve+xpn+IAyzv8pXpgQR8mF3mrhQXyntFXt5ZWcnu357F1+8fuHghV3u14IrruKuv5zkVL0ZS0UpTQf3s9cA8hDIDxJNqHvogOoouMN1fVMLJvMQDHrx8kUXlMG0237GL//yK/7vttmMtdXQuOlRXjjaTV3vxzkoTgbaaqhe+zjHR36VOTMnMz3lw4a0DEFbGwo6X/zz7uGbP3qQry4Ox//IH/nqdddw+3f/wWvH6mk1/xcdmk9CQAARqjOREOoekS2EEEK8PwnZl437TKSZzsMvsL09Et+MmayenkF0wHn3av5IHLSWnqKkqArT8t/wm0ce4S+PPcIj6s/B16Pq/b+e5Ps3TmJyZC3NNft5YWMtBpPcNfvi/EnJHE7elDwC7A5qDx+jrrOLj/WAbksH1vr1vLG/i4ZOzy1WvDR4aX0ICIshLnM2V626iluvGY13fy0FpS309H/UezY6MNYep/zkQTawhBVzx5GXEkbQu6+IPM9QtbWh4aXqQeMfTuzwacy77gs88J0f8vNvryKvdwOv/vZ3PP7yPo5fMO75Uy14AqNGjmT+hPc9zy2EEEIMkpB9WTixG9rpLHiLTSVOdAljGDsqi9wYv8ED8LFij6mC4tPNFFTHMv+um1i5+mpWrVp1wesabr1pMbNGR6Nrq+TQmh2U9JgHh42I96MjLGMSI2cvZ3G6A3vperYfLKKg3njxcdMu9Ym9g8rSWuobu7E6zNh6y9i+4RBlDd0YL1hQ4x1BfHIK2dmxeLusWCz2wfs1fzD35+6AfZiTZyrJ74th5NSZTBwWTkSAe5jD+xnCtvZxucckOZxqj12De36Ow2aj6tABGvrt+KWOZfzspay89jpuuXYkIS3HKTl6GtWk/zuqYFqNdvBPl9oP9+E5x+m+n/z5E/5bughCQkKICZe/PoUQQlyc/CtxyTmx9NTTULSPzVv2csqYSGx4AKGuXlqammhqbKSpppgTBRVUNfVwsXOb7pDgtPfReGor+ws6KLWPZdX0eIL9Lgxb7nd+pE2awejRuSRZOmg78DrrDqn1d5kGnwzoco857u2h1+mgV9+PwXh2+mAycfSi19sw9anQaOinx6JCkwotToMB84CZXrVsf3cXA3bH4INWcJqwWfvp7nHh6FfLmi2YP3VPpFGhS5XNotdjVvtvs1mwmw30q7I5PYPVdVHZpE66krtumMkEn9Mc3byeV9fuYf/pWtr6LVhUmdyZ2OWwYTV20Vl7hqPHCimpbaPb6H4kuaoKm5XaPa+xbfseDpY00No/gF0t5N62w9xOY20tpdX9EJnL2MwIwoM+aHC0Wk5ty9CQz5E9uzhQ3k+ndwrjYqz0d7bS7G47dZVUlRVz6EQdvRabCrf/XVtz2c1Yzf2qTah66e5W9WPF9DGyqbtdObo66XE66TPoMZrU+tTy7ge/VO16gR37j1LQ0IMJH3zDh6mwPYH0cC+8jAZ6DZ6VXIzThtlkpF8dQ5dLdRhV3VpVGzzX0twXqoaGReHjo6ezvYXaqk70xh7aKk5TXt9Ju+ph2u12+vpUufRGrKoNmM0m1db71HHtVu3XjtXiXps6zuo4DvT0YlAdhj61PZOa72w1uD8foK3kIIe2bmPr3jPUD6i+1rmdEEIIIc4jIfsSc9pMtJ3Zwu71z/GbPYHEU0vdmf3s2LaNbYOvLWx7/Z88+o832Xi09iJDFNQ/8S4Lxo4itj//OtvPVNMcE0GkUa+CgzsEe2ZzGzybqAKELpyg4BASg3qxdO7iuX9sYL8KY+0qYLgfT915upgKq43K2kpqa+po7VNB22HC0F1ARXUPrVUd6BsqONWggrPJRF9lNfUtbZQZ+6kuPEFdWx96FbrNxgbam8s4XerAWl9OdX0rDb0qAH2McHZpqc6AfQBjdweNpVW0qvIbVUg2ttZS3KDqQW/FpuoQfAlLHs2CbzzE3bPTCSt7hVef+AM/f3wd+4oaaGh3B7FeenraaKstpGDby/z5X6exhkeTmBl/9m4aLhveqq7XPP08T7+yi8MVTbR3q2V6u2ivOcTWTdt5ZUcHgRPu4Jb5iaRFX3xMtctpx2Zsp3zzH3licz0lDQYiTQXsfLvdqNcGtY8vPMsvn9hHrQqdA/9FW7NbjBg6a2hRx7Ck3oGtqJCKhiZq9Gq9H+EBQ+6nPVq62mk/VUi5Cuc19dU01DfQ5n7qpQrIdG3njVc28MaWU1S0qiDuPh75KqSag3BFRBF7/h32zneuPetbqa1roLymCaejndpy1YlpUYHZZBlsa+47wqRmjSQ8rJ2KwiNsXndczXuGY28+y6ZD5ZR2qPZpsaiOScXgmPuenmYaVKejsqYGh6OIwlOttLQPqODtrocW6k+VUK9+PyqqK6mvb6R3sBLcv2jdnHz5t/zm69/k/37+Anv7Bh/OKYQQQryHl8v93aq4ZFq3PsTf/vkC/9haTafFm+AA7/eOi3X4MflLj3DPTUtZnuv/PrcE68bct5ffX/kjXj1TQbnVC5dPLMlJk7n7H3/ixrGxDDt3f2AVSGh6lV88+CQvb8qnut+AyeGFxj+M8NAF3HBtCrlZLfzmV2/R0anHog0iOGQSk6dP4ys/j+SFe5/gSEkNzUYVTr2jiU2ZwP0PDGPXm3s4cbiMPpMDp180cRHL+eovM7FW5rPlH9s43dmNQZUjKHIMi7/wFW794i2sTPDs0yeqisrDm3j0xt+wzdyrOgAmzDYNOr9AwuLj8F/0I/7xpQVcMTrGnWzV/60YupqpPLqZbVu2setIMVUdZqwu1R/VBRIcl0LayInMXXgNSycnkxQbQqCvOqbmBsw1r/PX/LnkJRlxte7n6L7dbNxTTOuAWrVPGJHDJjN25iLuuPUKxiYEE6jTvPPo8wuYm89Q8dp3uO9PhyhqtePSeuPnq333txZObyKzp7Loe0/y/XkhOA/8hsf/w7Z26t+f558vb2DNCSO9nf0MaIIIjQxh0vX/x6o7vsb9Ez0zXkT3sefZ/drf+NpTp2nvMmB1t6vMxcxefit/+NFcKn6xgL/v7VFlUfvjPuOt1eETPoJpq29l9bI5zB4RR9h7HqKjvN2e/81rW4+r0K+n36rFX3VuQgMymH/3F7j+vltYEWfH2X+CNb/9NU+vO8rxnmBiRszhmi/cwyqvTax56zAvVESy8q77uWtpCBWP/4wXX93Etqp++qw6gqJiGHnTr7gqpoqw4n/w6829tKnOoss3lJApN7Hourt5+f7xaoda2fbTL/LYGy3UJK/mN899lznBECCnK4QQQlxAQvYlZm4porKmgep29Q+2Z9p7eROTM5705DjiAt8vdVmw29op2XWGZpPF87AXHRpdKBlTJpIa7s/bIw/cDysx1VN4qprGDhWiPZPPiiIx0Z+QEAslJe2eaW4qSISHkz3Gl9oj1fQN2DxPbVTbUGEpIzuQ1qZu9P3n7rjhThRxav4gHIYeWqs7eOeZNwFEp2eRkjmM5A96yMhlo0ff2Uzp/hIVj1RmOzvxLPcY3rjRTMmOIz7s3J2d3UfJyUBPK63NTbS0ddFtUPXv/jLBS4e3fyBBKuDFJQ4jNcYfXxWUB4+Y3YzD3EK9MYnIAAsOfYtavpmG1t6zZzp1/gSGxRKdkEhmajT+qgo/6BpEu+oQ6OtPcayyH9N5D3Z5Ny1+IdEkjZlMdrgXjvbi/7it9VQdobK+5b0PXknMITE9h2z388M/gKWrhrb6Sk7Unff0I99owlWnZPyYOIxlB6hVnZUeg0O1ZTsOLy+0/tEkZmSSEh8xOMb8fXPqB7bn89qavyqxy0hbZSm19W10mFXHMjCG1NwcUjUtNLd2U2/wISEljeQYHb1lp6lv6qDjvBUGJI8h3teAT3817/71SCQqMZ2Z2e7T7RbaS09R3WLBFJDAqPFZRKrfvQ98GJAQQoj/L0nIFkIIIYQQYojJl5xCCCGEEEIMMQnZQgghhBBCDDEJ2UIIIYQQQgwxCdlCCCGEEEIMMQnZQgghhBBCDDEJ2UIIIYQQQgwxCdlCCCGEEEIMMQnZQgghhBBCDDEJ2UIIIYQQQgwxCdlCCCGEEEIMMQnZQgghhBBCDDEJ2UIIIYQQQgwxCdlCCCGEEEIMMQnZQgghhBBCDDEJ2UIIIYQQQgwxL5fi+Vn8f8mJ3WLA1NdFW3MHHY4o0tLjiA4PwNszhxD/CZfdgsXUS1dbK82GEJKGxRIVNnTtymkzYejtoKtbT8dAKNk58QT56tB5PhdCCCE+SRKyLwsXLqcTpwod5gEbDqd6jxcanTfevn746rzw8lIvz9wfyGnFMqBeVruKxxfQaNH6BBDoq0Gj1veROC30NZ+iaN9bPPf4q7xuWM1Pf3cH18zLJsozy2ebA4fdxoBhAJtnyrt4+6v60qFR9Wqz2rA4ffAP8kGnUXXomUX8B1wOLH0NNJ7Zy4bn/8WTRbP5+s9vZcWcIWhX7r+yXE7MnWWc3PEKGzaf5I2muTz+zN2MTwgleHAep9oFKyaTBafODx8fb/V7JkdUCCHE5SP/6lwWTqw91VRt+DFfXjmX2ZPGM3nGUlbe83P+cqSHbosKBJ45P1T7Dl779X2szMsj74LXjGW3cc/zDXTo7Z6ZP4K+Xiz2PrqceuryGzFY7HyMpT8Daqk5/iTfddfPBfWVN3k6ed98nV0ljVRvf5wnvryKudc/zvY2PX2epcV/yNBEY20BB44cZd/mU9T3Wxl4T6/wP6QCNP1VlFXks3/vMY4eKKNN9aAcno8HDbRiKn6Sr1+1kNt/+ipvFPR6PhBCCCEuDwnZl4Gl8Tile9/g0bdsRE25gnnzRzMsoIu63Wt5+icP8UZJLy1mz8wfJnQs06+5j2987wt8frzKGh1N1A0kk3PFPXztu1/ngTlRhPhrPTN/BAGhhMSkk5qYTnqsHe3/3HftMcRmLuS23/2S798yikRvAy0tLhwR07jxh7/i4TunMTrZi+62BqpOVVB1upZ2qw2rZ+lPFZcB28Bpdu6pp7XtozaYT4hfJDGpIxk1agRZkRY0Gve3N0PES/21FRBHavY4RmTEkxxqxX7Bym2GXjpP7uZQRRl7DhVSWtuK3vOZEEIIcTlIyL7UnK20tOtp6o1l7NyrWHH9Ldx29xe5//alrBjnTf2h9Ww61kRrr8WzwIfwT2DYmJksXraYa2ZlEuinUnHCKEbNXMI1i+cwKzMIf++PcVh9/fALCCMsKIyIUNUg/udaRDDBUcOZtGolK5dPJjcujMDABKKyZrBs9XJWTU4lPizw7HAdnROnjzc+6udPYzU4DF30F25hS3EnLYZP+fcN3oEEhyeTmJjGsETQfYx+34dyD4XyCSE8OoOUpBgSYjzTz+PldKK1DNDvcNBjtWK1qQ6k5zMhhBDicpCQfam5DJi94whMW8idty1i5vgxTJiyhOUrlnDt0uGEONtpbOjDaPw4oUmDj48fsbHRaN3pJTScoOAgIiRFXIR7zLuOwOhoQnx98fUNVBktgthALVqNe+x64Nn6SwhGoxJblFaL79kFPzVc1j76G0s4um4bp3rMKjx6PvhU80WrDVB1e6k6b/74+PoQEOB5ex6dtw9B0TEEqWMZFBZKUFAg7zObEEIIcclIyL7UtJnkjh7FnHmJ+Ki35y5H9PIPwDc0gmjvENISIgnwd386hFwunHYrFrMBfV8vvb3ulwpqBhMmix2n+9qxi35/78RhNWPW951drk8/uIzds5DLpT4fvHOEAYPRhGHAhstpx2rSe7bVr7ZjxuJwz3t2GafDjk2t02Top89owWZX67vYNpwOFSqN9L+932fX2asfwDZ40aiaRW3falLTPJ8bzDas/3Hw9CM8PJL4jGR0GWkkeOvwV/tgtw4wYDSo/VAdJbsTu83CgCpj/+A2VV2arNgcTlU8Bw7bACZVlj73Z6osRrP7s4tW8HlUeVTd2QbOO059qv70Rgwmy2B9OB0WzK1HObXnRX742CFa27vo71f1pubRq3I7HTZ1nNX8/e7tqn22WRlw17Naj8GzHy5VHodVHSu13OA+Dr7OHierKoO72gePrdoXd7ndx8m9fYvNfkHZDBjV8b5weMbZY6yOgWoT75RDP7gOm5r3PTUx2C7c5TZhPNcGVJ32qTKZrWqb7s/P525z7vo3nqt/9eo3nm0z71m54ueHNjmVdJ2O7JgYIsPCPB8IIYQQl4eE7E+Ipb2NrvYB2sfezY3zYhkWM8SDoR16mk9vYP3v7+em2ZOZPH4ck2YsYeXnH+bhl/NpsV9wodj5bE0Ubvwzv/vcYmaMm8iUWXfw09fyKehxDoYdp6WPhoL1vPDQ/dzzjYd44MmD2PpOsf7nd3LbFdOZNvUqVt/3W16qsTM4qkGFxN7Gkxxb/yd+/cXrWfT99ewtLODMxbbRW4N+03e5csGMdy5SnLGMmfc8z7EOFcbVKntPvsaGn698+/N7H9vFrtrBvf+PREbHkpkzgvi0FELUobD31FK49V88/r17ueHK+/jL8VZOHn6Fp390O1fPnMqEKQtY/bNN7KnsUQG0mup9/+THN81m7uTxTF90O9/86yZ2N3+U1G/B0HKaI49/ldsXT2P6xKnMWHg1y+74Dg/85CVVHwa6K1Rd/+kRvv3T1ylUIbT035/n3lWqbm74Dnf/dTd9ZQdY//i3uP+62/j2b//BM3s28/yXrmTRrCu5/y872F1rOnvh7Vs/4evXLmTOlImqzlSbmLWSZV/8C5tr+ukZPE4qqLeVkr/hcR667yru+83rrDlYSO2R53hYlW3eYNnu50dP7eWU8ezev82pp6f2EG/9+h5uXTRVlWMSUxffzV0/fYWjvaqU77noUdWNvoR9T/+Eb960mJmTJjB+4hzm3/wD/ra9hGr9BQs4uqk+8CJPP3gzy6aPY+L4ycxY8Q1+/sJBigyeec7n7Y1XVBTRGg3xYSEEB8p5bCGEEJeX9ieK52dxiQ2eAba0Url/Da+8dkiFwkgWfOFOrhodS6SfFu1HvOveIFMnA1V7eHxLOX3RU5g7ZSxzc903R3Of1jNRvuFvvLD+CLu6UrnilltYuWQek+KN9FTms3dvAUcb/Rg+OolQfx+8vUz0NVdycv06jpjjCA10ERQWR0zmSEanQ8vRQ5xu9SMgJp7h2ZEE2IyYTMXsflGFzJJuWtARq+/DmZJHTm4Mvv31VJ8q43hLOBOmpxLu58JlrqehIp8Nf9/IMe9owgf0+PpFEj58FOOzfWg6vJ/T9Tp8Y+LIHJlIcEAYAfpiys5UUWlOImr8cr7/lauYOCyKYG8tOr8gvFRZB0o20ZJ7P9dcNZdZwyMIudg4D5dKkb2n2LLhKGc6ggnNHsfqFaNxn990j7LR2Fow2R00MZ0lo/3ROc00nNxB/s7NvHnSSniSFrM1iLCEDIanh+Ffe4CDJ4vptxupbVCdjjYNyWOmMjJlgM6SYs7U2ejQxqrQnTT4DcbFerO2uoOc3vsWP9vsZMa1N7FixRLmjwoh0tXLwTOBzF2WR3xkJDFJYcREaOjaW4l2yde5944buH3lTGaOiCPEZaNi6xNsOtRCXZ8Np1OlWq9+Cg6doitqAllhevyr3+Knf9iGfsKdrFy9imvnppAR2Mmxzbs5QTajUqNJCtXiMLRiqNvHM8/uoNYWhNWuUf0qP5LHTlRtwUZL4RkKG+10ecczb2zsYN150UX5zld586kX+VdFLHOuv5kVy+YxOdaCtvk4G4+10ek7hSVLxzNqmGo/9n4sXcd59hcvUOqTSfrsJSxfOIWZOVoa9u/geGEv5sBI4rPUcde5w3Ybx597jOfWnuCwJZur7riDq5dMZ6RPHU3lBRysdGEJm8KN144jMdjv7FAfLws2RxOH/r0L57iVjJ44ktwoOacghBDi8pF/dS4XWz+2tsOs/+eT/OvJZ3jxrb3sPllBW205dV0WTO7v1IeAy/2Vfd1+dm7ey8kmb4LzrmDJ8hWsWHk1q6+7lisnxpMykM/W119i46kO2t5zuz9v/IJjScqZwKT5y1l5zQ0syLFiKiuisrKZdvf4Zp0fITGJhPpp8Fbbc3m5A3g6w6csYOGK67hyZjbD/Zop3nGCOrMVs5cOv5AIwiJVQFYdAKfNiS4omgS1jYkL3Nu4nkW5DszlxYPb6PANwjt5MkuvuZGlk9JIDwkgMDCGEVMyCfPzHnzYiG94OKFJ2SQG5rFIhcbpYxKJDz5bgv+EV2g6sVlTuHp8OIG+aht+YYQHBxLu78Jgd+Gl3keljGLs9EVcuWoZ168cS1RHISVl7bRZw0lWoX364pWsuv42rhgThH97GcVHS1Ro/4BvDJSBjlqaqko5YkpTdXEly1aqY7ViGYvnTmNykg++qrDakFQyx41n2vQRJGt1hGfNZMbCZayaN4nZIxLxD48lIUSDRmPHqg0mKH4ME6+8mbu/cA/Xzc4hw7eDjuoS9hVpiJ+2SB2jlVx9zXKWzBtLtrOSgsPF1Hf2M6DxxicomKg0FYRN7ocUeeGtwm5C+hgmLVL7dd3VzMrU4myp4PSpOvrV/rsjsLn2GEd37mXbiT5Cpi1j4bJVrFx1NVevms+CmcOJU037/MsFrPoOWo6vZ2ujD4HDJjJn4VJV7tWsWr2alWN06Ct2sedAPkdqzIPt2VC6na2bjlDcF0rC7GUsX3l2/atXzWTy8ATVIfGs+HyqLBrVmYtUbS4mWrWfALlgQQghxOUlIftycZix95ZxdPcRTtfoMdt7sLbu55nf/oGnNhZS3mHkI95f5AO4Bp+y13HoBbYc6sESm6cCz3SGBevw9vYlbPhCFi69ghtmhkL1Fl7bUUlNuwq9nqUHm4NvHLmTpjFx/EiykxKJTZvB9HHhRDkMGPsN9Gi0ePkEEhyZTlJ8EOHhoYTFjWD2igWMGRZDXMJocnIyGZ/pg6ujl36nA5vOVwX3OKJikklL0KgAm8SoadOZNHkkWQkJhCdOYcYE91f77jG3ZvRqPzS6ACLHXc2yxZOYGmNgoOIUuyr1qjNy9p7idn3N4G33zjiWs3RaKqlRfv9dYw7OUOFyCleOVx0GFbJ9A8OIiYshMS4CjdaHyFELmTZpDGMzkklOy2bKqkWMCPQBXQoZoydz1aLxZCZGkDRiMZPHxDPMp5eB5vbBkH1hN+Z8TlWf7h33t/fS3thIR+8AznBVL5MWc8fyNGICvD/grhg+6HyCCYuOZlhqrAqS3oQPG8XIBTezbMmtfOPnv+bB2+cyMzeZoLhcJs9dwuyREYS4emhXx6a1z0mQ6kQ4OzrpH1B1r46TT1gkodnppHl74x8yjOwxE1kwazSpMRHEZM4iLyeapAAz1n69Ok6qvTFA8+FNHDjeRKX/JG65ezEj4oII9AkgImcaY+dfxfJMCHz7MY82jJ2NnNm4liLfCGyGVloLD3Pg4AmOllkIigrB11VDaXkJBwracdj6qNn8IjtLVNPMncmqq8+15yDiJi1lxrTxzEr2rPpdfFWnI5mE5HRSUgMJU01eCCGEuJwkZF8ufrEE5NzJw6++wZp1/+Iv37+DmyZGoG05wL9/8xy7i+rpfM+41Y/Lhd1uovDwQZo7/QiKUIEoyfPRIC1RGdkMnzyJNPsAxccLaOnqfeee0O7hKlrt4NMiz41c0Wg0xMWl4O9/kTGtvn5oAwMGn7J3rjEFh4QRFRXneXcB9+3XgoPx16kg65nk3kZsXCJ+/v6eKW7uPQgib8lVKtxG4996kOeeL6Sj34rD5aC/5DR1xaeoXbSUnKAAwi5ZS3bvh0ZVi/sOJWen4OuLV3wCCVodQaocOlVnZ4OwewadCuXuWwCqroDd8aEP9glNHU7m8HRGlT3JQw//g2e3naakqX/w/uWjrlxKaoD/x7grhr86HH7vOWvrkzabSbf+iDWvfIdlsTbMRdtY9/c/8qc/PMGaWrjYjW3cx9zPz9dTNncFxxKhOjMhbwdWd4NtpuB4EZUdXvin5jAmWm3v7c2HquVjVKdE1crblxzoMfQ3cupwJS3rf85PvnIbq1atGnytvv5m7nuykMoeLVbLAO3tddht9RzYodop0cSqTl9WuGc1g6IJVZ28uHjP23fxwUuTQHxyBmkSsoUQQnwCJGRfdjp8w4cz/ur7uee73+eH81UA6D5GaW0nDf/1Q+ksOJ3NNNQOYDReJLFHRBCQoMKKy4muo2vwDKb7QsKL81IBUzt4H+lPRMwMJk6ewBUZvVS99Dgba/tpsTRRUtRHRVEEN12XTVDQ26dJP3vCRpO98Ev87eXHeCC3lkOP3sftN97F7T96hp2NVswfltI/Eie2/lqadvyar1y7mq/95RA1qVex4oGvcUe26vP8x9XnbmN1tNQZ6epQf5VoVWdETfngluK+G4sTpzaQ9Due4B/rDnDq1Kn3vI6/+Cv+dkcmTkcNtWU2jAbNYBt8d/fhg6hOkdaH4LQUIlUnUC57FEIIcblJyL6s3PHDa3D4gXvcc0p6LkvnjydAp8HhcPKR7vj2PqIjwgkNDlI/ucNwEEHBXuh0DXR1d9DYeHaet7kDs84bH40G74Q4IgL8CfR8dFGfUL4epAslY9J05iydTFrXXl597QinN6/jRI+F4qTpLI7zwf9jXTH6KaP1xTc0gdS8uSy/50G+96Nvc9+CGCLLX+Thr3+LJw+1U9f/333FYarax7FX/8LXH85Hu/h+br33Lm67ahoTs+II91F/CfxX1acCs9o9l9WG0z3kZHDKh3Oqxt7absA7JIL4tDTS3vXyw2rooaa41T3n2dtNDlix2+wfY0iVCuTePuSuWM6IpCTclwQLIYQQl5OE7E+MFm9vP8KjwvBOyiEpKoSo80dLfAxR4WGEBrlDtk5l6FCyRgwjLNRIY0MdhUXtgxfevZ3fDQas3b20awPIysshJjzkU/fglXfTEZw4iqwJs1iQ2U/1jjd4/eXtFOm1hI3LI8k9LPoznLHNzfW0l5dSpYkkesR0Zi1aztWrFzBvXCS2o2+y+3QL7f02z9z/iQE6qk5yYu9edtZHMWreAubMHMfotGgiA3T/Zf/J/ddHPNHxAYT5dWPqqKei3fHe+4O731pVSFZp3DH4AJkQYmK0GIt3cvBkGaWtRs/Foe4ZnVjqC6mvb6DcEIhGk0Biqg8BziY6O9qp736fCO++p7b7qY7ue3V7Jrl5qY5kSEICIf7+n/I2LoQQ4n+RhOxLzdhKY3khR48WUFjdQd+A+4ErTuzmbrraGjlZZSVpxgLGZ8WTdNHvtM8+kKSnKp8TR45wsqyRJoMTm82uEmY0KYnRxES6F9ag1QUzYvZictOCMdQUcHjnPopbTQzYnGodZrWOSmrO1NCQMJ4ls0aQFB2ES63bZjGgN6ot2Wxnw9BgTnJ/tW9D329U29JjsVgwmdQH7lBjN2Iy27HoB7Cr4N6n0s3ZB5qoaQNmDEaD2ms9/XoVutx3TlHbsFuN6NXyrr5+jFYbA4Pzq204rej1JjWfgQHL+wx18U8mOmMKV189nMiajazb1UQXUcyZmPwRhie4qW2q7VhNRizuh+DYrWp3zGof3GdJ3TvxftwPn7ENltl9fxDbefO61DqcfX30q3oymE2YB84+cGWwXpwDKu+5j41Dze9+AI+7Di+2DdU8ak5Ttmcdr+bX0dKv1qMNIXH0BCbMmcJIn166u/Rq/e+MGXGvy9jVqeqrm9aOLppbu9Xxsqo6U/Vrd2/bgtn9gBr3vINLWOnuaKWhoRVbSATBOgdeqp5721poaWyifUCVTpXTZuyir19Pt16VTa9Hr+pLr+rLbB44r2x6dfztDBjUtsxG+q1eqoxp5E7IIjNZtbG6o2zacoaqNiNGVX6HVc+AsZuOXtWeetrp6umhy6A6goHJjJ4xgsT23Wxbv46X39zDwfxCikvLKC44zKHdBTT3WfFPGYbWO4sJ8zJJDGqi7nQ+uw9U0KA+s7nb6ECPqgcDPT0WnD0ttPX00muyYVXV5bKp9tRZzvG9u9h/ulaFc/c5diGEEOLykZB9qTXs4PXHfsjdd36db/9lM4cqm2jt6aKt+iBH9m3hkW0hXHvjAiZkxH7AsA0VWCydnP7Xl/jKbbfypYee46VTXWo9VnwSljBzYjq5KWefGOnl7UPAjJtZNm0040z5lG94gofWF1Pe1EVHe7kKMPvYerCV4JXf5KYpEaSGqNDUU0drbSln6lUQVWGos1OFO4MZs9WEvruBU6cr6ektoaW5lrKSHowDanrzaSrremkrbaS/5AxHOlSgtlkx9bdSW1NHaVW1Cn1FFJ5spa3dgKGngY6Gcs7U2LGePklpfTM1g9tQ4b6jllNFtfT0l9LcWEtxUS8qK50N7YM0BMelMP7We5kT7SQoaTLDMkYy7V0XdV6MqjsVPo3dHTQUVdDcr/bF0ImhuYrC+m469Sqw2c8P9e6NOrCa+2hva6OxtQOnU/3c0kFv3wADAwNYVGhtO3KcMyqAV9RUUFdTS0uvCavDpMpZRWOzXpXFpDobnTSrbRjMKrBf0G94m6uJxspd/PnH/2LHySpq29U+1VbQVF5GiSWS+LgoAgefBuq+RZ8Ob52T+oO7OVWwn017D7Bx6xE6Ouooqmih39BKZ2sjVernblWBzsEKDCAwJJSokAFcVet4ccNxjhw/zfHtW9m+bguH3A+K6e+kveoIBcWlHC/qovPkaUotVsqqyqiqqvGUzYih6wSlFd00l7fRr9pLfr3qaFh9yV14JdNVaI7oOskrP/sh/95eSFFDB92tJTRUnuRQiWpXbWeoLC3iTLXqIASkMuG2b7JseADWvX/h0Qcf4NZ7/48f/+qX/Oz/vsiDWx10+GawdLj77ilhTLnhVqaNjKT38Hpe+uOjPHu4joYO1UltOkFZeS2FFapD13aSgsJSyhpU6DapajU00X/4D3zl9hu45aevsuZ4+2B1CyGEEJeLPIzmUtNZ6Kgpof7EXvbt3crGV5/lxZc3saPUiSV5Hg989y7mZkcRFaBBe9GLC9V0pxfa3iKOny7lxIEDHNx3ggPGPO7+wRdZNSWD1ECd52E27v8EkTRqDOmJgQR1nmbXy//g2af/ybOvHqLUmU3W8rv53l0zyAj3w7djG6889jd+9cs1HNWbGDDWcHrPCRpVqG9RofeN6+/niVMqOPcbaa3Mp+LkDuq9zPz7679j84kqGoztdNedYfe6o7gm+rD7Jw/xzBNvsLFej2mgm6r962ixtbP99a28+NhrHFXh813b0Jfxxg0P8MTJFrUNA21V+VQVl9A57DrGx4H/uYvyNL7qFY2tdB1BC25n6uxZjI/2/gi9xBqqj77CLxffw8/fPM7Jhl4GrD30tRSwd+2rPFMdw+hhcWTEnuviuNNwE1t//U0e++vzvFjQi9HcQ83B9ZzQx2NvPETr5t9w00O7qOoyYO4sp3h/Ofn5tUSNLuFXNz7IcypkFnf30NNRRP5b62iOX0l6XAhvb+I8psYz1BYdZsexExxZ+xTPPvkE/3zpAAdaohl3/8/5xspchsf44q0JwtuhIcKVz86DxzlR6SAsM5SU6CZeuv5rPH68gepeM931Zyg4cZy17amsVBUYogJ6SHQgwaF+tO3by+GDu9hTYsYncwYz501ijGkPh4o7MCXPZkxwN8FFT3H1g2uo6NQz0FVJ6cGKd8p20095ZW8JlX3d9LRVk7/pNNqJc0lJzmFcVhIjUzS0Fu5gz5trWPPaDo50hjIQmsxo83Yqw2YzdtY8FZaHkRUbgm9gMmOmqmBOP/3NNdTU1lCljo3XiLu4956VrJieTpSv+xoDLZqQTEZmxxCuaaOpYAcbXnqRl1/bS6luJEGaPuJopD56HrMXzGVKZjTxoapdWHoYqD/Ky5tL0OYuZtaUPCakfOjVB0IIIcSQ8XJ90HfZ4r9n66apopTKspqzT+NTk7Q+QQRFJRGXnKrCQ7wKCio/fsiYB5fDjrnpBCfO1NHQacamDSIwOo28SbkkhPi99+I/p5leFV4aq6ooa+gavE2bl08oYQlpJKelMjwlAl+1iMZUR1lhKUWlLYMPFzkrmPicZGKifenfd5IGNeXcgAX/EPVZdjr9hSX0W6ye2/+pgO8dTu784dhPlw2e9e0enH5WXHYGWpMJfeNH3EZYHCkTlzBOhWy/c7d+c/Rh7j7BH+9/nohb72Xm/MmMCv6QShvUR29rLQWb372NQRq18uTJzB+TRMrgcBs396+DgbqjBymtaaHFfHaqW3DGVLLCrATqK9lX/k5JUFExLCqasVP9KNtZQrfpXL24N+GjNrGCMUlBvL2J8wy0V9JSW8bxeiP2AXVcHS5cmgACI+JJGTWWUQlBqqOhUV0n1+CQjt7KI+wrUh0Fv3jScuKIDbbRuOOCsvmH4ZMykRWqAoPcFWjvo6+9nsJDBdQZVflCU0gfnsWwKA22yv0crlWLpI0hN9qFv6GOrSebPStyu1jZ3Mc8Uh3zOWRFBRBsV/um6vn0mTKae2w4tMFEpGYTFx1EWPshSgZSiR+mOoMJEUQEeKu/eJy4LF3UlxZTVdtCq96KXeNHWPJYxo5IJkFVls95h9ehb6a+uoKK6kba+lRJfcKIyxlLnK4Tr556Ku2pZOVmkhKlfrfc9xC09GNpL2anKpw9IY+crDSyY/w8axNCCCEuPQnZ4jPB3l9N58l/8Z0Xcrju3nnMnphIiOczIYQQQohPGwnZ4lPo7EWaneVnaOjzwumtw0tfT/3uV9g1/IfcPSedcQlyvwghhBBCfHpJyBafQgNYDNWs+/Jqfr/XhSEyisTUJPTOOfz60VtUwA4lWC7ZFUIIIcSnmEQV8SmkQ6MJIiImFB9nN93GYHxSF/LDh25hbEwwgR9lKLYQQgghxCdIzmSLTyEnTruZttO7OVXdT582iqiUDMaOSifCB89dVIQQQgghPr0kZAshhBBCCDHEZLiIEEIIIYQQQ0xCthBCCCGEEENMQrYQQgghhBBDTEK2EEIIIYQQQ0xCthBCCCGEEENMQrYQQgghhBBDTEK2EEIIIYQQQ0xCthBCCCGEEENMQrYQQgghhBBDTEK2EEIIIYQQQ0weqy7+A+4m48IxYKC/u4OObiNdjnByc+IJ8tWhOzvT/yaXGXN/F40ltXT4p5I+LJqoEL//7TILIYQQ4mOTkP1Jcdlx2GyYzVa8/ILx9dagu+j3Ci5cLgdWoxGLw4XzA4+YF15aLd7ePuqlAq9Wo6YMscEmY8XYcJKDb73Cmi3FbDQs5pln7mZCQijBZ+f6dHDasdutmExWnJ5J59P4BuLvo8Pby/HR5qOWykPreeT2n7Am6wf8+qfXcfXUlE9XmYUQQgjxiZOQ/UkxFFF2aBN/+MU6Ir/6MrfNSiA32vPZewxgMVax7rtf5+VT7VTpPZMvpPVG4x9BTGoWU+avZsmc8UzMDFPBcIipwI+5kbr6SnY99xTr1+ezK/xe1rx4N5M+bSG79yTF+zfwkx+soUa9tZ2dOkirgnPaTX/ku1ePYlJo2UebL6lNQrYQQgghPpT2J4rnZ3G5OLoo37uWt55+iuf2VBAw616mqDCc8AFJzctLh7dfOLHRdnrqKik40kBjfwZXfPVmlsyfw9ypk5g0LpcRcX70Fe8mPz+f/FoTHc4IxmRHDg5nGLoz2mpNXho0vqGYG07RXFPECecUbrx2HInBfvh65vp00OCl9jMkOp4Y4wnyz1RQ1BmIf8pUbrnneuZOymNUYjDBfrrB+UKjE0iyneF4YTlnOgLwS57CzXddw7zJ5+bzQecXRXzOBKbNncHUEfFEBvqg9WxNCCGEEMJNQvZl5f7SwEZbwTaOHNjH3tP1VDboSV7yBWZmf1DIVoFWG0BU+kiyszQYKispO9RBT+BM7v3Tl1mtwt6svLGMHTWCkemJRPj1Up9/gPxTNdSa/MmcNJWEAPAeqstcvVTI1vri6xfMQMNh6isKOGD6lIZsXRABEUkMH5VDliWf3acbqNKNInfBTTz0zeuZkBRMqJ+KyJ75skfnMNyvimMnaqgml8z5N/Krb17HxOSQs/N5qXIHRZM0YjSjMmKIkIAthBBCiPchdxe5jFxOB/buMvL35dNo8SFy3DgS1PSPc9GcLjKS0OAQIj3v36FVuTeUkNQ8Ft/9Va6dPYIsWxG1xzfzRoEJo/X9Rhr//0J1UjTexMXF4ufvB6r+fKKiSPBW9fmu0/vuzowvkdmZxAcHE6Lm841WgdpXq+Yb8pHtQgghhPgfJiH7MnI5LBiOP8VOyxhChs/jhjGBnk+GkJf7rGwGObmJJCVrMRq7KSprwmZzeGYQH0qjRaNCtcRqIYQQQvynJGRfLgOtmCtf5WevhJMzIoc5E2Mu0TAD9xnrDhrq2uhoG8DfP5CM1AR0Os/W1H60FKzj8a+s4qrZE5k0Po8JU+ex6OZv8f21NbQbbYNrsBvbaCvZwYbHv8N9V83hG3/byDMvPMfz317JrCkLufXPhzlWb3znThzuiyH1xex44ts8cPUcpk2cwYzF9/C9185Q3G7mfyLiOwboqT7CoVd/w4+/eB0LvreOvSUdng+FEEIIId4hIftycPbT1VzLjjVlxM9fwPixaSSFeP+XZ0pd7jtV41Dp9ez9YZw47CYMXdWcfOkx1uwu4Ywtl8QRC1k52Z9AX/fW9NQc2chbTz3DU8WRTLj2Hu750ue5dkocMc27WPPnv7Oxsp+2AQs2O5j7TAxU7mHvsWMc2ryBg6fLyO+2Yag5zt6jZTR3GzzhWc0/UMPuF9dQ0OyFd2wCyaEmmo+9xWt//AGPrTnMoRrT4JyfaRYLTi8DfcYmCt7ax/HKDnpMqqKEEEIIIS4gIfuSs9JddYrSo8c4pRnPrHmjyYwLxf+/Hotgwm45zY5//51/PPIIjzzyKI8++ih/+tOf+csTL3CgP4nUuTdz8/VXMSNJg9/g4GM9rRWFnM4vpy56Llddcwu333EXd109k/npTmqPrOdQlYkukxcan0CCQyIYFqFDb3didHgTmjyWiUtv4d77P88ts4aRHO57tqPgvnG31YErOImsyYtZdsNdfO6em7lrVSbeRdvZ+sYu9hU20u2e99Ogo4zGA6+qOnPX2wUvVX+PPLWTE/VdGD2zv02rwy88lNDIEHS9qoOhyi33vxRCCCHE+5GQfYnZ++uoOHmKgvIeYpZdzYiIQEKG5PGAFuy2Bk5v38SWdWtZu3Yt69Zt4K2NuzlY2YU5JIPs3AzGpgVgNTpxeZ5gExCVSlreTBYtGEeqrw1zWyO9/WasOp3Kys10djmwWHzw9Q8iMiaCjLRkdN46/DOnMm7mcm5Wwfz+n/yGh+6dzfjUsLMXbbq80ekSmHjtHSxdMp8F867gitV38rXv3MsVWWr7Z45SUlxOtWVwFz55fU10Fu8drLP3vNatZ+22Aqo69KqGL+AbSGBYDDGRscSHq8wtvz1CCCGEuAiJCZeYuWQLZ/oDqM+8jc+N0RE8OGxjKETgH7SCb720ljW7d7N79w62b1nH6//+Iz+6cTwxtWt46sff5P5vPcob9Q6Mg6MaEhi76mt8409/4+m7cwi313F83WP8+g9/45fPHR9c68UEBPjj63uRm/NptXgFBhN83lMrvXwj8UtayhXTAojXVNPW0kpV59nPPnGZ88m79zFVZ+56u+C1Yyu7n/86101IUzX8fgLw9gklIlr98si9+4QQQghxERKyLxn3JYGNHNqyi81//Rn/fvAqJublMU698tyveXdxyw/WUGzWs/lnV3LzomXc9/BrbGw9u/THp0XnG0ZExkQWf+2vPPzVlVydZ6OhaC+P/eBpTvboGXxQpL2TtpKNPP311ay++9esaR7OrFW38H93TBtcy9DxQqvxIXVYBoFB/jicDvXyfCSEEEII8T9OQvYl5Uv0iDnMumI51y6bx8wZM5hx7jV5NGOy4gjS6IjKnMDYSeMYOSyWKB/Poh+bF15qXd7+QYQnZDF+zlTGZicQ1ttF07FSGgdsmB2NFG59mecfe4GXukaz4NobuHblFcyfOJzh8UP9YHCvwfHKFssATq8IQkJCiX7/U8NCCCGEEP9zJGRfMu5hISGkTb2SK2+9l3vvveB123KunptDtM6HjFk3cfUtN3LljFwyg84u/Z9zb1eDj7cPOp3u7K1HHA6c7ruRdBVTsG8bb+0rxzTiOpavvJK5E7NIiwrA/TDDIeWy4rS1UVXViS0ynZTUZDIvwW3BLwmXqi1Vb+9/UaN7unPwWk8hhBBCiIuRkH3JuMOuL+FJmWSO8gwROf81Kovs1Ej8tVrCk0eQPXIkmUlRRHzImWyneQCL1cKA5/35XCocOmwm9C3lFBw+RVFVG/rgUOLyhhPv44NfVzNt7e00mL2ICAvC5bBj7m2lpbWNhjaDOz9is5jo7epBbzBiUZ8b1J/uiyYHBrergrNnW+/iVNONLTS29NJvsmF32rDom2k8s4O9FYFET5rM+DEqaHtmv/xUMFZ1YzSZsNvtoOrPYTZjUIV5d1h2z+fA2tuHwabK4JnPfXcV59n7JKo6G8A2oKevX0Xt/n5Mar4BCdxCCCGEuICE7M8Ye2sLXd3dNHven8/lsGLtr6dy8yP8+m9rWXuwk5DkbBbdfwN5oYGEhgQTFBCAV3sr+157jvyqBspObeGtTVt4eWfVYBDVd9epgJ5PWWUtnWY9NdW12Gx22lrObvd97wo90Im1agOvvXWaM/V6TNZ+uquOsvF3v+Y12xIWLZ/Hkknxl+jhOx+FCsTOAepq6zAaTNDTjbmpiRqrqk/PHGepkK1CdHdxOQ19enrVfKbGBirNDmyeIO00t6PvqKG0Wk0rLaO+p58OeZimEEIIIS7g5XJ/Ly4uv879HN/0DF/44itk/fEU31qWxoR4z2fvMYDFWMW6736dl46Wc7Sqk44uC3ZNKAnD4wn10Z69lZ47JDrteHl54fBNZ/QcFXCXLWDhuAzig9Q89m4qtj3F+uef5pdbOglLymXqqjtYMcGHoIbt/PLB52kY/SW+9M1FpHcfoui1F3jxZAO1nRY0IfFED1/CnCuv4aEfXUmC2pp7mwNdZdSc3M6ap15iR5mBbqsLjW8IoXEZZE9axLIl05k4PI7oYD+8h+rGKh9H70mK97/Jj7//CqWd9dR2GTE4/PEPiSAtI5mcm//Ig1ePYlJomWe+V6nsbaKqXY/e7nt2vvQkcm55hAezTnN8zzoeefUILbWdGHwiiEtayo3fuovbvjifcZ5NCiGEEEJIyP6kDLTR2VTFoUO1hExewaikICIDPJ+9hx2HrZeKPTspbTfRa/VMfl9e6PwC8A+KITE9g9TUeOIDz51DdmJur6K5uoQjFT3YvAKJzc4jJyWAIEsz+ftL6A5MZ8T4NAINDbSXllLe71nUzT+eqOQsZk9Pxz10fPBrEKcFc38HTWVnqGjsodtkVXvri19oDPEZoxiTEUmwrxbtJxGw3Tz1fGBfOX3q7fnDXby03oTmzmdKVhTxvt0fPl94O22NdZyqOf+xOnEMy8slJy+VWM8UIYQQQggJ2UIIIYQQQgwxGZMthBBCCCHEEJOQLYQQQgghxBCTkC2EEEIIIcQQk5AthBBCCCHEEJOQLYQQQgghxBCTkC2EEEIIIcQQk5AthBBCCCHEEJOQLYQQQgghxBCTkC2EEEIIIcQQk5AthBBCCCHEEJOQLYQQQgghxBCTkC2EEEIIIcQQk5AthBBCCCHEEJOQLYQQQgghxBCTkC2EEEIIIcQQ83Ipnp+FGGLupuXCPmDA0NdLr96CwRVKalokAd5atGdn+oxz4rAOMGDso6erj15HKHEJ4YQF+6HzzPFZZde30t7ZR5/Nl/DENKL8QXeZuuUupx271YSxt4fOLghOiiY0NAA/z+dCCCHEp52cyRaXmI2++sNs/9ePefCeu1n0uec53mHA5Pn0s8+Osb2Iwi2P8/B917Dolj+z5ng9vZ5PP8t6Dz/Bn755C6tu+y6Pnwa91fPBZeC09dBde5Ctj/+Aexb/kH/vK6HW85kQQgjxWSAh+zJyWow0vvJl7rtmFnl5eZ7XOPWazZf+vod9jQ7PnBcawGIs4pUvX8E1s84t92Gve/nu4zs56VnDJ8L9JYm+H5uPhe7uXlor2jG7J5/99PLoPUnxhp9zvaqTSefXz4JrmfXLXTT37OKFr9/GDed/Nvhaxn0Pv8bGVs96lMIXvs53bzj3+QT1uoYfPLmNw6psnQ49dfmNGCx2LnYU/xud+a/wxs9uYfai7/BMURctFs8H/5M6aa2t4MTOYxzauZWSHjOGtyvVidNuoqfwFR7/7m1cO2+qOq4TGD9hNvNu/iYPrzlOYeuAZ14hhBDik6P9ieL5WVxKjj4sPUd58R87KGmz4PTxw89PvfwD8Ysaw4xFMxmXHUukr5dngXfz8tLh7RdObLSdnrpKCo400NifwRVfvZkl8+cwd+pUpk6dwpTJ4xmf7kNPmZmgtFTSp48g9ZPsSnlp0PjaaS8+RdWZaiqCpnDjteNIDPbD1zPLpaUKr/XGz8dM/bE9FFXWY4oaR/bcG7lzSR5jkyMI8AvCz9mFsaWIXSdqabFmM+vqq1h65QzyUqII9/GsSavD397LQEcLW8rDWHjbDSyaM54RKUF4G9qp3LqVM/5TWLBkPKOGRRJwdrEh0XrqTQ5vfJUXDrvIWbmcEbHBRHj267/htNnoO3SIWtUWbYGBBHumu2n8Q4lOH8fE6TOZNjqNhKDLN1xEo/HHy9pPf9Gb7KwaxvjVsxibk0CksQ1jyVp+/bdTGONzGTV9BjPGZ5Ob4KD2wB4KChvp84kgNG0YiUN5AIQQQoiPSc5kXxYuLP1dtJw4QF3EdKZedTN33HHHO687b2bR2GSSgt8/YKtoo3JiFDkLr2fVzVcxL08FCPzx9hnO9Gtv5IY77+TO8153qNetS7MZHueDyehZxSfBS5XHx5+AoCgiQoMIUyHtsvOLJSpjGituu4VrZ6aRGO6LT2w2w8bN5eZpKQT5pTBi3lWsuONaVi+dTLa/Fm/fTMYtnM/0KcNJD/SsR4keMY/pKnAunppD0vTruP6WFcwak05aZBSRoVFER7iDuGfmIeZyOnE6HDjtqk7d27hYU/k4XDYclnbObDlCZUsXfZ7J5/gl5DFh/nJWL5tDXgz4XrZB9AEERcSTNCyN4SnheOve2bBV30HzsXWsO2rEJ2sWi2+4ldvuVL9Dt17HNWN8MZTtYeeB4xys/iQbvhBCCCEh+/Kw6+mtq2Tvi3txjBnPyPlLWLzCHdLu4K47b+eua6cyMiHsI5351EVHEx4aRrTn/bt54aXxVblyMktXTWDCmDi8/ncGP//HvHRB+EWOYfGyqWQmRTDQ1UVzfSNm19kRLWgDiBoxhfFXXMXKdD8Crd30myyYbBcObHFhNjvxCohi6o2rmRQXQrj3UKTdDxcUFEp4VBJevvHEhGnx+6/PYjuxD3TSVbWbddsqaGz79DUUnbc3oaHhaDXv/DVlNZtpqa3CoNXi66faus4brW8EISmzuPn66WQl2mhtbKCoosuzhBBCCPHJkJB9OfSepqHwNf7w7E6e+NJtfPObv+TRN45T0G73zDD0/MYvZdLESSyO80z4/5xGBbboBVcxKSmBqPIyqvcc4Liq/reHNmsTiU2cwPU3ZhPoPEhBUTPVTU7Ph+f0Ul1pob4qhOVLYgkIuHz3RwkLjyQuNQtNfBpJId4E/Ne3LrHQW3uanQ8/yDNnuqn/jHTG/EPCyBw3lcSuYhqau2kynJ3upUJ3QFoGCYFBhJ2dJIQQQnyiJGRfBl2tBjrbzaRNSCfK10BT/us89bMv8sBd93L/Pwup6bdi88z7X3H2YDHt5MVXKqitO5uanFYDxqZ89r74Kx68bRkP/PgxHnnzKLseuo5lM2dz3Y9f4fWCTkw91VS99WO+ds0C5kx2X9Q3iUkzV7Lsi39mc00f3e4ddFgx99RTtv8Z/vatm7j220/yz23HaSvZyFNfWcaSaROZMv06HvjDWrY0fXgHombn4zx5/wdfbDh0VCoNmMH06WmMSKulo3EP63YbMZrPBWkrRkMXxWfKsVm7OXIwn9NF1YMXar6t8TAlRhsFYZOYGag6Mhc7iW1v4szGx/jd3VcwfZyqk1l38JNXVaeq+4JLIh16mgs2sO7393PT7MlMHu8e/7yYlZ9/iIdezqdFVaHdczLdOyqaiJwcMjNSGabTDX7r4dBXU73vn/z4ptnMnTyeydPncdU11/KlHz3Mn/dB37t2/nztlLz1BE/96EEe3NxKt3kb//z6zVydt5Blt/6M52oddLeWcmjtI/zq/vt44L5f8Vw96NX+2Hrr1PF/kWd+dT+3LZ7Pg2+Us+6fD/HTO5awcPnn+NJLNbQabDgd3VSr+Z767s0sm6bKNX4S0xffwVceXc/GyguHcgxgaCvkyFPf4f5lc5g9aTyT5lzN9V//C69XOTCeqwRFG5pCzKIf8tSGJ/j21eMYFXJ2usvhwFRbRbMxlMhhGUwcJ71LIYQQnyy58PEycKHFLyyBtFEquE6fzoTMEHwMzTSUlVHe2IE1IoeU6GAiAnUfYahtE6W7D3N8Ty0Nfrks+cI8ssPcF6w5sOub6SrYyCtlKWSlR5AQqcVuG0Df3Ufz4Zd4Y+shSttc2FwaLANNFOw/RJVXFmlRdiK7D/K3xzdRFzOb8ZMnMzVHhRXaOLH3BDWBuYxIjiQhWIPD0klPx0neevwN9nT7Du5vuH0AS3Ac0RFOOkqLqWyw0qOJZsKkZPzV5xr01OfvpyC/gjM+71z4qDNV095UxY4dehJmLVQBeBozp+WRkxarOiODhR067h3V+BFgqaCivJIT1Rb6oyazfGIUIf46NPZmWhvKeXNjF0H+LbR2eBOWnE76mGwSPPvScewNCrt9sKTPZtnoMHRqnWePl4m+5kpOrl/HEUsKcdE6Av388QkMJzzQQN2xfCoNEYTGJwweF//B+6sMULf3Rd7ccpg9Df4MnzKdcWNHMCyoh87aEk6cqqGqP4j07FiC/bzx1vbQb7VR1ZjEsrmphAb0U7VvM3s3HuCk/0SmT5vAuNEphFmaMXb0oM9czYw01a/wHtzBC7hUKNWiVTuvM1RT1JTI+BVLWLB4DjPHj2LUiERCLCZaT7zJrp355LcFkLFsGXlhVpwmI51lhyk88BYvbD+DzT9R9b1aqSs7Q3lVG/UhE7l6ig/129dy4HQzTYHZjBszktzMSBxNRVSV1lLT5SJ61Bhi/FTnQWOlo2g3hze8ypNbWggYPYNxE8cyMtYLn74KDh6roaEzmWnXzxy88DFao0Prp9pmdAQhAT74DJ4msGJX5T709BMcdIxn9LwlrJqWRvTlubJWCCGEeF8Ssi+DwbCVmEnWiDHkTZjIuJwkEsK1aIytlB3Yx5m+FDJHppKSEErAh363cC5kl1Ct8SEs1kFneQmlp05y4shBjuzYzRHfWUwbFUdqpG5wzLHdpsG7djPrj9bQ4kogKWscY6eMJTMimNjscYwKa8dWuZ+Hn+1g/Fd+zF3XL2H5dLWPvj0UrFvLLn0O0yZmkJ0YrIKlFYerk6MvbKDIK5G4pDTGZmeTNWsRsycNw6tmP6dPtlJrimbmDZOIVXuse0/IHku0o5Wuzl7arbHEJoxnyR23serKmUwankjsJXniiDsOexEYYKapoorSEzWDwXf2FXnEhvjj3X2a+spS1jaokJhdTUVpC13+KswOH8uUWJ3Kpe3kr91Nh28SqXNmqsCp8QRsN0/IfnM9R6zDyRmVxZiJk8mbPF0dhxiM+Ws5VKTFPzWT0dPSiXI/aKXlMOuefJpt1T545V3D/fdey+KZk8hLDYS2IkqPHeCtk30kTJhMWmSQCtVqa95B+HsnMGp4GL4+9Rx//S327mhEc9NP+NqN85g3NZcUfwM+av090YuZMQw1v2cX38WHwOgUYmNDiW3fxRv52Vz57fu4/c5lLBqVRryvA6fTF3v1To6cqqPYksCU1csZF2ZH51Ir7CihrfwoLx7vIjpzOiNUMB8+LImM5GRiho1kZngR69Yeo16bwdgrr+XGq+YybUI2sfpCCo8eZU9xD7acOcxI9sPfUMbh9S/x+ptHKYpcyR1fvI2rVdifPlz9zqg6P7n3IHX9mUy9/uzdRaI8JTif09yJvmo7/1zXSMSsa1i6YDITVc9IvqYTQgjxSZJ/hy4rdyzTEpA4ibnX3cX9X72DVdl+9O5cx7HyBuou+vX++zFht5xm+7+e4MlHHuGRRx7jz/98mReONGOyODwB0BuddyDh0eFkZ6QRHBSIT/Iohs2+nrtWXc/XHv4rf/zOTVw9JYuQsFSyx6swNCqSMK2BPoMDgzOI+BAnrrZ2es0DGLU+eAdEEhGbQ2ayD0FBsaSPncrcq+YwNjmK6OTpTMpTYUuFMXtXH91qD941qlklfpfTgr6tgoozh9h/vJN62xju+NmXWDFJdTLCfPG+1C0ydiTZw7OYGm3EnL+JrWU9tBjVPlXX01Xdiv+CecxauICsOButVaUcPVyH2aXK03OUE/WR2LUpjEu72FhstfN+iYyeMYdpU/MYkZpCfOZ8Zk0MI9reh6FPT5f7LLLdQvehZ9mwvxNzzESWrp5LVogOb28/IkZdxdLlS7l1ViCOivW8tK2K6jYzTk0CMXF5rF6ZRmCgOznbVRD2wqk6UF4DPXT2mBhwRZExdT7zr7mKcSEqSr/TC/gYtHhpAggODyMpIZbwkHM39XOvzI+AkBCSkuJJTU5QvScV1scvZ9Gia/jiV77LDx/6FY/eNQb/og3s7/Sm3zeUFFcjpWcKOVPVT2BUHFFRWnraytm4uYA+kxV96VYO7DvFwc4Ulj7wOWanRxDl501Q6hRGzl7NnbMDCfL7oEZhY6C7mbrde6jNvZPFi6YyMzvkf+RpokIIIT7LJGR/UvyGkTpqEd/9/nKSg6poqu+lrcPz2UcSiX/wdfxo4062nTrFKfU6cXQru17/OktjQwn3zHUhfz9fggLPuy+d4pOxkOmf/y27dv6WO4f7oynfyut//DE/+/5D/KsC9BcbMK7W4+vnx/lri1JByn1HiPenwqqpkWP/+AoPv2XEmnkFD9w9k2Rfldf+o0D4n0gid+RoZs2Lx2Y7yYYtJTQ1N1BWYqCi2IflyxOJWrSc6WkJRNVVUnrwCOV2G30HNlKelIQmczg5njW9x2AfSovGy+vtXyyNRkNCQhr+/udqyYXDZqbg4F6aOvwIjoohJcXz0SAtMVk55E6dQqp9gIKjJ2nu6n6fMfuZZI5IIDW+mBe+eje/fvEQxxv1mANGE5u+gGtnQZB7rM5/ISQkjIAL2sr53HdoDFEh3Nv7ndPlDoed4lNH6dr7GE8+eAPTx41j3LnXLQ/z102lDBhN9JSU02SzUZB/iPIKPa7gUUzI0+H79n3itfj5B5GSmoa37oOu8uykva+bzafG8u37ZjM1J1oevS6EEOJTQUL2J8grOAS/iZOZ7OsixObA9l/ebMTLO5rghGu458bhZKR8nCdxqG331dK449d85dpr+NpfDlGTchUrHvg6d2RB8PsOOfhPuC+I66K+rJGydf9k3VubeKX48t/POGj4CDJmzGWWl53OnfsoLd3JUYeWmsELGlW48x7NmHGJDIuspKN8G28c7mPPznbSkqPIynq/AQsfxEvlbq0KpOfCowWHs5mGWjNGw4W3CPQIjyAgIZEslxPv9i76B6y8t5b8SJl1Gzf+6DH+/d0JeG/7MQ/edi23fPX3PPpWOd2qLTkusvpLyj08SXVKXBPv5L7fv8HJkyff+9q/nv2PX8eEqF56Gvvp6lQLeWnRqiz9sftaTQ149XThc8MtpIYGEfixVyCEEEJcGhKyP0Hu2455+QcToMsiKTaIiP/y3mNeGh90vlHERvvj7/fRvzA3N57gzJbnePhvR9HnLGTmkitZMm8KE0amEusP2iFrJd7o/BKZcN2dzEl3YTyynjXPr2V3mwPzeXeQuNS0QalEpuYxfbgLTfMe9m3YTpEKej4jxxKjVaFYE0zWuDFkpoZibzrBxjX/Zm1lIjER0aRH/gc9Dnfwezv8aVTg9sXXV/2kbaW3r4e2Ns9H53jr0Pj44u+lwTsqgmBfn8ELSN9Ng29oHPE5U5mz7EZuvusOblyURVTXEXY+8zgPPX2Mer0Fq2fuy8nlHiSkOhB+IbHEjj7/7jHu1yjVAYzB2VaPzTGA1e7E4VCh3GnFYhnM6B/LQI8Tu0FDbF4MAarNuy/mFEIIIT4NJGR/gpwDA1iamugeNpPMjFhSP5Eb/FroLDvE4Y3ref6YPyNX3czqVQuZMzqZhGDvoW0gXu4Hh8Qz+qrbuPHGeYzxb6bqzef452v7KOowvetWbZeULpLwmGzmLkgnxFHC4V11dJv9yJqQjI9Kw+7BHtEjJ5EzPJ0Ecx2nN79IaehkYqJVqP0vh2C4LwPVasPJzEkhNKSbhoZaCou6Bseuv116kwlbXz9dOn/S8nKJCw95n5DdQUtzG7UNGiKyZ7Dwpnv43D23c92kcCJbD/Lvf+2lVG9+9y0IPyanewz94NN6PjovjRcRETH4dJZTXFDArpIO3HdJdHpW4zQ20dV4hr1n+jBbA4mMCiEkxIzJrNpCjQXbex4A5GbDPhjGPW/P4/SLxDc8mZwoPHcaEUIIIT4d5J+lS82up7u5hsriMsqbejFYHTicTuzmXnpUwCo5VIPjirlkpceT8BFOkjotVmx2G1YVyVzqvxar+3HbHxSEzgalARXoHSql2Gx2LBbLeaFugI6WRqprWrBFJRMf7IWPawBDTzddHZ30WtU27XbsA/0YjCb0ZgcuuwpFFlUGkxmr1ToYogZvY+Kyq+1YsNrMqowDmIxq31S6crnPWKr9HrCoeRxqOa9Yxl99iwrzkxmjLWP9b37PS7sKKWkzYLosQdub4KhEJi69igzVsem1JBMWHs+kjPPO/seOJCs7kylxGpzN/aTMnUhcXOT7PpXT5bBiV2U2DbirwK6K6PKESnfd2zEbVd3bTape1PEa0KDVBTNm9kKyUgLpqS7k4O4j1HS7z+qq5dwXhtbW0FhSS230CK6YNYrEaM/NoN+lmqLjB9n4Wj61almLXUtg4mSmz5zGlROiGaiso1Xti9qlD+HeUQMGgxlDd4867p10ml2DbdRsNqm2YlTty6Jyv22wXO6z1DabTU1XDUMtOmA+267OHTWNVkd63kySA5opPbCR557dxpHT5VTV1VNXW0n5qUOUFJ+hI3I0fpp4skePID1Dg6O3gN1vFVLdasCofkfc27QOGOnVq/W7uujt1auXhQHV3t9m6aFflbDd6YWjulv9XqjlPB8JIYQQnzQJ2Zda/2E2PvptPn/lLdz5252caNFjsprpqdjG/s2v84udE7jvlkmMyQz/SHdEsDc30dHZSSMqKDtbaGpynwX8oGjhDm5mqqtrMOiNdKtlGxoazhtGEDh4cVuYXw/W0jU8t7GIgsIiTmxey/pnX2Zzqwtzfy/dVfs4WVTK4WoVunqLKau10V9YRUtjM+WDY8lVzLL3UFPbQGtbmQptVZw+Y1Uh3P3QlBpamlupbrDjMnTTowK61W80c1as5POfm0xYwxYe/dpPeWpLAWV973O68hLQhEThP3k5yzMCyJ41lszhGYx41/V1SWQNz2HKzLF4+89l9rQIYqLe/wI8p7mN/rZKimtUt6e3F/2A6ngMFkMFbkcvxUUV9PUV0d6h6qDWgZe3LwFzb2f5pGxGte/m5CuP8ZO36mjWq86TuYHju3bw5pYKvK76DrdNjyI94v1/TfWnt3H8xT/wi7eqaOy1q5Cpp7GhTu1HM14p8cTotHz4raLdO3qUU/llHH1zCye2vcprFWBUQbq2upq2VvexrKeosAezCrguVaaurg4a6htVEHYMztNrMAyuxU3jvkPKFV9g9ZRssts3svkPX2DZkjt44Ps/4kffuYd7fryB3+2M4OaVsQQFakmavYzpUyeR23uG7b+6n1+vP82ZdtV5MzbTVneK7YfqMA+cprToNCdONVLXfN65+abNvPa7L7P6qtu56rtvUdKtOjKej4QQQohPmtwn+1LTOOlvqqK1/Dh792xl29pXeO2tfRT0RRM29io+f/MUhscFE6jVoLnoeNIBLMYyXv/mrfzk0Zd5+UAlLWYjVnsr5fveZO3OVgy+EWSOiCfIs8RZvbQU7+D5L9/GT14v5HSjgf7WGmpO5/PWSQ1jpg8jPNCP8Ag/goJ9aD10iPyj+zlQYkSbNpmpsyYw0rSPY+VdDCTPZHSyFzGNa/nOvX9iW20HXSoI1Z4+Q0FBCbYcJ2/e9hX+teEIR1v76e2qp3LfG3Toy/nTn57n5beOUtPXi7m3gqObjtMfk4Gh4Qglm57ijWITdmsbNfnbeetECwWGKFaMj/eU4VLRqUMTRFh/FZqJyxk5eiTDI94don18DNgCg6l1TOO+FSNIDvF5711Q2rez5m9/5+FfreFgl+pAmVTIPXCKxoEOmvtKWXvzl3niuKqLXhNt1QVUl5bQlbyS0TGBpI8eQWpiEME9xex/42leevZfPPvqAc5Y0khbfBvfumM2uTEB+GrdQ1gu1ETl4QJO7TnOqdMbePnpf/DkP57jLXfHZvgyvvHtm5mTHkGYTrUrzxIX0npDQJQ3dfuOUFhYSq0rloCRM1k9so8d37ud37+wix3lvfT1tNN0ahunNfHUv/gwrz79LP8+2EKv+9aHlQfZe6KXgYBIsgbbn9pTTRAJOTmkqjKGmlsoq6uivqaJHv8xTFt+HZ+7bSF5Mf64v7jx0oUTm6o6NNkROKtPcnTnBta/sYHdpRZ6XBGMC6vggDmXkRPmMndCFiPTQgfrY5C1iZL8U5RU6HHmreC2+elEBXrL7fuEEEJ8Kni5Pu6gS/HxOPW0lRdSXljM6SYDdhUBdEERxKWPICMrk1HJwYOh4KL5epBNhdBuije9yalmA90Wz+RzQnMZO2EUE8ckEuyZdJaZ/rZairZt4VQPWM6dbvQOxSdmLMuXjiQ2yBcfezc9zVUc23GUSr0TV3gmuWNGkh2nwVq8lV3lEJg1mbHpfoSZa9mx5QxqdZ6zlypIxcUxcl4WfW/upd5gQj84XYU4rZZhI4fRVt+GvvfcVHdJI8idN5dEbROmisMcrDv7yaDobJKy87h2UoJnwqXjctgwlh0YfKJlaGQsKe/uoagKa6Wzq5OjlWHMnhRHoP/7PJHTUMHpY6c5UdCgujTnhJI8Np2EOH96thykRk05dwu+gMgkMmZey/Qk8Nea6Kovp6akmMLq9sHHlmt8wolMyWZYdiZj0qNx3yL6/TtfrVTnF6uQWU0bFgxmO06XFr+IJOLTc5g0PosYtbDu4j039yl4bIY6jmzaT5k6oN5JI8jMHc7EZLvq/LxJwXltzUvnTUTePJK6Culub6Hh/NudvF/7cxjorC2luriEU/VdmO3eBMRmkTP49MdEonw88ylOay/97bWcOXySkla9arX+hCXlkJIYxTDnafY0BBM/LIfc9Hjiw/3fCdHm+sGQXVjRj3nYLJZPSSDMf4ivIxBCCCH+QxKyhRBCCCGEGGJy0kcIIYQQQoghJiFbCCGEEEKIISYhWwghhBBCiCEmIVsIIYQQQoghJiFbCCGEEEKIISYhWwghhBBCiCEmIVsIIYQQQoghJiFbCCGEEEKIISYhWwghhBBCiCEmIVsIIYQQQoghJiFbCCGEEEKIISYhWwghhBBCiCEmIVsIIYQQQoghJiFbCCGEEEKIISYhWwghhBBCiCHm5VI8PwsxdFSzcrkcWI299HR302f3QxcUQUZskGeGzwCXE6fdyoAqQ3dXN/2acCLCw4kL8/PMIIQQQgjx/uRMtrg0VMB2Wvpoyl/LM7+6n89/99d86/kzng8/I5w2Bnrqqdz9FI9+6yZu/tFTPLu/3vOhEEIIIcTFyZnsT4LDQm9tAaX5e1m36wgVdd30hi9g+Q3LuWnFaGI8s70/B+bWM1Tk7+al13ZT3NiP3uVLcHIeI6fO47oV04k5sZf2cWOJSEggxbPU5eawmDG119JR/hoP/ep5NugnkHv1F9n54EzPHJdLPXWn9vD01/7JIfXOfHbiWd7+MO1L/OLWaczMjvRMfIdV34OhpYj606/y7e88x7H0L/C1+2/jx1fneOb4jOurw3Dsae75yyFae95VM2/T+gbhFxJDVPIIFq6+jrmj40kM9ZHeuRBCCPEhtD9RPD+LS8w9fMJprObo+hd59aW1vHmkhlbvVLJH5JI7ZhzjRg0jLTYEX8/878dSt5cda1/n5U1FNITnMWHsSEbmZjIsIZhAazMVu99k3dpa7KOHk5iiwpFnuU+Cl5cLn+AOTr55jLL+KEJGTebOWZc79qs6t3vhtGkJdFVw/HgBJ0r6MfokMXnlUqbl5TE5I5qIIB/P/O9w9z41Oisan1b2P7OfuvAJTJoylrm5n2Stfjhbby+9J05QFx2Nr0538fbkcqo26cSkDcTVeJyywhOcbLZDzjJWzc0jb0QWaTE6tIZ6jm/fy5nyRgzBiYRFRhEXpPWs5FPG2URdfQ/1jS5iY1QnSgghhPiESMi+TFw2E9auMg5sfImXX97BiVbwyZrCvKXXsnrFIhZOyyUrIYyLj/Z1Rz4j1Vuf4IUNBRzQD+e6++/n1hXzmTt9InnZscT46mkpOsS2XRZSFk4iJzvhEwvZXhotOj9f/EK7OLNmPyW94fh9IiHbH/+QRDIn5TE2sokTxyqp6o0jccoqvvOrL3PNKFVvwe8N2G4anTfeAV5ofTs4/sQ2ysPHM+7THrJdJvrqq8h/fjvtU/KIDvAn2PPRe3j7o4vMZNz4scT3n6C6qooKZxrZ1/+Mhz6/mEWzpzB+ZCppoQ4GSvaxeU8+NfZkYlNTyRkW+oGdwU+KrXkfhwo7KGgNY/KIUM9UIYQQ4vKTb30vB5cFS28NVTuf5ZGHnmJ3dypjbvo6P/jJN/nS8jHkxIcR7KPjg88NOtWrk+JjBZT1hxA8aQl3TI8nMlAtp/MhIDKD4dNWcMf3vscdU+JJDvmUnmn8RHip0O9NcEICEf4qdPuH4BcRS5KqI53GyzPP/wIVhnuqqFEdrde31mM02z3TP4CXKr82mOjoCEJDLjjzq1XtKnY0o6Yv48ufm0p8sJWK3YcoOF1Ok2eWTwv3GXnXQCe1+3dz/FQJRRbPB0IIIcQnREL25eBspal8F3//wRPs68lj8b13cfPqaeQGf9wg7MThcOE0mLD19tEzOOU8XgF4+w9n0RXDiY//DN3FQwwRM/UHN7Hj6Sd5VaVgw0fI2B+Fxj+AoIwskr29CejsxdBnGGx7nypOK/bGdTz9wja2HKxniIouhBBC/MfkwsfLoO/0K+x+9W888OgpIm79Oz//wnwWjowi4GNl7LPDRY48ei+PvLCPrf25zLvu8zxw1xWMSwwm1Odsf8nldGJtb8ccGoqPvz8BgxMdatFK9r7+Kpt3HedUQy9mhwZdYDzDr7iVVYunMm94GBoVVAZaKjhxeDu791XS5opj6v3XELDmUTad6sVr7HLmrljJ9bledOW/wIuv7Wf/mWbazU68tIGEZszm+rtXM3dcOgmDYwls6rWLR1f9iH/XDiN09e1svCeA1x97ku1nWmj1ymDYhAXc+Y3ryQsEv0vZ5XMMQO2/+cZ9f+bFonhSlt3Nc/+4mTT1kffZOS6iE2PvVn6U93VeHfY57rx3AfcM7+KNvz/LrhojAyETmHPtapatmMZoVYa3WdrpqD7JjlfWsP54De1GL7yjssiaNJsbbr+GCVFa/LReg/O1Veaz6fkX2HK6hQ6THZd3GGFpYxm/8m7um5tARIA3LmMH3U0lnDy4iy1bjhNwxVcZHdKDpnA9Tx0ykHzdfUxs307hnk2sP1ZLXX8YmRPTiPRLZdrVN7L0phUs/IArapvWfIOH//YiT1WnMO7Lz/HS3WkkhJ6tGWvbGerXfYdl399FZeBq7vvOffzfF2cN1t3bnAZ6G4s59sYLrNlbQl2vA2dwMsmjprH4lptYmhFI0GAbVe2zt57moy/zjxeOUNjcR79Vg3dgLNG5c/ncl69nQkIIYecOikt1I21tFL71Cm9tP8DByk70Nl8C40cz+9obWDpjFCP8O+kpfIVfPvQMGw+V0+IMJygumezEsA+8sFUIIYS4lGRM9iXXTPHWtWx8YTc7O1OZfWU2mrpDHNq0nvVv7WTHwRIaXOGEhwYQ7O/9IV8teOMXoMGhb6O3upCDJ6uor6mhvksFM/8gwsOD8VfBTRcUhJ+3tyc82rCrIHfihT/w1JZ6OgPTGDttAqOGxeBVtYf8og6M/jFEZ6YS72tG39VH6e4X2bL5EPtK+3EGOVTGKeLIvuNUDETiHZPELK+9PPboS+Sbk4jNHc+UkSq0+rdwfNcRyh2xRMTGkxsfpMriPs9ey5GXdnGqxYIpLJR0tVNW7yB0mk5aykspLG6lPmwkszJCCfLVcskGb7js0HuKLRuOcqZDdUqyx7F6xWhUDPuQYTombANV7Hp8C8XeKryp4xSuUUcpIBgfGijPL6KkW6fKlsKcrPDB/fey1HF61y52bTlFQ2QW6RkZZMZrGWgup/h4EYWtvqSOSiUswErbsY3sXPMa/z6qIXfWNMaMzCDK1kJ32Un2FBpJnDiOuFAtOquJnsYqqvc+w5NrD9FqCcZi7aetqZT83Qco9p/I5JwEhgWbsPb1UNqRzNzbr2T6OPfFsSPITI0l6gMGUetLtrD/+BlO9YQSP2U1144Lw9+rj/bywxxT7fdfz23lYFMIY1bdzKorpzE5Kfidzomzh+pD2zmwZQ9HHGlkpGeQnhKGV3cNtQX5HKswEZE7gqhgP/z7iqk+soFH/7qeytApjBgzhrw0FZot9RzacZTKgBxykyNJCPPFy2FQgbyQjX//B1tLLAyEp5Oj6ic7WUfzgR2cLuvBHBhFVFoi0d6qnfpZ6Cqux+yTRtykhVw7fxw5o8YyIf39L2wVQgghLiUJ2Zea8TT739zEug2VNIWMYdHCVPxM3fS0NdFQU8bJnSqAtplwBscRFRFOVKDOs+CFBuMbAVFJRIaFEePnwNJXS+GBg5yuaqWlq5d+gwkjwYSF+OGt1XB2uLEFm7mW7b/7Jet7xzBm2a18+XOrmDchl9TevWzbXUCTbyqxo6cyPsqB3emLvngz+YU1lBrCSR2Tx6QJI0iIiiY5c7QKiwFkdLzBD/5SQfiSz3HDHTdx88JR5KU7KVn/Ogfao4hJz2TK6Dh8zw/Z7apzkJLL3JGjGD1nHhNGh6NtK6XyVBkHzTlcuyBzMAhdspHkQxGy/ZJJyBzB5FFjGDdvHpNG+tJ78hAnq610+qZztSqDO8oZKzayeXsBB5ujmX3rbaxaOIuZ49OIMNXQfGofa/Y3ETFlLtmxVtr3rmHLm4fYHXULP/3OHaxYoIJ2cDf22qM8v7mYiDnXMSoxkAgfLU5jL66qrTx9sAVttDoWo/PIHZnN8NgIorJncuXSeYyPMeLVWsumstHc//dvcdOSGUwe9sEB2+1cyD7WYEXnF0hAfwXFBaqjtWsHew4VcbovjhEzlnDdzcuZm5dGrO873SF7y1G2b9nHtjM2slbdxXVXzmX2lBGkebdhUCH9hU1nsAyfy5jkcGL68inas5FfPtvB+K/8mLuuX8Ly6Ukk+PZQsG4tu/Q5TJuognRSKK6+RhoP/5vf/eUYllFLmL/6Wq6/cibTxyZjO/oSuw830BeeSerk6eSlJjNivDfNW47T4T+BrOsf4Ff3LGJqtur0ScAWQgjxCbiUX9ALt85G2js6qXXq0CRFE5Myn2s/90N+8Yff85sf3cW1WT3UrX2Uvz+/i+1nulQk/hDaEFImr2DlV37Cb79/OysnJRDScZCt//wtP/3+L/ndS/s5Vt5Cp1GF68EB2y6Vze1oAhNIHTWKzJQYIp0WTEYrUfEJ+AUYMRj66OrSotEEERoVw7DUeKLCA/ELjyJz8ee48qq7+b+f/Z6Hvn0H98yMx+kVSGTKeEYPTyAh1IXNasfgk0hShBY/fTeGfgO9gzt7Hj+1zmGTWLZyBjlqH1JzpzJqRBYjItV+NrXS5VCdBs+sn1pB6eSMn8LChePJiI8kZfR8xg2PIVGnZ6Cji05V107sNB3dTWmXga5hYxjr20tPcwNNvYGExiQxKtMHW/d+th1qoqVTBWKfYILjMhk1ZSwp/upQmcz4qJAbERuG09Wg2o6DgQFfdZyCiYmLZnjmMLy9dfiqUD1p/rXcc9u9/N8f/s5fv76IKekRXKyL9lFZe5qo2/wYv3/4x3zv2z/iF3/dzOb6SCbc9h1+/JvvcNvc4WSGvPuvDWPJXk429lMUOJo5CRYMHY00ddgIikxgeK5qL+Yqtu86TVNbn6od1c78oojLnMT43AjCfKwMOHxx+EeTFq4abHs7veYB1VlUbaqjnoI3XmY/Uxk3ayIzRkcT7B2A1j+L8TPGMGJELJHBPni5RyUJIYQQnzISsi81FRq6entpCIoicNxyVkxKIyPKD1/faJJGz+Zzv/0G8yIDMO5QQeVkEWWexT6YBu/gRBJmfIGfvbCRF//2A76xIpNY/VG2/uFebrrhhzyxs4yawdQagE/geG7660ae+sWd3DJGQ8vpzbz6uy9z8w9f5XBx6+Aa38sHnU4Fw1DVOThvDIc2PJ3Y5Q/z+pbH+L8rc4htO8qBl/7IDz/3Rf58uJMavWfGC6mVeOk054XASELDgomN97z9LHB/O6DReM58u3914oiO9VflGJyguHs1LVSU1lO6/l9s/tnV5OXlvf2ac+fP+N6r1TgcToorqunThzLh+u/y/X8+yxv3jyTCVsOhV3/Dj3/xB77/pPvRORcXGBiAn+/Q30QvIHEUE771Blv3vcEf75zOtFAzLocVV9pokkMCCHSPI79AdXkRTQf+zbEnv8hMVc7x58q88uvc86f9WFUHqr+8ilbV+RpIX8j0z/+WnTt/yx3D/dGUb2HNH3/Mz7/3EP8uB/3bgbmDvp4KDh3oZSB1GEkhwW/fjtL9gJwRd/2bJ9a8wePfvZ7ln9QTl4QQQogPICH7UlOZxB1LAvz8SE1JJcDXR2U1FTi9VFjziSQwYSZTx/gRjgGz0Yzx7FIfwr28Fq23HwHBUaRNu447Hvwdf/jdj/nWVC+cLZt5Ye1e9pxoxuGeV/3P16ebM2/8locf/D7/99eDNCZfx1fuWkBuerRnnRdy77h7O2df53i5xyOr/ztr3uAfP/wK333oJV5vSWDqF77N6pFhJJ5/8d/5POtw//fsTzq0Wq0K8oNvPiPeKcNZ3mr/1XF813gT2+CZ/eARV3LFN55k7dq1b7/WvbmRt7bsYNfWTWz6/iKmZUSq5Qcwthxm4y8+x11f+SNr6xIZM28Zd6/K86zv/V14XIaKl0YdF/9Q1bkazuJ77+WalZPJ6D7J5t/8nFeLOmk0vfc6aZvNgj1pKiNve+hd5V27fgNvbtrGrh1b2Pn4nSwbk0CQVh1waxfGU//kp/fcxfefOEhF5Axm33wHK9NU5+Ht9mDAaummrdGFw6VVfTSvt/+ycpdb5xdMUEgIQQG++FyyMUZCCCHEf05C9qUWFU14aBgxdjs9vX3Ync7B+4QM0vih8U0hOVlHQIB7quudz97DfZa0k4LjRZSXN2EdnOYOWRp8Q+NJHj6R6YuXccMXb2J2uIneM2VU1bbR6zJhMxWz9c9/4LldLXSHj2HeksUsnDubOWOSiQz+eGdDbf3NtO3/J7//4wYK7EkMm3kFSxfNZc7MCWRF+hLwkUOz2vfBoOh5+5lztu49xTiPOobqIA64AtCEpTJ57lxmq9fct1/TmDljGH6GATDXU7r7DV574iVerI1l5MwFLFi0gPlTRjF2WIRnfZ8Ed4H8icqew/yl81k2LYze/Dd55s8vsaeoibazje9tgzcosnrj5xvHsFlzmTHn/PLOVuWdQJSjD419AHNjPmc2P8Ov/rSH1sQpjJt7BVcsmMW0CTmkBqmu19t/I+nQaHzUOlU3sbKK5j49nYPDn87jbKK+voEzxX2eCUIIIcSnh4TsSy16OGnui7ICjLSfyqfaYMHo8HymgrPL/aAaiwttfBwRURFc7Lzy4Nhq+qg8sIcT+cVU6i9IHCqQBEQkkDV3AaNC/fEzGzCbBwbvQGGp38erT71CvmkYmQuu59Zrr2BGbgyRfu6HsXiW/0hsmDprKNzwL57dbSR43GKWX7+C5dNzSQv3xsd9ht4z5/+f3KUPJkTVv6u3mur8fews68FodXg6Ty4cpm4MFfs5UqOnq6mYk7s2snbLaTqG38j1N1/LlTNHkhUbhP+n4eysTxwZExew5JorWTrcTNmm53n1jV0cLGul/+02jCpvOAED7XQUHWLd8Wa6B+w4PL1Fl7v9teZz8EwHHX0GOsoOcXjjep4/5s/IVTezetVC5oxOJiH4wjvrhOIfGEd6pgbv+gMcKayhpM3M2c26V26lr7KI6ura9/4uCCGEEJ8CErIvtcAcskaOYPoIDb6ndrGvuoMmo23wjLbT1oepu5CSah2+I/LIGp7GMM9iF1V3jKJTx9hW3EaXCuxWh1qPy3321IHdasbQ2YXersUv0v0Ev0D8Vdh21JzhZIcZn6gYosLD0DpUsDf10d1vxmpz4HQ6Br/yNxlM2B12bHYVktSfLqf6WQXEwfUPblx1EPQdlJwqwxCcRGxUEOE+dqwDJgw9PRjUuuzu/bENYLWYMKrOg2PAik2t311etaHB8DV4Z3aXqgO1HauaB7Vtq/shO2c3cgm491/ti816tt7V/jjttsFtftht4t33HXdZVGdFzed0/6x2cjBAupdTHSSb1anq3b0+q1qfRk2OITkrhUSfJrqOrucva45yprqJlnYVMttbaKmqoHzvUUwxsTj17TQ2NVNt8yEtI00Faw3OAQN6g4E+g9W924P7OWAyq87S2X23qj/d0+029zE6F94v5J5uwmRSy+r71Z9mVJN7f4PlUMdn8Ji7O33qGKl6cqhyuj/yiR/H8Nk38K1bxzJMV8SOV19n7YbDnGntxWBRy6j54tNySQy3o6/azr/+vZMTJXU0tKnQ3dFGW305NSe2U+edgsvbm97mBqqq27DHZpAWqSNAq/ZRlVff34/R7t4Vh9q+mQGLP7qAVMZOjSPElc+BXYfYd7CM+tZ2OjvbaWuq4PTOMtq6B/DLCPcU5iz3/ltNJgbU70NfnxGLqqv3rychhBDi0pGQfcn5kTnnSq686wbmeu/ipd+/yu6TdXRYVLCoP8Oxvz/K860TmXbFLOZPSvwIt7Br4tjrT/Cnbz7Ib98qprxTBRJ3QLX20FZ8kLU/fZjXWmIZt2IR82bkEKqCjSYyihiNhvKdm9m/dw8nykso2vUv/vD8Qcrqe1XI6aKh4gy7Nu2nTd9KbZMKMl0tKpy1U1nZzYDt3BAXP7x9QoiMVA2n/i027zzGnqMlVObvZe2f/syblf209ujRN5ygvHA/W4sd9J0uoqavj/YBMzYV+LpVkBo87+ioobWpjYpCdyegmLIeK/2X7C4RKjA6rPRW19CuAp1BldfU3kCl2pmzd2C5OJea33ymkDLVEeg36lWdmDxncdV/7CXUVPXRojo8xvpqivWgMjdZS25g3uxJjOw7xI5f3cTV132eL3zje3zvm1/gmz/6LV8pnMMVI4JISwsjODAATWszO5//J0cqaik+/iZvrNvAM1vKBwNvX1cN+fuPUFxWTbupn4ryatUhstHS1ER7Z+fg437eq0/Nc5C9O2soWP8yuw+o/aj3fPQe6sjae2kaPOaGwXDaWllJ54DqhAwedA3+KhAPv/k73DEhmqSezbz6t9/yje/8g7eKW+k0OwicvFqVdwZXBlZw5ukvceuq2/n8V7/D9773Zb714C+58YkwZs2MJSUhkoDAQEL9urGUruG5jUUUFBaTv3kt6599hc2tqmvQ30t35V5OnCmn2JrC1Nu+wPRofwxb/8DvvvsFrrv3W/z0x9/lS9ddy/dPOOkMG86cC0bWdFZVUnxgOydrjvKv53ZSWtvhGV4lhBBCXD5yn+xLzguNLpig8FiGZwXTXriTg5ve4OUX17BmWwFFrjxWfP5OVs4aQVaEP54HN74Pd+LppbwphJzJc7h+2Sii2g+x4ak/8/cnnuQfT7/KGzsKqWIUV9z/NW5eMpG8hCD8fXzxCognylxEeUURx4+f4GR5JwNpV3DlzBD6K2poaHRgDwpk6kItO77xM5558yCHG3vp7e2g4bQKy22RDE+OIjUyEB9fDZGJgTQfK6Ck8BRH3Q+TscUw5coryTAdprqhi+7ADMJjk5irf5mv/upFtp+qp6unlZ6qCg7uaCdyRDWv/P5xnnl2O0eau9GbWyk/Uo49Np2ohHhi/c6WeGjUU3fqTR67+Rv83l2uqg61vX4MnWWc2L2F12vCyUqKJCVy8NmY71a/j1Mbn+T2n75OQUMPxt5G6gsaKCluICyrjD/d/2te2aHqoauLnq5Gig9WoBs1iYSYRDJTkxg2LBKvtgpq62vVq5Fu7TASJq7iS59byLjEIBU4owh06vE1lLH/8GFOHDtFs3cOWWOyGJsMVXsLabTEMXZmCl61O9n+59/yu00V1HVZMLRUUFLaQkmHD+Ompw8+2dPddLz97NgdJmr3HOBUWQ09oblkjhrPjKxwgt5+eoxHXx2G/Y9x+//9nmc2HKawUY/BqDoVqpN0eOvrlLmyCIpOJTVMh843nNSsAHrKqmisqKCmroiT+3ew7oiN6Mx0Ro4fSU5GEhF9NVS5y1vbQJslnJCc+dz9heuYnRVJmI+O4FAtfv4amg4d5uSpfI5XGNDEj2LM+BzSDYfIV50WR8pUckeMYXpWDCERKeTmRIOxlfa6KmqrG6husxI28VZuvGEJV4xPJjpAp37L3EN1QvHpLaFO7Vt+YTWlbcFMXDyHkRmxhPm65xFCCCEuH3ms+mXisrufxFfH8QPHqWrupc+iYkFAOBHJuUyelEtiqB/+ug+KAe5TrnqqKvpUSPEhMsRFZ00pBUWVNPaYMds16PxDCI/LYPSkPNIj/T2PsXbhtFvoK9nJvtMN1Pe48AlPImP8dKbEtVO4L5+KDh0+SWlMmRpKzWt7qdGb1JY8tCqZDZvN8knpZMQGqt0wYzPUcXTLQcraTZj8VSgeNpxpE9JxFb/JkXIjpvDhpKcnMl5bzEt7a+g3nTvfGoC3Txqzl4fSeLSMxoZuz91U3OWOIHfeXEZlJ5PoPzhxiHTT3VjJ4dcOUqPevevM74Vlu1C3qtvKQl47WOeZ4BZNZFw8k+f5U/jmKToMFs/9vb3R+cSQt3wpI2ODVNzrR99RT8nxfIqb+zDYtQREZ5GSNYKpeUkEqUOj8XJialahsOwUu890YtUEkzhqKmMy1PLmOg5sO0V7cC7jZ2QSpMJrc0EBZ86/AXlgMnHDRrJkYQ7B6u3gtyB2Vd6mSo5tP0qlJYDI3CnkjRhGdmzAe7+2MndjqTvM8+86Ru9ImrScvNwMMt1nit2P5rc2cGLHIYqq2+iyq2leOnXY8pg3dyTZiX64uluoPXmU4zUd9A144R2WRHx6DlMm5gw+DGeweav962mu4pj76Y56J67wTHLHqOXjNFiLt7KrXBUrazJjR6YzXO2zl9quy9BAYf5JSquaVX2r9uwXRvLIaUwYmUhCuJ/ntpDuv8Zc6KsOcuJ0BUUt4BMznFnzx5OsfrcC5A4kQgghLjMJ2UIIIYQQQgyxiw5OEEIIIYQQQvxnJGQLIYQQQggxxCRkCyGEEEIIMcQkZAshhBBCCDHEJGQLIYQQQggxxCRkCyGEEEIIMcQkZAshhBBCCDHEJGQLIYQQQggxxCRkCyGEEEIIMcQkZAshhBBCCDHEJGQLIYQQQggxxCRkCyGEEEIIMcQkZAshhBBCCDHEJGQLIYQQQggxxCRkCyGEEEIIMcQkZAshhBBCCDHEJGQLIYQQQggxxCRkCyGEEEIIMcQkZAshhBBCCDHEJGQLIYQQQggxxCRkCyGEEEIIMcQkZAshhBBCCDHEJGQLIYQQQjifb6QAAB6SSURBVAgxxCRkCyGEEEIIMcQkZAshhBBCCDHEJGQLIYQQQggxxCRkCyGEEEIIMcQkZAshhBBCCDHEJGQLIYQQQggxxCRkCyGEEEIIMcQkZAshhBBCCDHEJGQLIYQQQggxxCRkCyGEEEIIMcQkZAshhBBCCDHEJGQLIYQQQggxxCRkCyGEEEIIMcQkZAshhBBCCDHEJGQLIYQQQggxxCRkCyGEEEIIMcQkZAshhBBCCDHEvFyK52cxpM5Wq8M2wIDRiMk0gNlmxzk42QuNzgdvXz8CAoMI9NOh9fJC/f89XE4bdqsZfW8/Rosdh8u9rB++/gGEhAXhq7pJmnct6NnugB6DwYjBZMXmVPN4BxAcFkKgvw8+mndv6GNvw91kXFaM/X0YjKp8agMuLy06v2BCQwMJ8PVW5fHMexF2Yzd9eiP6AYdnyjlqPT7+BEdHEaxzb1dNcgxgMRvo7DRgOzvTIC9Vhz7B0USrGXUXlOmT4a77Afrbe1W9W7CenagKEUBoZChB/r54X9it/cyUTQghhBAfh4TsS8ZdrVZ6qo9waPMmtm49yP7yOnoGVK7SBhISl01m3gyuvGY1yyYkExXorcLU2SXP5zDW0lC4m5ce+RdvnGqmy+FLSNJExs25kru+vJqJYTr83pVo3dt10HniRd54aS2vbi2hQq8hOHshdzzwOVbMGkFWiPbsrB4fexsuO+hL2PTU33ll/X4OVauA6B9J8sRb+MIDq1gwLoVoFZA/SOumX/C359bz9IF2z5RzYkjJm88djzzMdYkQ4q0mdR/j9O7X+c43XqRKvT0XXgNT8hh1xyP8Sc0YOzjjJ80dkw/z78//QdX7SYrdkzQ+EDGf+3/2Ja6ZP5oMP/fE83xmyiaEEEKIj0P7E8XzsxgqdhPW7mK2PvEHnt1WRZ1XIpnT5rB4yTKWLFnC0kXzmD0+g/QQIy1H3+K1t4rpD4kmLDqCMJ/zwqylimNvruWNF3dzyn84Y0ZnkuDTR1dDGQUF6lU+QELecKKC/PD3BHSnzULPob/y2BO7yR9IZfhVN3DHqlmMtB7mwJ5CFbh98UsZRmqQZ4GPuw3XAFYVyrf+5UkOt2vRxKeQHuuPpqGIgtJiKsyRhEXFMTw5hA/K2drAUELDAgijl6r8E9R29NEdMZk5K67j87dfydTseKJ81Xzu6tD44RMSQdKwQLqO7qPaFEvqrFVcc8vNXDs9m2FqRu8PO3V+Wbj3IYCQmDTSs2KICzBQnX+c2pYm6vsCCIqIIT09mnNVP8hdttBE0nJHkuk8TWG/qs9ZV3P3PTdw5YTMT1HZhBBCCPFxSMgeak4jfc0VHF2zjhPGQAISMkmJCyTUq4+2uiaaGptobm6jvaeXzo5eekobsSYH0NfYjd2lAnBcHJE+Z1fVX7SDkxWd1PuNYubihSyYMZ6xOenE+/RjaT7DrqO12DOnMjIxjLggb3AYsPae4s0//pE1NfEkzVjBLdcvZt54FUTDeyjeqYJ0nQrhQalMGxWN+/yo/mNuw27opbfkOKf1gcSMmsrkKZOZnJdDdkoI+uLdFFf7E5KWyYiJKUScLcb78g6OITpOhcuEMCK8OykvbkfvO5LpVy5lxcoZDA/0BGw3XQD+QQEkxJo4tqGB6DmrueqWG1g1dwJj4/0+RSHUvR+BRCSlkpqRxrAY9bOxnCNVLTQ0dWJ0BaILT2RUWiju7xIG99pdttA40rKGka4p5bBhJGNmLeVzV08nJ8pHArYQQgjx/9q7D/A4ynvf41+tVruSVtKq9y5ZllxlLBeMO+4N25hQA8QJHMiBQA7k3EsOySXk1HAvgZzkkhxaEh8T29g0gwvGxsa9YFlusiSr97IqK2m12nreWdnGGBsw2XOf5Ln/D888ht2ZeWfeGeD3vvvOvH+lJGT7mb39HNUlh3h/bycpy25jQqIbd8MpSo6VcPp8I/VNjTS3tNPa2U57ay/dzSamPDqf8IYKOlrtdBkTyE8LUyHMQc2Bg3SF55K5YBWrbkgnKUEF55wR5CZChKOSPTuPUxE5jZvHpDIsIRRXfyOdJ9/gX36xk55xd7F42VwWFZjR6wIxpabgKVMhu6SWMxYTRbOLiDc4qD94fWW4bTZsja0ETl3MhFF5FKSlkJSWSWbBMDi+juMVJiJGjlFBMY+UC3VydQEEBkcSGZfE8GwTrSdKqGvqxx2dRlRWDqOSQn1P5Q5FTDeDPS00FX/MgZZRzL5nBXOnDCfDdHmX8F8SHfoQdW4mIzm6Mt6ujyDEWomlrZMaawhZBcNJDg/yBeih81N/er2YvFXsbkwiMy2bmSNifd8IIYQQ4q/TX2pK+evkddB6SoXSU+W4bvs7FmX2UL7+33l5zX72uSdzzz++zCvrN7Fx01pe+dl3+O60SGw9TbS7i1h0z2zyogcpe38vdQ4vLm8vHWEjSEsbxqz0y8fkBmIeNpycyZMZq4KZva8fp8ulPvdg72ilYst7HLPqic/NIi0l1tdjqm0D6Ywam0t6WCutpz9he7kLm/N6y4CgqFgSZixiUnw4MRef4vMGqpgYTliEnrCcZGLio/m6ETEgOJbQnBU8tHoGEzPbKD24gz+t20+11Ylz6ClRPINddFSXsXvTadK/cwdFY7NJNWrfePF6PbgH++jpaKapvpaamhpqautpaO6gu9+BQ9uHx+XbR2t9HXXa9zVNNLZ0Y9P2rZZBaxvtTdrn2rZ1tPW6GHSpfbvVMQyofVtUwK9vwmLtw2rtorO5gdq6Rtp7Hb71riUgIICgYBNJSx7m1jmTGM8pKra/zM/XqHukfeDz22oPlgaHEBwYyIUfMi7xuu3qPumgrbGOWt/x1/jKb7FYsQ6qM/A9iKrqwTlAf3cH7S0t1Lf0YHc5GLBa6Giup7a2Vm3TTEefqhO3B49DNZa622iq0+qslvpmC119gzivPB1Vdy6tftuaaKjTylb7qW+muaMHmzp+jzzSIYQQQlyVhGx/cldy3hpOg3saq2/Q07nlBTYdcmCYuIqH/v5upmWGER4UgC7QgDlnBlOXPcAvHr2B+AgjAeaJjM8I5ca402yvDGDAGcX4qUWMGJnFlc/KYQgi0BhMuE5HdkoyppBQ9eEAfb2tnCquxuGIIdIcQphpaPWLYuMSiDDr6Lc1cqasG6cj4jrLuAavTYW2Cs5XhJE7RYXl8SNIvfDVV1P1YQgjddn/5P5FE5jIEU5te5ln3m6kq38o2PeXfUL58T1szXmMRcOjVUPh4hAKLQgP0FO6jTf+7REevG0+c2fP4eaFK7nnB8+zZt95avtUCB1sxVb2e566bSlLZs5k5szvsfrxNzis9jColtJNT/Ps97TPZzJv4RJ++n4L5Z1unKoB1FC8jQ2/eoIHb/0bnn93Oxs3vsJLj97B4mWrefaDas53Dh3jtal/xXSpTL9vNSuWTWVkfxknX32a33xcT8VXbjvE3XWW/Rt+wU++s4yF6hhnq2X+0nt5/IW3ebdcaypoK9nprjvCx288xz/+8Ifc8cQGTrTVcOzdF/jX79/G4vmLmLfyUf73zlqqux301e7n0NqneXDpPObNXsit33+R13aW0XLly14cbXSUbmfdsw9y17J5qn7ns+j2R3jsuQ3sb3XxhZfDCCGEEMJHhov4U/NBSlv1dISPZEZ+HwdffZEtDRlkT5/D8rkjSTGoQBmgvapvKGgbTGai0rJISkwgwRSMWdeMSwXWQy3DuTHLSITJgF6v9RJfobOcupJi3vjQwZRHVzNjZDzxIf10Npxh/7p3ONQ2lil3zWVSYSoJl71IRNd8lL1HSvik1ktIwTxWjYsmOjz4Osq4sk3mwmZRDYvD21n/m9fZa17CgqVzmDUqkUjtvX9fy1B9BBojiIkJwNZST23xWU5X95M4YTzxrhKO7j3Hvspo5tw9jxsSQwjR63zH67I2YDnye3723Mc0J6iAvugWbp0/mRvz9NTt3cHhw2U0u8MIycwjMyaOpOxhhHYVU19lpcuYy4z7p5Gp9hMWEUO03o6us4IPT7WSOvtBpgwLJipwgI7aSkq3v8o7R+z0aW9V8XbR29vOmaNn6M6ax9SCBDKifd3qX2TrwFF7iI3dRcwYN5wJuaGYDT0U7/mU8qpujBlZxCfHExeszkbbd/cJtp82qsZQMkUFseozlWDd5ex46dds2NNOU/Jc/vbhu1g8dxThLScpO15HRZuB4eqfY1TIdvSfp3jnLnZtK6ZYNaBSA3twhKWQnJNKdqSTmv2fUHzWiau/lPqeAVp1GYyZXEC6/TylZ09T6zQTmDCKiUM/E6h2WzmHNm/lg82n6blhKQsXqJA9MRFTTyXnDh5j31k3GUV5xJiMBEtzXQghhPgc+V+jP1lacAd4ccXFoff2Ymnrwx4QTEhoCNpziVfSBZsITssny2wgTA/B8TGEpySgb+1V4epaP8N76KqpoqG6GfesO5k3Jp4k7YXS9OGwd9LaqDZ1qf0G6zFcMe7gYsB3OJw0t3Xgdl+rG/JaZXxew6H1vP3qczz376/xh00fc+TMGT49U0Ntq9XXQ/z1aZE5iOi86dx8yxJunZlGQPG7rH31T/zh9S2c6jESNWk6M3PDCQ0aCti4OrDUHuX919ezry+dnKK5LF26nFtW3Mqtq+7gviVZGJuO8tHmj3hnfyODkQVMWrCMaYUppEdpO/hMVM5kJk2+iVljLh9FHkhQaCRmFc7TIwNweh14Q5NJHzufBXc9xJP/4zG+fVMqqearXNir0UeRNHIms1bezveWZeAt38HmtW+z7cA56q5ZWR5wNlFRfJrG3nDiJixl+YrlarmDW27KIN5ZS/nx45zp0l79ZyA0OoHIcHWvBdhVYy2Y8IQMcsfdxPQFq7h1+VJunxhMx+mDlFu8eFWYHjNpNotW3MbdDyxivNlGe+k5Dp1pvlA2dJ3dzbHSGk4GDGfqrLksWryM5avuYtXNoymKauTQ1rVsPtZKU8/X65EXQggh/n8iIdufVGj1elSA0QWpMBtKhDkYg3uAAdsAfZfPNHItgYEEBAWhV/vRHoS7Gk9fHaWlDZxuNTH1vhVMSDIR6ct5TlX8IAN9ap2vGCarjaN1OJ2+obxXc+0yPs/WXkdLYwvtA4FEJEfjKtnIprVrWL/zBGfav0HwMqaSP2U+S+9cwPSkVj598xXW7WhmICaHWfNGEaNWudgx77VW03R2L2u3lBEyaSETRueSE2lEbzBjSi5i8X2rmJofwkDpcQ5sP0KNKwCXTmt8BGojYa6gIyQkhPCIsAv/rDFiDIkgOi6G9ORY9IE64kZMonDqLSxecjd/+9SPeWRBHtlxXxhoc006UzrJI+dy/8P3sOKmCLqObuX9jdvYeryeXnUttPHhn6c1J8ykFU5j+s03MXO0arz1NlNzppxmq50Bjx2nowtLdwAenWrMRSQRFxtJnLpYgYZ4hk+bytiCLDKSs0nLGcuimbmqkTKAPnUc+YWTmTYqg8TIJIbNmESBauAFWXtpabeoMrUbw0bt0f2cqTxPlWOA7uKdfPTBe7y/8yTlLTZVPU6cPSfYeaiWVsuAdrBCCCGEuIyEbH+KjFZhTK/Cip0AfQojJuSQENBGW20Vp+q76Xd4cKtk6/vL48Jpt9HbaaF30I1LJSxXVzf2tnb6IsNUaLri0miJ2DNAz/ndHK8NoNa0hO8vSiUqVH/hIpowGCOJTdKyuscXtK8M0Vq41uYeMqqUmRQXq9a73jI+L2/pUzzxfzaw7vXf8MJTd7N4fAyBpZvYvmU764/2Xljr+ujMBaSNmMN3FscS7jxHX0YhCVljKLxiSLiruZb2cyc5bNORnJZOmOmzAegB6hroM6dSOCyOTEcD3efOUqIaH9ozgt+MFnZDVRA3YPzaw2CuTh+RStxNj/Lzp+5gcX4v5bve5ZWXNnO8TTXG3B5fvL0kQA8h41n25M947G8WsiC2kbJjO9n8xxf43VuHOHjeemHFK2iHqwscmkV06BN1zQ0kJCYTqDeoRX138dqrdbRZkLR1tevv8mi/bmgV1UZNZRM1B3ZwYsO/8fjjj19anv7tB7xVGkh6WiouW5dvVlMhhBBCfN6flxjE5yVlEzDoxFt+CluQkbzl32VWgZf23W/y21+sZW9NH71Or4owbpx9rTSf2sfWl37N+yostaic0lndRkt5A+bh0egMV14aF/Qd470POyFuNPc+dDPpKoN9NogjFIPBTHyiFrJtDNpViL80r/eQwUGt59OBISiIBF/IvmzAts9XlXEVgQZC4nIpmPcwz/78u8wbmUJvYyMl5yourHC9VOBTQTAiIgydLkAtOpUDv3ib9vZ00dHa5Jtj8Yq2hKKtn0pCsomo6H6czi4sXSo6fuOQ7Wd6I2FFD/K9O2YxL72Oyn1v8PSvDlFvHdSuwBe4+yo4svF5/uWxR1n9y6O056/mvlUzmDvmy95E/udSd6nbS1ThChY/vZ7du3d/Yfn4w618+NMFTMn97zwOIYQQ4q+ThGx/MuSRbeolyb2HPxYP4oiezm0/fJKH7xjLqJ4P+d2T93Lvt1ay8lv38tBPXmHNkT7MM5dRlBRKtP04xXUDHOkoYFFeIKFBF/sgFd8Mkud4b+2nBGSPZfysiYxJDkObHFLrgBxiIiw8kdGFaRiMzbRbbPRc0dHZ0d6KtQfCwzIYNyYGo+GykP21yrgKFYB1KhQbI+JILJzDhPwE0iPcuJzf9LUTQ+PGtYB9sR/2auUbjdpY9zAVBD1UVNXQ29d34RuNtkEQen2AagOYMYYmkBLvG43zF8F3fiGxDFuwmttumc3S+BpObvxXntt4mrONts+GjXhUE6JzHxt/+TxrdnfRc8MD/K+/X82d8ydRmBVDZMiXNn/+TENNF2vfID39HmIzM0lXS+alRdVpiovKUw1Yuy684UQIIYQQl0jI9iedmZRhWeRkhdL07no+qVbRt2A681fexu2rFjN7yngmjCtUAXcMo0eOoGBkPgVjR5JGBZ9+uJfSDj3msZMpMKuIePHKOHvoaixn7+YDtIUPI2/cKPIz44j4wrhiPaFRCQyfMVUFfQtNVY00Nl8csjH0839VRT0ttmhicsYzY1gwwReD/Ncu49q0QKwLMRMWEkFOShL5uV8+Fc2fy5iYTPyw4eR6XTQdOkx1Wwddn6VTtbRgabczEJpObMFoRoepbVSd6nSBvtCu/Z6gvbzj4pAabSiN5/9ZV7dW7zpCk0czQZsEaPkMxg8eZdcHBzjbZOFic8HrdtFfuoudH5dQ6UwkZ9YSFs4Yx4j0aMzB+s9mxPQ7bcdRxMSFY+itoOrQDjYda6Vn0H2hAeDB3duBtWQXJV1eul3ynxEhhBDiSvJ/Rz8LzxxN1thJ3DB4gpJ92/loXyl13lRy5n6bh370E57+6TM88+Mf8ei987g530j/2T3s3LaDXSdsGBMymTIthxC1H9+FcfXQWl7MsZ27+eh4G2F5OYTpXdjaVIBubKChvpqKEwc5U9tBa7+XoIhYEicuZf5oE/1qu1OnKqjrc+Fx9tNVsZsDJ9rojihg7MzpjI9RoVPr2b2uMpzYrc1UH9zKjj1HKKlqw6I+c/smLOmh8cRhagYTSSsYx5xx3zBkq9Dsctqx9tpV8PXgsNkYsA/iuCL/6uNzSR41haXDTXjO7GDP4ZOcqO/C5lJB0GWnp3I3JyrduNPGUjSnkGxtG7WEhZkJCXFj62+i4lw71r5u2mvLqK6up9qiPQzqpdfajdXai90+gNN3LDZ1LDZsNjv2QVWfviP4Kh61rYNOSxc9lg5sdgfOL2xoJDZ/CpNX3MvqpWMxt9TQ09dL/4VvvR43jqYamq0Oej0BBGKn32alu6GU83XqevSoOnKrhkR/Jw2N6tz7e3E4HNgHVEGuQQbd2mQx2p6GjsVisaj1rfT1DmAbGDoP7Xw9tgHsKtA7XNq94mTQo1OfR5NVOIa8WDuukvf43WvreWfrHvYfPsaxw/s58Mk+dnzSSGhqPIZw7Y4VQgghxOXkPdn+FhCMKSKKnNFRVK9/kQ07z3POqsNoNmE26FWIsTM4oIJSSyXnj+/kvTW/5Vfv2Rl+650sWjCRMWYVr33dqy4GLSXsXPsm77xzhN7JU4ixNqhAWEVVlbZok7+c5OCm/6TYMwxTfBrZMSHogpNJ85zgkAr39a4wDOkZZNLIyTd+xZr9Tkw3LmXVPQsoMgeoIH+9ZcQQ0X6Qrc8+wNNvV9JGNJHRZiKMg9jaK9jz0i/ZY5jFyFlzWVkUrSLkdVLB0G7rpKnyJIfe38DO8ypUmvLIz02nICsKg/bQnqoe3/CRwEjVSDCQHPApu459yqmmYIxhcWQkmwjqb6ds04usORFJ0rTFfPv2yaSrg9E201tOcaJU7b+qlQ53LgWJNppUo+HTY8UcOG/hVJWF0LwZjEwMIi64n96msgvH0o8xezK5Wemqno0E67+kfepxqGvcR1ttKce2rGVNWQSjh6eQkRhJkF6vPWf4Ge1+MUeRW5hIy94D1IYVMm7cGGb43pPtQt9xnG37izle52DAZWJkto62o5vZ8uEB9p+xMGAII338CAZqO4kOaqDyyGH27a2hTp/F9AWFpESGYnQP0Fl7mkPvvc7mU814UyYzLCuTnFg9Qc5eumv2seWdg5ywhBCalsecidmEBAcSk2xmUGtsHd6j9rmdbeqeKi07zckD29h9uJRdQav4wfIcMqPUdblwOkIIIYQYEuDVurKEf3m1oQiD9Ha10nj+U45+vIf9+9Sf1Y30DIJbF0pYfBaZI8Yzc/48Zo3OJj0lBrPJgEGnoqDXCbZj/PEf/ok/bNrL0Q4nXlMY2pwln41P9uLVGXDn3sc/P3s/K6cNIz5Iy+ceXL1NlGx7nbff2cnO4820OQzE5E5i7p13sWhmEYWpEb7e6usvI4uQlhJOrPkxP3r5ODX9egJCzIRHJ5I8fDwLb1nBzKJ88lIiMYcGXf/PJCde54VX1/P8W8XYujvoGlD1aIjwPQSZUziNBU+t44nJEH2h41TrsR7squP01v/gtQ272VfWTrdb1WFYLLmj5jBv5RJunjKC/MTwS5OluPvOsO9Pr/Kn1zbxZpmHqGE3sfDee1mR1oT91DbuXtPD0u/+HfctCcKy+S3efXET233HAkHh0URMuJ3ZK+9n3feLhnZ4NS1bWfvSf/Ifr+6irNdCh9NEpGpkFa16kmX3Pc4XNvW6VS7voePY73jmwwTG3DCFh27JV9fSDfZ6dvz6H3h53cfsqgklNudGVv3oERYbPmH7urf4/Sc24ub9gH+6r58d//dNtu0opspqxx4YQWz8Ddz5z4+Qb1XXat3L/P5kO5Y+D4FhqrGkzmPKjeP5ecx6HnilhDLVuOhzqQZAaBYZGct5ZssT3KwaLCEtpZw7uE2dz8u8VdxKt8dE3Ii5TFn4LX7wwBxGxQT7GhyXbhkhhBBC+EjI/m+jVasHR5+F9qYmmpvbabf249DGAQfoCQoJJywqjpT0NFKiTRhVUNHytY8KyrgtVJWcpba5i2vO9REQCOZhFI5W+4gxMTSEeqjc/rZq6mvraWjtpd+tJyQqifTcbFLiInxTu3+zMkIJGLDS21jKqcp2euxu3ASiCwomxBxLenauOpdQTMarzCD5dXRVcu58Hecaey588BljRCxJI6aidfAaLz3vN/QqRHt7FZWqAdNk6cOmziNAH4w5NoOM7BQSokyE6i87Go+NrqZaGqtrqelULZ6QOJJzh5ERpv7e2szhWjdJGVmkJao2SF0dDeWNtF3Y1MecQmxKNlPztLd2X8NAE9UV1Zyvar809ENjTsknJVs1Qq6yqRaovf11nG3SExYeSWZSuPapWlx0VZ+mqraJJlUtAcHRZIwaSbrBQltDA9UtDgJjshmT46LhXB0t7b0XJgLSzjmMtDF5hDu76K+rovbzB0NUVDRjjLUcrurDfmksi5HAoCRGzyogMdSI0WXD1tNGfcV56iz92N2BGMzJxCenk58T62uUXbpvhRBCCHGJhGwhhBBCCCH87Lp/0RdCCCGEEEJ8OQnZQgghhBBC+JmEbCGEEEIIIfxMQrYQQgghhBB+JiFbCCGEEEIIP5OQLYQQQgghhJ9JyBZCCCGEEMLPJGQLIYQQQgjhZxKyhRBCCCGE8DMJ2UIIIYQQQviZhGwhhBBCCCH8TEK2EEIIIYQQfiYhWwghhBBCCD+TkC2EEEIIIYSfScgWQgghhBDCzyRkCyGEEEII4WcSsoUQQgghhPAzCdlCCCGEEEL4mYRsIYQQQggh/ExCthBCCCGEEH4mIVsIIYQQQgg/k5AthBBCCCGEn0nIFkIIIYQQws8kZAshhBBCCOFnErKFEEIIIYTwMwnZQgghhBBC+JmEbCGEEEIIIfxMQrYQQgghhBB+JiFbCCGEEEIIP5OQLYQQQgghhJ9JyBZCCCGEEMLPJGQLIYQQQgjhZxKyhRBCCCGE8DMJ2UIIIYQQQvgV/BdoLG+jGjsViQAAAABJRU5ErkJggg==;" parent="1" vertex="1">
                    <mxGeometry x="-3" y="254.22" width="567.5" height="337.85" as="geometry"/>
                </mxCell>
                <mxCell id="qMUsyCZSyLWOP69boBCw-3" value="" style="rounded=1;whiteSpace=wrap;html=1;strokeColor=#000000;strokeWidth=5;opacity=40;" parent="1" vertex="1">
                    <mxGeometry x="9" y="255" width="412" height="54.61" as="geometry"/>
                </mxCell>
                <mxCell id="qMUsyCZSyLWOP69boBCw-4" value="" style="rounded=1;whiteSpace=wrap;html=1;strokeColor=#000000;strokeWidth=5;opacity=40;" parent="1" vertex="1">
                    <mxGeometry x="9" y="323" width="402" height="210" as="geometry"/>
                </mxCell>
                <mxCell id="qMUsyCZSyLWOP69boBCw-5" value="" style="rounded=1;whiteSpace=wrap;html=1;strokeColor=default;strokeWidth=5;opacity=40;fillColor=none;" parent="1" vertex="1">
                    <mxGeometry x="9" y="546" width="220" height="50" as="geometry"/>
                </mxCell>
                <mxCell id="qMUsyCZSyLWOP69boBCw-6" value="" style="rounded=1;whiteSpace=wrap;html=1;strokeWidth=5;opacity=40;shadow=0;strokeColor=#000000;movable=1;resizable=1;rotatable=1;deletable=1;editable=1;connectable=1;gradientColor=none;glass=0;fillColor=none;" parent="1" vertex="1">
                    <mxGeometry x="-10" y="188" width="577" height="452" as="geometry"/>
                </mxCell>
                <mxCell id="qMUsyCZSyLWOP69boBCw-8" value="&lt;h3&gt;&lt;font style=&quot;font-size: 13px;&quot;&gt;App Componet&lt;/font&gt;&lt;/h3&gt;" style="rounded=0;whiteSpace=wrap;html=1;shadow=0;strokeColor=default;strokeWidth=5;fillColor=none;opacity=40;" parent="1" vertex="1">
                    <mxGeometry x="663" y="202" width="120" height="60" as="geometry"/>
                </mxCell>
                <mxCell id="qMUsyCZSyLWOP69boBCw-17" style="edgeStyle=orthogonalEdgeStyle;rounded=0;orthogonalLoop=1;jettySize=auto;html=1;" parent="1" source="qMUsyCZSyLWOP69boBCw-9" target="qMUsyCZSyLWOP69boBCw-3" edge="1">
                    <mxGeometry relative="1" as="geometry"/>
                </mxCell>
                <mxCell id="qMUsyCZSyLWOP69boBCw-9" value="&lt;b&gt;Header Componet&lt;/b&gt;" style="rounded=0;whiteSpace=wrap;html=1;shadow=0;strokeColor=default;strokeWidth=5;fillColor=none;opacity=40;" parent="1" vertex="1">
                    <mxGeometry x="663" y="305" width="120" height="60" as="geometry"/>
                </mxCell>
                <mxCell id="qMUsyCZSyLWOP69boBCw-18" style="edgeStyle=orthogonalEdgeStyle;rounded=0;orthogonalLoop=1;jettySize=auto;html=1;entryX=1.002;entryY=0.686;entryDx=0;entryDy=0;entryPerimeter=0;" parent="1" source="qMUsyCZSyLWOP69boBCw-10" target="qMUsyCZSyLWOP69boBCw-4" edge="1">
                    <mxGeometry relative="1" as="geometry"/>
                </mxCell>
                <mxCell id="qMUsyCZSyLWOP69boBCw-10" value="&lt;b&gt;MessageList Componet&lt;/b&gt;" style="rounded=0;whiteSpace=wrap;html=1;shadow=0;strokeColor=default;strokeWidth=5;fillColor=none;opacity=40;" parent="1" vertex="1">
                    <mxGeometry x="666" y="434" width="120" height="60" as="geometry"/>
                </mxCell>
                <mxCell id="qMUsyCZSyLWOP69boBCw-19" style="edgeStyle=orthogonalEdgeStyle;rounded=0;orthogonalLoop=1;jettySize=auto;html=1;" parent="1" source="qMUsyCZSyLWOP69boBCw-11" target="qMUsyCZSyLWOP69boBCw-5" edge="1">
                    <mxGeometry relative="1" as="geometry"/>
                </mxCell>
                <mxCell id="qMUsyCZSyLWOP69boBCw-11" value="&lt;b&gt;Footer&lt;/b&gt;" style="rounded=0;whiteSpace=wrap;html=1;shadow=0;strokeColor=default;strokeWidth=5;fillColor=none;opacity=40;" parent="1" vertex="1">
                    <mxGeometry x="668" y="541" width="118" height="60" as="geometry"/>
                </mxCell>
                <mxCell id="qMUsyCZSyLWOP69boBCw-20" value="" style="endArrow=classic;html=1;rounded=0;exitX=0.993;exitY=0.093;exitDx=0;exitDy=0;exitPerimeter=0;" parent="1" source="qMUsyCZSyLWOP69boBCw-6" target="qMUsyCZSyLWOP69boBCw-8" edge="1">
                    <mxGeometry width="50" height="50" relative="1" as="geometry">
                        <mxPoint x="399" y="864" as="sourcePoint"/>
                        <mxPoint x="449" y="814" as="targetPoint"/>
                    </mxGeometry>
                </mxCell>
                <mxCell id="jjIHWgFSOv-BqyKoCy4l-1" value="" style="rounded=1;whiteSpace=wrap;html=1;gradientColor=none;opacity=10;" parent="1" vertex="1">
                    <mxGeometry x="26" y="358" width="184" height="33" as="geometry"/>
                </mxCell>
                <mxCell id="jjIHWgFSOv-BqyKoCy4l-2" value="Message Componet&lt;br&gt;" style="rounded=1;whiteSpace=wrap;html=1;gradientColor=none;opacity=10;fillColor=#000000;" parent="1" vertex="1">
                    <mxGeometry x="277" y="358" width="120" height="60" as="geometry"/>
                </mxCell>
                <mxCell id="jjIHWgFSOv-BqyKoCy4l-4" value="" style="rounded=1;whiteSpace=wrap;html=1;gradientColor=none;opacity=10;" parent="1" vertex="1">
                    <mxGeometry x="25" y="394" width="221" height="24" as="geometry"/>
                </mxCell>
                <mxCell id="jjIHWgFSOv-BqyKoCy4l-5" value="" style="endArrow=classic;html=1;rounded=0;" parent="1" source="jjIHWgFSOv-BqyKoCy4l-2" target="jjIHWgFSOv-BqyKoCy4l-1" edge="1">
                    <mxGeometry width="50" height="50" relative="1" as="geometry">
                        <mxPoint x="210" y="423" as="sourcePoint"/>
                        <mxPoint x="260" y="373" as="targetPoint"/>
                    </mxGeometry>
                </mxCell>
                <mxCell id="jjIHWgFSOv-BqyKoCy4l-6" value="" style="rounded=1;whiteSpace=wrap;html=1;gradientColor=none;opacity=10;" parent="1" vertex="1">
                    <mxGeometry x="26" y="425" width="197" height="24" as="geometry"/>
                </mxCell>
                <mxCell id="jjIHWgFSOv-BqyKoCy4l-7" value="" style="rounded=1;whiteSpace=wrap;html=1;gradientColor=none;opacity=10;" parent="1" vertex="1">
                    <mxGeometry x="28" y="451" width="135" height="21" as="geometry"/>
                </mxCell>
                <mxCell id="jjIHWgFSOv-BqyKoCy4l-8" value="" style="rounded=1;whiteSpace=wrap;html=1;gradientColor=none;opacity=10;" parent="1" vertex="1">
                    <mxGeometry x="24" y="477" width="211" height="26" as="geometry"/>
                </mxCell>
                <mxCell id="jjIHWgFSOv-BqyKoCy4l-9" value="" style="rounded=1;whiteSpace=wrap;html=1;gradientColor=none;opacity=10;" parent="1" vertex="1">
                    <mxGeometry x="24" y="503" width="213" height="22" as="geometry"/>
                </mxCell>
                <mxCell id="jjIHWgFSOv-BqyKoCy4l-10" value="" style="endArrow=classic;html=1;rounded=0;" parent="1" source="jjIHWgFSOv-BqyKoCy4l-2" target="jjIHWgFSOv-BqyKoCy4l-4" edge="1">
                    <mxGeometry width="50" height="50" relative="1" as="geometry">
                        <mxPoint x="487" y="405" as="sourcePoint"/>
                        <mxPoint x="537" y="355" as="targetPoint"/>
                        <Array as="points">
                            <mxPoint x="257" y="418"/>
                        </Array>
                    </mxGeometry>
                </mxCell>
                <mxCell id="jjIHWgFSOv-BqyKoCy4l-11" value="" style="endArrow=classic;html=1;rounded=0;" parent="1" source="jjIHWgFSOv-BqyKoCy4l-2" target="jjIHWgFSOv-BqyKoCy4l-6" edge="1">
                    <mxGeometry width="50" height="50" relative="1" as="geometry">
                        <mxPoint x="487" y="405" as="sourcePoint"/>
                        <mxPoint x="537" y="355" as="targetPoint"/>
                        <Array as="points">
                            <mxPoint x="278" y="434"/>
                        </Array>
                    </mxGeometry>
                </mxCell>
                <mxCell id="jjIHWgFSOv-BqyKoCy4l-12" value="" style="endArrow=classic;html=1;rounded=0;exitX=0.5;exitY=1;exitDx=0;exitDy=0;" parent="1" source="jjIHWgFSOv-BqyKoCy4l-2" target="jjIHWgFSOv-BqyKoCy4l-7" edge="1">
                    <mxGeometry width="50" height="50" relative="1" as="geometry">
                        <mxPoint x="487" y="405" as="sourcePoint"/>
                        <mxPoint x="537" y="355" as="targetPoint"/>
                        <Array as="points">
                            <mxPoint x="272" y="453"/>
                        </Array>
                    </mxGeometry>
                </mxCell>
                <mxCell id="jjIHWgFSOv-BqyKoCy4l-13" value="" style="endArrow=classic;html=1;rounded=0;entryX=0.972;entryY=-0.091;entryDx=0;entryDy=0;entryPerimeter=0;exitX=0.75;exitY=1;exitDx=0;exitDy=0;" parent="1" source="jjIHWgFSOv-BqyKoCy4l-2" target="jjIHWgFSOv-BqyKoCy4l-9" edge="1">
                    <mxGeometry width="50" height="50" relative="1" as="geometry">
                        <mxPoint x="487" y="405" as="sourcePoint"/>
                        <mxPoint x="537" y="355" as="targetPoint"/>
                    </mxGeometry>
                </mxCell>
                <mxCell id="jjIHWgFSOv-BqyKoCy4l-15" value="" style="endArrow=classic;html=1;rounded=0;entryX=1;entryY=0.5;entryDx=0;entryDy=0;exitX=0.9;exitY=1.05;exitDx=0;exitDy=0;exitPerimeter=0;" parent="1" source="jjIHWgFSOv-BqyKoCy4l-2" target="jjIHWgFSOv-BqyKoCy4l-9" edge="1">
                    <mxGeometry width="50" height="50" relative="1" as="geometry">
                        <mxPoint x="487" y="405" as="sourcePoint"/>
                        <mxPoint x="537" y="355" as="targetPoint"/>
                        <Array as="points">
                            <mxPoint x="333" y="492"/>
                        </Array>
                    </mxGeometry>
                </mxCell>
                <mxCell id="2" style="edgeStyle=none;html=1;exitX=0.5;exitY=0;exitDx=0;exitDy=0;entryX=0.25;entryY=0;entryDx=0;entryDy=0;" edge="1" parent="1" source="jjIHWgFSOv-BqyKoCy4l-9" target="jjIHWgFSOv-BqyKoCy4l-9">
                    <mxGeometry relative="1" as="geometry"/>
                </mxCell>
            </root>
        </mxGraphModel>
    </diagram>
</mxfile>